M48
; DRILL file {KiCad (5.1.8)-1} date 11/24/21 15:28:49
; FORMAT={-:-/ absolute / inch / decimal}
; #@! TF.CreationDate,2021-11-24T15:28:49-03:00
; #@! TF.GenerationSoftware,Kicad,Pcbnew,(5.1.8)-1
; #@! TF.FileFunction,Plated,1,2,PTH
FMAT,2
INCH
T1C0.0157
T2C0.0295
T3C0.0315
T4C0.0354
T5C0.0394
T6C0.0433
%
G90
G05
T1
X4.385Y-5.25
X4.555Y-3.155
X4.645Y-3.735
X4.75Y-3.62
X4.82Y-3.69
X4.935Y-3.68
X5.11Y-3.15
X5.24Y-4.49
X5.3Y-3.735
X5.63Y-2.98
X5.63Y-5.075
X5.76Y-5.265
X5.825Y-5.21
X5.88Y-5.13
X6.43Y-2.835
X6.48Y-3.3186
X6.52Y-4.425
X6.57Y-4.975
X6.58Y-4.14
X6.59Y-4.565
X6.66Y-3.44
X6.71Y-2.92
X6.71Y-4.975
X6.715Y-4.565
X6.72Y-4.14
X6.8002Y-2.9202
X6.92Y-2.96
X6.9202Y-2.9002
X7.0Y-3.48
X7.02Y-2.9
X7.28Y-3.16
X7.32Y-3.22
X7.38Y-3.36
T2
X4.58Y-5.16
X4.88Y-5.16
T3
X4.82Y-4.02
X4.82Y-4.12
X4.82Y-4.22
X4.82Y-4.32
X5.12Y-4.02
X5.12Y-4.12
X5.12Y-4.22
X5.12Y-4.32
X4.42Y-3.12
X4.42Y-3.32
X4.62Y-3.22
X6.87Y-5.29
X7.17Y-5.29
X6.87Y-4.46
X7.17Y-4.46
X6.87Y-5.5
X7.17Y-5.5
X6.92Y-2.76
X6.92Y-3.06
X7.02Y-2.76
X7.02Y-3.06
X7.12Y-2.76
X7.12Y-3.06
X7.22Y-2.76
X7.22Y-3.06
X5.84Y-5.6
X6.14Y-5.6
X4.44Y-4.12
X4.44Y-4.2184
X6.87Y-4.87
X7.17Y-4.87
X5.78Y-2.16
X6.08Y-2.16
X6.58Y-2.16
X6.88Y-2.16
X6.57Y-2.745
X6.57Y-3.045
X5.51Y-2.835
X5.81Y-2.835
X5.3Y-4.0231
X5.3Y-4.22
X4.44Y-4.42
X4.44Y-4.5184
X4.62Y-4.22
X4.62Y-4.4129
X6.73Y-3.38
X6.73Y-3.68
X6.83Y-3.38
X6.83Y-3.68
X6.93Y-3.38
X6.93Y-3.68
X7.03Y-3.38
X7.03Y-3.68
X6.98Y-2.16
X7.28Y-2.16
X6.725Y-2.745
X6.725Y-3.045
X5.1Y-5.32
X5.1Y-5.4578
X6.87Y-4.03
X7.17Y-4.03
X6.87Y-4.24
X7.17Y-4.24
X4.94Y-2.44
X4.94Y-2.74
X6.035Y-2.67
X6.035Y-2.97
X6.87Y-4.66
X7.17Y-4.66
X6.87Y-5.08
X7.17Y-5.08
X5.51Y-3.12
X5.51Y-3.22
X5.51Y-3.32
X5.51Y-3.42
X5.51Y-3.52
X5.51Y-3.62
X5.51Y-3.72
X5.51Y-3.82
X5.51Y-3.92
X5.51Y-4.02
X5.51Y-4.12
X5.51Y-4.22
X5.51Y-4.32
X5.51Y-4.42
X5.51Y-4.52
X5.51Y-4.62
X5.51Y-4.72
X5.51Y-4.82
X5.51Y-4.92
X5.51Y-5.02
X6.11Y-3.12
X6.11Y-3.22
X6.11Y-3.32
X6.11Y-3.42
X6.11Y-3.52
X6.11Y-3.62
X6.11Y-3.72
X6.11Y-3.82
X6.11Y-3.92
X6.11Y-4.02
X6.11Y-4.12
X6.11Y-4.22
X6.11Y-4.32
X6.11Y-4.42
X6.11Y-4.52
X6.11Y-4.62
X6.11Y-4.72
X6.11Y-4.82
X6.11Y-4.92
X6.11Y-5.02
X6.36Y-2.755
X6.36Y-3.055
X5.88Y-5.8
X6.0769Y-5.8
X6.18Y-2.16
X6.48Y-2.16
X4.42Y-3.56
X4.42Y-3.76
X4.62Y-3.66
X6.34Y-3.92
X6.34Y-4.1169
T4
X6.65Y-4.66
X6.75Y-4.66
X6.65Y-4.03
X6.75Y-4.03
X6.65Y-5.08
X6.75Y-5.08
X6.34Y-5.72
X6.44Y-5.72
X6.6512Y-4.2378
X6.7512Y-4.2378
X6.65Y-4.45
X6.75Y-4.45
X6.65Y-5.29
X6.75Y-5.29
X6.65Y-4.87
X6.75Y-4.87
X6.65Y-5.5
X6.75Y-5.5
T5
X3.92Y-3.78
X3.92Y-3.88
X3.92Y-3.98
X3.92Y-4.08
X5.12Y-2.14
X5.22Y-2.14
X5.32Y-2.14
X5.42Y-2.14
X5.52Y-2.14
X7.56Y-4.26
X7.56Y-4.36
X7.56Y-4.46
X7.56Y-4.56
X7.56Y-4.66
X7.56Y-4.76
X7.56Y-4.86
X7.56Y-4.96
X7.56Y-2.92
X7.56Y-3.02
X7.56Y-3.12
X7.56Y-3.22
X7.56Y-3.32
X7.56Y-3.42
X7.56Y-3.52
X7.56Y-3.62
X3.94Y-4.64
X3.94Y-4.74
X3.94Y-4.84
X3.94Y-4.94
X3.94Y-5.04
X3.94Y-5.14
X3.94Y-5.24
X3.94Y-5.34
X6.78Y-5.82
X6.88Y-5.82
X3.92Y-2.42
X3.92Y-2.52
X3.92Y-2.62
X3.92Y-2.72
X3.92Y-2.82
X3.92Y-2.92
X3.92Y-3.02
X3.92Y-3.12
T6
X5.805Y-2.365
X5.805Y-2.5422
X6.0609Y-2.365
X6.0609Y-2.5422
X7.0Y-2.36
X7.0Y-2.5372
X7.2559Y-2.36
X7.2559Y-2.5372
X6.6Y-2.36
X6.6Y-2.5372
X6.8559Y-2.36
X6.8559Y-2.5372
X6.2Y-2.36
X6.2Y-2.5372
X6.4559Y-2.36
X6.4559Y-2.5372
X5.32Y-5.74
X5.42Y-5.74
X5.52Y-5.74
X5.1441Y-2.5428
X5.1441Y-2.72
X5.4Y-2.5428
X5.4Y-2.72
T3
G00X4.3188Y-5.355
M15
G01X4.4212Y-5.355
M16
G05
G00X4.3267Y-5.5833
M15
G01X4.4133Y-5.5833
M16
G05
G00X4.559Y-5.5164
M15
G01X4.559Y-5.4298
M16
G05
T0
M30
