%TF.GenerationSoftware,KiCad,Pcbnew,(5.1.8)-1*%
%TF.CreationDate,2021-11-24T15:28:43-03:00*%
%TF.ProjectId,pic18_base_board_03,70696331-385f-4626-9173-655f626f6172,rev?*%
%TF.SameCoordinates,Original*%
%TF.FileFunction,Soldermask,Bot*%
%TF.FilePolarity,Negative*%
%FSLAX46Y46*%
G04 Gerber Fmt 4.6, Leading zero omitted, Abs format (unit mm)*
G04 Created by KiCad (PCBNEW (5.1.8)-1) date 2021-11-24 15:28:43*
%MOMM*%
%LPD*%
G01*
G04 APERTURE LIST*
%ADD10O,1.700000X1.700000*%
%ADD11R,1.700000X1.700000*%
%ADD12R,4.400000X1.800000*%
%ADD13O,4.000000X1.800000*%
%ADD14O,1.800000X4.000000*%
%ADD15O,1.600000X1.600000*%
%ADD16C,1.600000*%
%ADD17C,3.200000*%
%ADD18O,2.400000X1.600000*%
%ADD19R,2.400000X1.600000*%
%ADD20C,2.000000*%
%ADD21R,1.600000X1.600000*%
%ADD22R,1.500000X1.500000*%
%ADD23O,1.500000X1.500000*%
%ADD24C,1.800000*%
%ADD25R,1.800000X1.800000*%
%ADD26C,1.440000*%
%ADD27R,1.905000X2.000000*%
%ADD28O,1.905000X2.000000*%
%ADD29C,1.500000*%
G04 APERTURE END LIST*
D10*
%TO.C,J8*%
X192024000Y-108204000D03*
X192024000Y-110744000D03*
X192024000Y-113284000D03*
X192024000Y-115824000D03*
X192024000Y-118364000D03*
X192024000Y-120904000D03*
X192024000Y-123444000D03*
D11*
X192024000Y-125984000D03*
%TD*%
D10*
%TO.C,J7*%
X100076000Y-135636000D03*
X100076000Y-133096000D03*
X100076000Y-130556000D03*
X100076000Y-128016000D03*
X100076000Y-125476000D03*
X100076000Y-122936000D03*
X100076000Y-120396000D03*
D11*
X100076000Y-117856000D03*
%TD*%
D10*
%TO.C,J6*%
X192024000Y-91948000D03*
X192024000Y-89408000D03*
X192024000Y-86868000D03*
X192024000Y-84328000D03*
X192024000Y-81788000D03*
X192024000Y-79248000D03*
X192024000Y-76708000D03*
D11*
X192024000Y-74168000D03*
%TD*%
D10*
%TO.C,J5*%
X99568000Y-79248000D03*
X99568000Y-76708000D03*
X99568000Y-74168000D03*
X99568000Y-71628000D03*
X99568000Y-69088000D03*
X99568000Y-66548000D03*
X99568000Y-64008000D03*
D11*
X99568000Y-61468000D03*
%TD*%
D10*
%TO.C,J4*%
X99568000Y-103632000D03*
X99568000Y-101092000D03*
X99568000Y-98552000D03*
D11*
X99568000Y-96012000D03*
%TD*%
D10*
%TO.C,J3*%
X140208000Y-54356000D03*
X137668000Y-54356000D03*
X135128000Y-54356000D03*
X132588000Y-54356000D03*
D11*
X130048000Y-54356000D03*
%TD*%
D10*
%TO.C,J1*%
X174752000Y-147828000D03*
D11*
X172212000Y-147828000D03*
%TD*%
D12*
%TO.C,J2*%
X110998000Y-136017000D03*
D13*
X110998000Y-141817000D03*
D14*
X115798000Y-139017000D03*
%TD*%
D15*
%TO.C,R19*%
X170815000Y-69723000D03*
D16*
X170815000Y-77343000D03*
%TD*%
D15*
%TO.C,R18*%
X166878000Y-69723000D03*
D16*
X166878000Y-77343000D03*
%TD*%
D15*
%TO.C,R17*%
X161544000Y-69977000D03*
D16*
X161544000Y-77597000D03*
%TD*%
D15*
%TO.C,R16*%
X153289000Y-67818000D03*
D16*
X153289000Y-75438000D03*
%TD*%
D15*
%TO.C,R15*%
X147574000Y-72009000D03*
D16*
X139954000Y-72009000D03*
%TD*%
D17*
%TO.C,*%
X99314000Y-146812000D03*
%TD*%
%TO.C,*%
X191516000Y-146812000D03*
%TD*%
%TO.C,*%
X191516000Y-54610000D03*
%TD*%
%TO.C,*%
X99314000Y-54610000D03*
%TD*%
D18*
%TO.C,U2*%
X155194000Y-79248000D03*
X139954000Y-127508000D03*
X155194000Y-81788000D03*
X139954000Y-124968000D03*
X155194000Y-84328000D03*
X139954000Y-122428000D03*
X155194000Y-86868000D03*
X139954000Y-119888000D03*
X155194000Y-89408000D03*
X139954000Y-117348000D03*
X155194000Y-91948000D03*
X139954000Y-114808000D03*
X155194000Y-94488000D03*
X139954000Y-112268000D03*
X155194000Y-97028000D03*
X139954000Y-109728000D03*
X155194000Y-99568000D03*
X139954000Y-107188000D03*
X155194000Y-102108000D03*
X139954000Y-104648000D03*
X155194000Y-104648000D03*
X139954000Y-102108000D03*
X155194000Y-107188000D03*
X139954000Y-99568000D03*
X155194000Y-109728000D03*
X139954000Y-97028000D03*
X155194000Y-112268000D03*
X139954000Y-94488000D03*
X155194000Y-114808000D03*
X139954000Y-91948000D03*
X155194000Y-117348000D03*
X139954000Y-89408000D03*
X155194000Y-119888000D03*
X139954000Y-86868000D03*
X155194000Y-122428000D03*
X139954000Y-84328000D03*
X155194000Y-124968000D03*
X139954000Y-81788000D03*
X155194000Y-127508000D03*
D19*
X139954000Y-79248000D03*
%TD*%
D20*
%TO.C,B1*%
X153947000Y-60071000D03*
X153947000Y-64571000D03*
X147447000Y-60071000D03*
X147447000Y-64571000D03*
%TD*%
%TO.C,B2*%
X157480000Y-64444000D03*
X157480000Y-59944000D03*
X163980000Y-64444000D03*
X163980000Y-59944000D03*
%TD*%
%TO.C,B3*%
X174140000Y-59944000D03*
X174140000Y-64444000D03*
X167640000Y-59944000D03*
X167640000Y-64444000D03*
%TD*%
%TO.C,B4*%
X177800000Y-64444000D03*
X177800000Y-59944000D03*
X184300000Y-64444000D03*
X184300000Y-59944000D03*
%TD*%
D21*
%TO.C,C1*%
X129540000Y-135128000D03*
D16*
X129540000Y-138628000D03*
%TD*%
%TO.C,C2*%
X149352000Y-147320000D03*
X154352000Y-147320000D03*
%TD*%
%TO.C,C3*%
X134620000Y-107188000D03*
X134620000Y-102188000D03*
%TD*%
%TO.C,C4*%
X161036000Y-99568000D03*
X161036000Y-104568000D03*
%TD*%
%TO.C,C5*%
X112776000Y-104648000D03*
X112776000Y-107148000D03*
%TD*%
%TO.C,C6*%
X112776000Y-112268000D03*
X112776000Y-114768000D03*
%TD*%
D22*
%TO.C,D1*%
X116332000Y-131064000D03*
D23*
X123952000Y-131064000D03*
%TD*%
D24*
%TO.C,LED1*%
X171450000Y-139700000D03*
D25*
X168910000Y-139700000D03*
%TD*%
%TO.C,LED2*%
X168910000Y-134366000D03*
D24*
X171450000Y-134366000D03*
%TD*%
%TO.C,LED3*%
X171450000Y-129032000D03*
D25*
X168910000Y-129032000D03*
%TD*%
%TO.C,LED4*%
X168910000Y-123698000D03*
D24*
X171450000Y-123698000D03*
%TD*%
%TO.C,LED5*%
X171450000Y-118364000D03*
D25*
X168910000Y-118364000D03*
%TD*%
%TO.C,LED6*%
X168910000Y-113030000D03*
D24*
X171450000Y-113030000D03*
%TD*%
D25*
%TO.C,LED7*%
X168940001Y-107639001D03*
D24*
X171480001Y-107639001D03*
%TD*%
D25*
%TO.C,LED8*%
X168910000Y-102362000D03*
D24*
X171450000Y-102362000D03*
%TD*%
%TO.C,ON1*%
X161036000Y-145288000D03*
D25*
X163576000Y-145288000D03*
%TD*%
D26*
%TO.C,POT1*%
X112268000Y-95504000D03*
X117348000Y-92964000D03*
X112268000Y-90424000D03*
%TD*%
%TO.C,POT2*%
X112268000Y-79248000D03*
X117348000Y-81788000D03*
X112268000Y-84328000D03*
%TD*%
D16*
%TO.C,R1*%
X125476000Y-61976000D03*
D15*
X125476000Y-69596000D03*
%TD*%
D16*
%TO.C,R2*%
X146812000Y-54864000D03*
D15*
X154432000Y-54864000D03*
%TD*%
%TO.C,R3*%
X164592000Y-54864000D03*
D16*
X156972000Y-54864000D03*
%TD*%
D15*
%TO.C,R4*%
X174752000Y-54864000D03*
D16*
X167132000Y-54864000D03*
%TD*%
D15*
%TO.C,R5*%
X184912000Y-54864000D03*
D16*
X177292000Y-54864000D03*
%TD*%
D15*
%TO.C,R6*%
X155956000Y-142240000D03*
D16*
X148336000Y-142240000D03*
%TD*%
D15*
%TO.C,R7*%
X174498000Y-139700000D03*
D16*
X182118000Y-139700000D03*
%TD*%
%TO.C,R8*%
X182118000Y-134366000D03*
D15*
X174498000Y-134366000D03*
%TD*%
%TO.C,R9*%
X174498000Y-129032000D03*
D16*
X182118000Y-129032000D03*
%TD*%
%TO.C,R10*%
X182118000Y-123698000D03*
D15*
X174498000Y-123698000D03*
%TD*%
%TO.C,R11*%
X174498000Y-118364000D03*
D16*
X182118000Y-118364000D03*
%TD*%
%TO.C,R12*%
X182118000Y-113284000D03*
D15*
X174498000Y-113284000D03*
%TD*%
D16*
%TO.C,R13*%
X182118000Y-107696000D03*
D15*
X174498000Y-107696000D03*
%TD*%
D16*
%TO.C,R14*%
X182118000Y-102362000D03*
D15*
X174498000Y-102362000D03*
%TD*%
D20*
%TO.C,SW1*%
X137160000Y-64588000D03*
X137160000Y-69088000D03*
X130660000Y-64588000D03*
X130660000Y-69088000D03*
%TD*%
D21*
%TO.C,SW2*%
X178562000Y-85852000D03*
D15*
X170942000Y-93472000D03*
X176022000Y-85852000D03*
X173482000Y-93472000D03*
X173482000Y-85852000D03*
X176022000Y-93472000D03*
X170942000Y-85852000D03*
X178562000Y-93472000D03*
%TD*%
%TO.C,SW3*%
X130048000Y-102108000D03*
X122428000Y-109728000D03*
X130048000Y-104648000D03*
X122428000Y-107188000D03*
X130048000Y-107188000D03*
X122428000Y-104648000D03*
X130048000Y-109728000D03*
D21*
X122428000Y-102108000D03*
%TD*%
%TO.C,SW4*%
X183388000Y-70104000D03*
D15*
X175768000Y-77724000D03*
X180848000Y-70104000D03*
X178308000Y-77724000D03*
X178308000Y-70104000D03*
X180848000Y-77724000D03*
X175768000Y-70104000D03*
X183388000Y-77724000D03*
%TD*%
D27*
%TO.C,U1*%
X140208000Y-145796000D03*
D28*
X137668000Y-145796000D03*
X135128000Y-145796000D03*
%TD*%
D29*
%TO.C,Y1*%
X117348000Y-107188000D03*
X117348000Y-112088000D03*
%TD*%
M02*
