%TF.GenerationSoftware,KiCad,Pcbnew,(5.1.8)-1*%
%TF.CreationDate,2021-11-24T15:28:43-03:00*%
%TF.ProjectId,pic18_base_board_03,70696331-385f-4626-9173-655f626f6172,rev?*%
%TF.SameCoordinates,Original*%
%TF.FileFunction,Legend,Top*%
%TF.FilePolarity,Positive*%
%FSLAX46Y46*%
G04 Gerber Fmt 4.6, Leading zero omitted, Abs format (unit mm)*
G04 Created by KiCad (PCBNEW (5.1.8)-1) date 2021-11-24 15:28:43*
%MOMM*%
%LPD*%
G01*
G04 APERTURE LIST*
%ADD10C,0.100000*%
%ADD11C,0.120000*%
%ADD12C,0.150000*%
G04 APERTURE END LIST*
D10*
X189144333Y-77151666D02*
X188911000Y-76818333D01*
X188744333Y-77151666D02*
X188744333Y-76451666D01*
X189011000Y-76451666D01*
X189077666Y-76485000D01*
X189111000Y-76518333D01*
X189144333Y-76585000D01*
X189144333Y-76685000D01*
X189111000Y-76751666D01*
X189077666Y-76785000D01*
X189011000Y-76818333D01*
X188744333Y-76818333D01*
X189677666Y-76785000D02*
X189777666Y-76818333D01*
X189811000Y-76851666D01*
X189844333Y-76918333D01*
X189844333Y-77018333D01*
X189811000Y-77085000D01*
X189777666Y-77118333D01*
X189711000Y-77151666D01*
X189444333Y-77151666D01*
X189444333Y-76451666D01*
X189677666Y-76451666D01*
X189744333Y-76485000D01*
X189777666Y-76518333D01*
X189811000Y-76585000D01*
X189811000Y-76651666D01*
X189777666Y-76718333D01*
X189744333Y-76751666D01*
X189677666Y-76785000D01*
X189444333Y-76785000D01*
X190511000Y-77151666D02*
X190111000Y-77151666D01*
X190311000Y-77151666D02*
X190311000Y-76451666D01*
X190244333Y-76551666D01*
X190177666Y-76618333D01*
X190111000Y-76651666D01*
D11*
X179578000Y-84074000D02*
X179578000Y-84582000D01*
X169926000Y-84074000D02*
X179578000Y-84074000D01*
X169926000Y-84582000D02*
X169926000Y-84074000D01*
D10*
X178878666Y-97122333D02*
X178878666Y-97455666D01*
X178178666Y-97455666D01*
X178945333Y-97055666D02*
X178945333Y-96522333D01*
X178878666Y-95989000D02*
X178878666Y-96389000D01*
X178878666Y-96189000D02*
X178178666Y-96189000D01*
X178278666Y-96255666D01*
X178345333Y-96322333D01*
X178378666Y-96389000D01*
X178945333Y-95855666D02*
X178945333Y-95322333D01*
X178245333Y-95189000D02*
X178212000Y-95155666D01*
X178178666Y-95089000D01*
X178178666Y-94922333D01*
X178212000Y-94855666D01*
X178245333Y-94822333D01*
X178312000Y-94789000D01*
X178378666Y-94789000D01*
X178478666Y-94822333D01*
X178878666Y-95222333D01*
X178878666Y-94789000D01*
X176211666Y-97122333D02*
X176211666Y-97455666D01*
X175511666Y-97455666D01*
X176278333Y-97055666D02*
X176278333Y-96522333D01*
X175511666Y-96422333D02*
X175511666Y-95989000D01*
X175778333Y-96222333D01*
X175778333Y-96122333D01*
X175811666Y-96055666D01*
X175845000Y-96022333D01*
X175911666Y-95989000D01*
X176078333Y-95989000D01*
X176145000Y-96022333D01*
X176178333Y-96055666D01*
X176211666Y-96122333D01*
X176211666Y-96322333D01*
X176178333Y-96389000D01*
X176145000Y-96422333D01*
X176278333Y-95855666D02*
X176278333Y-95322333D01*
X175745000Y-94855666D02*
X176211666Y-94855666D01*
X175478333Y-95022333D02*
X175978333Y-95189000D01*
X175978333Y-94755666D01*
X173671666Y-97122333D02*
X173671666Y-97455666D01*
X172971666Y-97455666D01*
X173738333Y-97055666D02*
X173738333Y-96522333D01*
X172971666Y-96022333D02*
X172971666Y-96355666D01*
X173305000Y-96389000D01*
X173271666Y-96355666D01*
X173238333Y-96289000D01*
X173238333Y-96122333D01*
X173271666Y-96055666D01*
X173305000Y-96022333D01*
X173371666Y-95989000D01*
X173538333Y-95989000D01*
X173605000Y-96022333D01*
X173638333Y-96055666D01*
X173671666Y-96122333D01*
X173671666Y-96289000D01*
X173638333Y-96355666D01*
X173605000Y-96389000D01*
X173738333Y-95855666D02*
X173738333Y-95322333D01*
X172971666Y-94855666D02*
X172971666Y-94989000D01*
X173005000Y-95055666D01*
X173038333Y-95089000D01*
X173138333Y-95155666D01*
X173271666Y-95189000D01*
X173538333Y-95189000D01*
X173605000Y-95155666D01*
X173638333Y-95122333D01*
X173671666Y-95055666D01*
X173671666Y-94922333D01*
X173638333Y-94855666D01*
X173605000Y-94822333D01*
X173538333Y-94789000D01*
X173371666Y-94789000D01*
X173305000Y-94822333D01*
X173271666Y-94855666D01*
X173238333Y-94922333D01*
X173238333Y-95055666D01*
X173271666Y-95122333D01*
X173305000Y-95155666D01*
X173371666Y-95189000D01*
X171258666Y-97122333D02*
X171258666Y-97455666D01*
X170558666Y-97455666D01*
X171325333Y-97055666D02*
X171325333Y-96522333D01*
X170558666Y-96422333D02*
X170558666Y-95955666D01*
X171258666Y-96255666D01*
X171325333Y-95855666D02*
X171325333Y-95322333D01*
X170858666Y-95055666D02*
X170825333Y-95122333D01*
X170792000Y-95155666D01*
X170725333Y-95189000D01*
X170692000Y-95189000D01*
X170625333Y-95155666D01*
X170592000Y-95122333D01*
X170558666Y-95055666D01*
X170558666Y-94922333D01*
X170592000Y-94855666D01*
X170625333Y-94822333D01*
X170692000Y-94789000D01*
X170725333Y-94789000D01*
X170792000Y-94822333D01*
X170825333Y-94855666D01*
X170858666Y-94922333D01*
X170858666Y-95055666D01*
X170892000Y-95122333D01*
X170925333Y-95155666D01*
X170992000Y-95189000D01*
X171125333Y-95189000D01*
X171192000Y-95155666D01*
X171225333Y-95122333D01*
X171258666Y-95055666D01*
X171258666Y-94922333D01*
X171225333Y-94855666D01*
X171192000Y-94822333D01*
X171125333Y-94789000D01*
X170992000Y-94789000D01*
X170925333Y-94822333D01*
X170892000Y-94855666D01*
X170858666Y-94922333D01*
D12*
X173863095Y-82939000D02*
X173767857Y-82891380D01*
X173625000Y-82891380D01*
X173482142Y-82939000D01*
X173386904Y-83034238D01*
X173339285Y-83129476D01*
X173291666Y-83319952D01*
X173291666Y-83462809D01*
X173339285Y-83653285D01*
X173386904Y-83748523D01*
X173482142Y-83843761D01*
X173625000Y-83891380D01*
X173720238Y-83891380D01*
X173863095Y-83843761D01*
X173910714Y-83796142D01*
X173910714Y-83462809D01*
X173720238Y-83462809D01*
X174339285Y-83891380D02*
X174339285Y-82891380D01*
X174910714Y-83891380D01*
X174910714Y-82891380D01*
X175386904Y-83891380D02*
X175386904Y-82891380D01*
X175625000Y-82891380D01*
X175767857Y-82939000D01*
X175863095Y-83034238D01*
X175910714Y-83129476D01*
X175958333Y-83319952D01*
X175958333Y-83462809D01*
X175910714Y-83653285D01*
X175863095Y-83748523D01*
X175767857Y-83843761D01*
X175625000Y-83891380D01*
X175386904Y-83891380D01*
D10*
X140575466Y-57476966D02*
X140242133Y-57710300D01*
X140575466Y-57876966D02*
X139875466Y-57876966D01*
X139875466Y-57610300D01*
X139908800Y-57543633D01*
X139942133Y-57510300D01*
X140008800Y-57476966D01*
X140108800Y-57476966D01*
X140175466Y-57510300D01*
X140208800Y-57543633D01*
X140242133Y-57610300D01*
X140242133Y-57876966D01*
X140208800Y-56943633D02*
X140242133Y-56843633D01*
X140275466Y-56810300D01*
X140342133Y-56776966D01*
X140442133Y-56776966D01*
X140508800Y-56810300D01*
X140542133Y-56843633D01*
X140575466Y-56910300D01*
X140575466Y-57176966D01*
X139875466Y-57176966D01*
X139875466Y-56943633D01*
X139908800Y-56876966D01*
X139942133Y-56843633D01*
X140008800Y-56810300D01*
X140075466Y-56810300D01*
X140142133Y-56843633D01*
X140175466Y-56876966D01*
X140208800Y-56943633D01*
X140208800Y-57176966D01*
X139875466Y-56176966D02*
X139875466Y-56310300D01*
X139908800Y-56376966D01*
X139942133Y-56410300D01*
X140042133Y-56476966D01*
X140175466Y-56510300D01*
X140442133Y-56510300D01*
X140508800Y-56476966D01*
X140542133Y-56443633D01*
X140575466Y-56376966D01*
X140575466Y-56243633D01*
X140542133Y-56176966D01*
X140508800Y-56143633D01*
X140442133Y-56110300D01*
X140275466Y-56110300D01*
X140208800Y-56143633D01*
X140175466Y-56176966D01*
X140142133Y-56243633D01*
X140142133Y-56376966D01*
X140175466Y-56443633D01*
X140208800Y-56476966D01*
X140275466Y-56510300D01*
X138048166Y-57324566D02*
X137714833Y-57557900D01*
X138048166Y-57724566D02*
X137348166Y-57724566D01*
X137348166Y-57457900D01*
X137381500Y-57391233D01*
X137414833Y-57357900D01*
X137481500Y-57324566D01*
X137581500Y-57324566D01*
X137648166Y-57357900D01*
X137681500Y-57391233D01*
X137714833Y-57457900D01*
X137714833Y-57724566D01*
X137681500Y-56791233D02*
X137714833Y-56691233D01*
X137748166Y-56657900D01*
X137814833Y-56624566D01*
X137914833Y-56624566D01*
X137981500Y-56657900D01*
X138014833Y-56691233D01*
X138048166Y-56757900D01*
X138048166Y-57024566D01*
X137348166Y-57024566D01*
X137348166Y-56791233D01*
X137381500Y-56724566D01*
X137414833Y-56691233D01*
X137481500Y-56657900D01*
X137548166Y-56657900D01*
X137614833Y-56691233D01*
X137648166Y-56724566D01*
X137681500Y-56791233D01*
X137681500Y-57024566D01*
X137348166Y-56391233D02*
X137348166Y-55924566D01*
X138048166Y-56224566D01*
X134663700Y-57302333D02*
X134630366Y-57369000D01*
X134630366Y-57469000D01*
X134663700Y-57569000D01*
X134730366Y-57635666D01*
X134797033Y-57669000D01*
X134930366Y-57702333D01*
X135030366Y-57702333D01*
X135163700Y-57669000D01*
X135230366Y-57635666D01*
X135297033Y-57569000D01*
X135330366Y-57469000D01*
X135330366Y-57402333D01*
X135297033Y-57302333D01*
X135263700Y-57269000D01*
X135030366Y-57269000D01*
X135030366Y-57402333D01*
X135330366Y-56969000D02*
X134630366Y-56969000D01*
X135330366Y-56569000D01*
X134630366Y-56569000D01*
X135330366Y-56235666D02*
X134630366Y-56235666D01*
X134630366Y-56069000D01*
X134663700Y-55969000D01*
X134730366Y-55902333D01*
X134797033Y-55869000D01*
X134930366Y-55835666D01*
X135030366Y-55835666D01*
X135163700Y-55869000D01*
X135230366Y-55902333D01*
X135297033Y-55969000D01*
X135330366Y-56069000D01*
X135330366Y-56235666D01*
X132599900Y-57757900D02*
X132599900Y-57224566D01*
X132866566Y-57491233D02*
X132333233Y-57491233D01*
X132166566Y-56557900D02*
X132166566Y-56891233D01*
X132499900Y-56924566D01*
X132466566Y-56891233D01*
X132433233Y-56824566D01*
X132433233Y-56657900D01*
X132466566Y-56591233D01*
X132499900Y-56557900D01*
X132566566Y-56524566D01*
X132733233Y-56524566D01*
X132799900Y-56557900D01*
X132833233Y-56591233D01*
X132866566Y-56657900D01*
X132866566Y-56824566D01*
X132833233Y-56891233D01*
X132799900Y-56924566D01*
X132166566Y-56324566D02*
X132866566Y-56091233D01*
X132166566Y-55857900D01*
X130491666Y-57329333D02*
X130158333Y-57562666D01*
X130491666Y-57729333D02*
X129791666Y-57729333D01*
X129791666Y-57462666D01*
X129825000Y-57396000D01*
X129858333Y-57362666D01*
X129925000Y-57329333D01*
X130025000Y-57329333D01*
X130091666Y-57362666D01*
X130125000Y-57396000D01*
X130158333Y-57462666D01*
X130158333Y-57729333D01*
X130125000Y-57029333D02*
X130125000Y-56796000D01*
X130491666Y-56696000D02*
X130491666Y-57029333D01*
X129791666Y-57029333D01*
X129791666Y-56696000D01*
X129791666Y-56462666D02*
X129791666Y-56029333D01*
X130058333Y-56262666D01*
X130058333Y-56162666D01*
X130091666Y-56096000D01*
X130125000Y-56062666D01*
X130191666Y-56029333D01*
X130358333Y-56029333D01*
X130425000Y-56062666D01*
X130458333Y-56096000D01*
X130491666Y-56162666D01*
X130491666Y-56362666D01*
X130458333Y-56429333D01*
X130425000Y-56462666D01*
X131536333Y-107631666D02*
X131303000Y-107298333D01*
X131136333Y-107631666D02*
X131136333Y-106931666D01*
X131403000Y-106931666D01*
X131469666Y-106965000D01*
X131503000Y-106998333D01*
X131536333Y-107065000D01*
X131536333Y-107165000D01*
X131503000Y-107231666D01*
X131469666Y-107265000D01*
X131403000Y-107298333D01*
X131136333Y-107298333D01*
X131803000Y-107431666D02*
X132136333Y-107431666D01*
X131736333Y-107631666D02*
X131969666Y-106931666D01*
X132203000Y-107631666D01*
X132369666Y-106931666D02*
X132836333Y-106931666D01*
X132536333Y-107631666D01*
X131536333Y-105091666D02*
X131303000Y-104758333D01*
X131136333Y-105091666D02*
X131136333Y-104391666D01*
X131403000Y-104391666D01*
X131469666Y-104425000D01*
X131503000Y-104458333D01*
X131536333Y-104525000D01*
X131536333Y-104625000D01*
X131503000Y-104691666D01*
X131469666Y-104725000D01*
X131403000Y-104758333D01*
X131136333Y-104758333D01*
X131803000Y-104891666D02*
X132136333Y-104891666D01*
X131736333Y-105091666D02*
X131969666Y-104391666D01*
X132203000Y-105091666D01*
X132803000Y-105091666D02*
X132403000Y-105091666D01*
X132603000Y-105091666D02*
X132603000Y-104391666D01*
X132536333Y-104491666D01*
X132469666Y-104558333D01*
X132403000Y-104591666D01*
X131536333Y-102424666D02*
X131303000Y-102091333D01*
X131136333Y-102424666D02*
X131136333Y-101724666D01*
X131403000Y-101724666D01*
X131469666Y-101758000D01*
X131503000Y-101791333D01*
X131536333Y-101858000D01*
X131536333Y-101958000D01*
X131503000Y-102024666D01*
X131469666Y-102058000D01*
X131403000Y-102091333D01*
X131136333Y-102091333D01*
X131803000Y-102224666D02*
X132136333Y-102224666D01*
X131736333Y-102424666D02*
X131969666Y-101724666D01*
X132203000Y-102424666D01*
X132569666Y-101724666D02*
X132636333Y-101724666D01*
X132703000Y-101758000D01*
X132736333Y-101791333D01*
X132769666Y-101858000D01*
X132803000Y-101991333D01*
X132803000Y-102158000D01*
X132769666Y-102291333D01*
X132736333Y-102358000D01*
X132703000Y-102391333D01*
X132636333Y-102424666D01*
X132569666Y-102424666D01*
X132503000Y-102391333D01*
X132469666Y-102358000D01*
X132436333Y-102291333D01*
X132403000Y-102158000D01*
X132403000Y-101991333D01*
X132436333Y-101858000D01*
X132469666Y-101791333D01*
X132503000Y-101758000D01*
X132569666Y-101724666D01*
X131663333Y-110171666D02*
X131430000Y-109838333D01*
X131263333Y-110171666D02*
X131263333Y-109471666D01*
X131530000Y-109471666D01*
X131596666Y-109505000D01*
X131630000Y-109538333D01*
X131663333Y-109605000D01*
X131663333Y-109705000D01*
X131630000Y-109771666D01*
X131596666Y-109805000D01*
X131530000Y-109838333D01*
X131263333Y-109838333D01*
X131930000Y-109971666D02*
X132263333Y-109971666D01*
X131863333Y-110171666D02*
X132096666Y-109471666D01*
X132330000Y-110171666D01*
X132863333Y-109471666D02*
X132730000Y-109471666D01*
X132663333Y-109505000D01*
X132630000Y-109538333D01*
X132563333Y-109638333D01*
X132530000Y-109771666D01*
X132530000Y-110038333D01*
X132563333Y-110105000D01*
X132596666Y-110138333D01*
X132663333Y-110171666D01*
X132796666Y-110171666D01*
X132863333Y-110138333D01*
X132896666Y-110105000D01*
X132930000Y-110038333D01*
X132930000Y-109871666D01*
X132896666Y-109805000D01*
X132863333Y-109771666D01*
X132796666Y-109738333D01*
X132663333Y-109738333D01*
X132596666Y-109771666D01*
X132563333Y-109805000D01*
X132530000Y-109871666D01*
X121020666Y-102847666D02*
X121020666Y-102514333D01*
X121220666Y-102914333D02*
X120520666Y-102681000D01*
X121220666Y-102447666D01*
X121220666Y-102214333D02*
X120520666Y-102214333D01*
X121220666Y-101814333D01*
X120520666Y-101814333D01*
X121220666Y-101114333D02*
X121220666Y-101514333D01*
X121220666Y-101314333D02*
X120520666Y-101314333D01*
X120620666Y-101381000D01*
X120687333Y-101447666D01*
X120720666Y-101514333D01*
X121147666Y-105387666D02*
X121147666Y-105054333D01*
X121347666Y-105454333D02*
X120647666Y-105221000D01*
X121347666Y-104987666D01*
X121347666Y-104754333D02*
X120647666Y-104754333D01*
X121347666Y-104354333D01*
X120647666Y-104354333D01*
X120714333Y-104054333D02*
X120681000Y-104021000D01*
X120647666Y-103954333D01*
X120647666Y-103787666D01*
X120681000Y-103721000D01*
X120714333Y-103687666D01*
X120781000Y-103654333D01*
X120847666Y-103654333D01*
X120947666Y-103687666D01*
X121347666Y-104087666D01*
X121347666Y-103654333D01*
X120647666Y-108271333D02*
X120647666Y-108138000D01*
X120681000Y-108071333D01*
X120747666Y-108004666D01*
X120881000Y-107971333D01*
X121114333Y-107971333D01*
X121247666Y-108004666D01*
X121314333Y-108071333D01*
X121347666Y-108138000D01*
X121347666Y-108271333D01*
X121314333Y-108338000D01*
X121247666Y-108404666D01*
X121114333Y-108438000D01*
X120881000Y-108438000D01*
X120747666Y-108404666D01*
X120681000Y-108338000D01*
X120647666Y-108271333D01*
X121314333Y-107704666D02*
X121347666Y-107604666D01*
X121347666Y-107438000D01*
X121314333Y-107371333D01*
X121281000Y-107338000D01*
X121214333Y-107304666D01*
X121147666Y-107304666D01*
X121081000Y-107338000D01*
X121047666Y-107371333D01*
X121014333Y-107438000D01*
X120981000Y-107571333D01*
X120947666Y-107638000D01*
X120914333Y-107671333D01*
X120847666Y-107704666D01*
X120781000Y-107704666D01*
X120714333Y-107671333D01*
X120681000Y-107638000D01*
X120647666Y-107571333D01*
X120647666Y-107404666D01*
X120681000Y-107304666D01*
X121281000Y-106604666D02*
X121314333Y-106638000D01*
X121347666Y-106738000D01*
X121347666Y-106804666D01*
X121314333Y-106904666D01*
X121247666Y-106971333D01*
X121181000Y-107004666D01*
X121047666Y-107038000D01*
X120947666Y-107038000D01*
X120814333Y-107004666D01*
X120747666Y-106971333D01*
X120681000Y-106904666D01*
X120647666Y-106804666D01*
X120647666Y-106738000D01*
X120681000Y-106638000D01*
X120714333Y-106604666D01*
X121347666Y-105938000D02*
X121347666Y-106338000D01*
X121347666Y-106138000D02*
X120647666Y-106138000D01*
X120747666Y-106204666D01*
X120814333Y-106271333D01*
X120847666Y-106338000D01*
X120647666Y-111573333D02*
X120647666Y-111440000D01*
X120681000Y-111373333D01*
X120747666Y-111306666D01*
X120881000Y-111273333D01*
X121114333Y-111273333D01*
X121247666Y-111306666D01*
X121314333Y-111373333D01*
X121347666Y-111440000D01*
X121347666Y-111573333D01*
X121314333Y-111640000D01*
X121247666Y-111706666D01*
X121114333Y-111740000D01*
X120881000Y-111740000D01*
X120747666Y-111706666D01*
X120681000Y-111640000D01*
X120647666Y-111573333D01*
X121314333Y-111006666D02*
X121347666Y-110906666D01*
X121347666Y-110740000D01*
X121314333Y-110673333D01*
X121281000Y-110640000D01*
X121214333Y-110606666D01*
X121147666Y-110606666D01*
X121081000Y-110640000D01*
X121047666Y-110673333D01*
X121014333Y-110740000D01*
X120981000Y-110873333D01*
X120947666Y-110940000D01*
X120914333Y-110973333D01*
X120847666Y-111006666D01*
X120781000Y-111006666D01*
X120714333Y-110973333D01*
X120681000Y-110940000D01*
X120647666Y-110873333D01*
X120647666Y-110706666D01*
X120681000Y-110606666D01*
X121281000Y-109906666D02*
X121314333Y-109940000D01*
X121347666Y-110040000D01*
X121347666Y-110106666D01*
X121314333Y-110206666D01*
X121247666Y-110273333D01*
X121181000Y-110306666D01*
X121047666Y-110340000D01*
X120947666Y-110340000D01*
X120814333Y-110306666D01*
X120747666Y-110273333D01*
X120681000Y-110206666D01*
X120647666Y-110106666D01*
X120647666Y-110040000D01*
X120681000Y-109940000D01*
X120714333Y-109906666D01*
X120714333Y-109640000D02*
X120681000Y-109606666D01*
X120647666Y-109540000D01*
X120647666Y-109373333D01*
X120681000Y-109306666D01*
X120714333Y-109273333D01*
X120781000Y-109240000D01*
X120847666Y-109240000D01*
X120947666Y-109273333D01*
X121347666Y-109673333D01*
X121347666Y-109240000D01*
X96611333Y-77151666D02*
X96378000Y-76818333D01*
X96211333Y-77151666D02*
X96211333Y-76451666D01*
X96478000Y-76451666D01*
X96544666Y-76485000D01*
X96578000Y-76518333D01*
X96611333Y-76585000D01*
X96611333Y-76685000D01*
X96578000Y-76751666D01*
X96544666Y-76785000D01*
X96478000Y-76818333D01*
X96211333Y-76818333D01*
X96878000Y-76951666D02*
X97211333Y-76951666D01*
X96811333Y-77151666D02*
X97044666Y-76451666D01*
X97278000Y-77151666D01*
X97811333Y-76451666D02*
X97678000Y-76451666D01*
X97611333Y-76485000D01*
X97578000Y-76518333D01*
X97511333Y-76618333D01*
X97478000Y-76751666D01*
X97478000Y-77018333D01*
X97511333Y-77085000D01*
X97544666Y-77118333D01*
X97611333Y-77151666D01*
X97744666Y-77151666D01*
X97811333Y-77118333D01*
X97844666Y-77085000D01*
X97878000Y-77018333D01*
X97878000Y-76851666D01*
X97844666Y-76785000D01*
X97811333Y-76751666D01*
X97744666Y-76718333D01*
X97611333Y-76718333D01*
X97544666Y-76751666D01*
X97511333Y-76785000D01*
X97478000Y-76851666D01*
X96611333Y-66991666D02*
X96378000Y-66658333D01*
X96211333Y-66991666D02*
X96211333Y-66291666D01*
X96478000Y-66291666D01*
X96544666Y-66325000D01*
X96578000Y-66358333D01*
X96611333Y-66425000D01*
X96611333Y-66525000D01*
X96578000Y-66591666D01*
X96544666Y-66625000D01*
X96478000Y-66658333D01*
X96211333Y-66658333D01*
X96878000Y-66791666D02*
X97211333Y-66791666D01*
X96811333Y-66991666D02*
X97044666Y-66291666D01*
X97278000Y-66991666D01*
X97478000Y-66358333D02*
X97511333Y-66325000D01*
X97578000Y-66291666D01*
X97744666Y-66291666D01*
X97811333Y-66325000D01*
X97844666Y-66358333D01*
X97878000Y-66425000D01*
X97878000Y-66491666D01*
X97844666Y-66591666D01*
X97444666Y-66991666D01*
X97878000Y-66991666D01*
X96611333Y-69531666D02*
X96378000Y-69198333D01*
X96211333Y-69531666D02*
X96211333Y-68831666D01*
X96478000Y-68831666D01*
X96544666Y-68865000D01*
X96578000Y-68898333D01*
X96611333Y-68965000D01*
X96611333Y-69065000D01*
X96578000Y-69131666D01*
X96544666Y-69165000D01*
X96478000Y-69198333D01*
X96211333Y-69198333D01*
X96878000Y-69331666D02*
X97211333Y-69331666D01*
X96811333Y-69531666D02*
X97044666Y-68831666D01*
X97278000Y-69531666D01*
X97444666Y-68831666D02*
X97878000Y-68831666D01*
X97644666Y-69098333D01*
X97744666Y-69098333D01*
X97811333Y-69131666D01*
X97844666Y-69165000D01*
X97878000Y-69231666D01*
X97878000Y-69398333D01*
X97844666Y-69465000D01*
X97811333Y-69498333D01*
X97744666Y-69531666D01*
X97544666Y-69531666D01*
X97478000Y-69498333D01*
X97444666Y-69465000D01*
X96611333Y-79691666D02*
X96378000Y-79358333D01*
X96211333Y-79691666D02*
X96211333Y-78991666D01*
X96478000Y-78991666D01*
X96544666Y-79025000D01*
X96578000Y-79058333D01*
X96611333Y-79125000D01*
X96611333Y-79225000D01*
X96578000Y-79291666D01*
X96544666Y-79325000D01*
X96478000Y-79358333D01*
X96211333Y-79358333D01*
X96878000Y-79491666D02*
X97211333Y-79491666D01*
X96811333Y-79691666D02*
X97044666Y-78991666D01*
X97278000Y-79691666D01*
X97444666Y-78991666D02*
X97911333Y-78991666D01*
X97611333Y-79691666D01*
X96611333Y-64451666D02*
X96378000Y-64118333D01*
X96211333Y-64451666D02*
X96211333Y-63751666D01*
X96478000Y-63751666D01*
X96544666Y-63785000D01*
X96578000Y-63818333D01*
X96611333Y-63885000D01*
X96611333Y-63985000D01*
X96578000Y-64051666D01*
X96544666Y-64085000D01*
X96478000Y-64118333D01*
X96211333Y-64118333D01*
X96878000Y-64251666D02*
X97211333Y-64251666D01*
X96811333Y-64451666D02*
X97044666Y-63751666D01*
X97278000Y-64451666D01*
X97878000Y-64451666D02*
X97478000Y-64451666D01*
X97678000Y-64451666D02*
X97678000Y-63751666D01*
X97611333Y-63851666D01*
X97544666Y-63918333D01*
X97478000Y-63951666D01*
X96738333Y-74611666D02*
X96505000Y-74278333D01*
X96338333Y-74611666D02*
X96338333Y-73911666D01*
X96605000Y-73911666D01*
X96671666Y-73945000D01*
X96705000Y-73978333D01*
X96738333Y-74045000D01*
X96738333Y-74145000D01*
X96705000Y-74211666D01*
X96671666Y-74245000D01*
X96605000Y-74278333D01*
X96338333Y-74278333D01*
X97005000Y-74411666D02*
X97338333Y-74411666D01*
X96938333Y-74611666D02*
X97171666Y-73911666D01*
X97405000Y-74611666D01*
X97971666Y-73911666D02*
X97638333Y-73911666D01*
X97605000Y-74245000D01*
X97638333Y-74211666D01*
X97705000Y-74178333D01*
X97871666Y-74178333D01*
X97938333Y-74211666D01*
X97971666Y-74245000D01*
X98005000Y-74311666D01*
X98005000Y-74478333D01*
X97971666Y-74545000D01*
X97938333Y-74578333D01*
X97871666Y-74611666D01*
X97705000Y-74611666D01*
X97638333Y-74578333D01*
X97605000Y-74545000D01*
X96611333Y-61784666D02*
X96378000Y-61451333D01*
X96211333Y-61784666D02*
X96211333Y-61084666D01*
X96478000Y-61084666D01*
X96544666Y-61118000D01*
X96578000Y-61151333D01*
X96611333Y-61218000D01*
X96611333Y-61318000D01*
X96578000Y-61384666D01*
X96544666Y-61418000D01*
X96478000Y-61451333D01*
X96211333Y-61451333D01*
X96878000Y-61584666D02*
X97211333Y-61584666D01*
X96811333Y-61784666D02*
X97044666Y-61084666D01*
X97278000Y-61784666D01*
X97644666Y-61084666D02*
X97711333Y-61084666D01*
X97778000Y-61118000D01*
X97811333Y-61151333D01*
X97844666Y-61218000D01*
X97878000Y-61351333D01*
X97878000Y-61518000D01*
X97844666Y-61651333D01*
X97811333Y-61718000D01*
X97778000Y-61751333D01*
X97711333Y-61784666D01*
X97644666Y-61784666D01*
X97578000Y-61751333D01*
X97544666Y-61718000D01*
X97511333Y-61651333D01*
X97478000Y-61518000D01*
X97478000Y-61351333D01*
X97511333Y-61218000D01*
X97544666Y-61151333D01*
X97578000Y-61118000D01*
X97644666Y-61084666D01*
X96611333Y-72071666D02*
X96378000Y-71738333D01*
X96211333Y-72071666D02*
X96211333Y-71371666D01*
X96478000Y-71371666D01*
X96544666Y-71405000D01*
X96578000Y-71438333D01*
X96611333Y-71505000D01*
X96611333Y-71605000D01*
X96578000Y-71671666D01*
X96544666Y-71705000D01*
X96478000Y-71738333D01*
X96211333Y-71738333D01*
X96878000Y-71871666D02*
X97211333Y-71871666D01*
X96811333Y-72071666D02*
X97044666Y-71371666D01*
X97278000Y-72071666D01*
X97811333Y-71605000D02*
X97811333Y-72071666D01*
X97644666Y-71338333D02*
X97478000Y-71838333D01*
X97911333Y-71838333D01*
X96594666Y-101281666D02*
X96361333Y-100948333D01*
X96194666Y-101281666D02*
X96194666Y-100581666D01*
X96461333Y-100581666D01*
X96528000Y-100615000D01*
X96561333Y-100648333D01*
X96594666Y-100715000D01*
X96594666Y-100815000D01*
X96561333Y-100881666D01*
X96528000Y-100915000D01*
X96461333Y-100948333D01*
X96194666Y-100948333D01*
X96894666Y-100915000D02*
X97128000Y-100915000D01*
X97228000Y-101281666D02*
X96894666Y-101281666D01*
X96894666Y-100581666D01*
X97228000Y-100581666D01*
X97494666Y-100648333D02*
X97528000Y-100615000D01*
X97594666Y-100581666D01*
X97761333Y-100581666D01*
X97828000Y-100615000D01*
X97861333Y-100648333D01*
X97894666Y-100715000D01*
X97894666Y-100781666D01*
X97861333Y-100881666D01*
X97461333Y-101281666D01*
X97894666Y-101281666D01*
X96594666Y-103821666D02*
X96361333Y-103488333D01*
X96194666Y-103821666D02*
X96194666Y-103121666D01*
X96461333Y-103121666D01*
X96528000Y-103155000D01*
X96561333Y-103188333D01*
X96594666Y-103255000D01*
X96594666Y-103355000D01*
X96561333Y-103421666D01*
X96528000Y-103455000D01*
X96461333Y-103488333D01*
X96194666Y-103488333D01*
X96894666Y-103455000D02*
X97128000Y-103455000D01*
X97228000Y-103821666D02*
X96894666Y-103821666D01*
X96894666Y-103121666D01*
X97228000Y-103121666D01*
X97461333Y-103121666D02*
X97894666Y-103121666D01*
X97661333Y-103388333D01*
X97761333Y-103388333D01*
X97828000Y-103421666D01*
X97861333Y-103455000D01*
X97894666Y-103521666D01*
X97894666Y-103688333D01*
X97861333Y-103755000D01*
X97828000Y-103788333D01*
X97761333Y-103821666D01*
X97561333Y-103821666D01*
X97494666Y-103788333D01*
X97461333Y-103755000D01*
X96594666Y-98741666D02*
X96361333Y-98408333D01*
X96194666Y-98741666D02*
X96194666Y-98041666D01*
X96461333Y-98041666D01*
X96528000Y-98075000D01*
X96561333Y-98108333D01*
X96594666Y-98175000D01*
X96594666Y-98275000D01*
X96561333Y-98341666D01*
X96528000Y-98375000D01*
X96461333Y-98408333D01*
X96194666Y-98408333D01*
X96894666Y-98375000D02*
X97128000Y-98375000D01*
X97228000Y-98741666D02*
X96894666Y-98741666D01*
X96894666Y-98041666D01*
X97228000Y-98041666D01*
X97894666Y-98741666D02*
X97494666Y-98741666D01*
X97694666Y-98741666D02*
X97694666Y-98041666D01*
X97628000Y-98141666D01*
X97561333Y-98208333D01*
X97494666Y-98241666D01*
X96594666Y-96455666D02*
X96361333Y-96122333D01*
X96194666Y-96455666D02*
X96194666Y-95755666D01*
X96461333Y-95755666D01*
X96528000Y-95789000D01*
X96561333Y-95822333D01*
X96594666Y-95889000D01*
X96594666Y-95989000D01*
X96561333Y-96055666D01*
X96528000Y-96089000D01*
X96461333Y-96122333D01*
X96194666Y-96122333D01*
X96894666Y-96089000D02*
X97128000Y-96089000D01*
X97228000Y-96455666D02*
X96894666Y-96455666D01*
X96894666Y-95755666D01*
X97228000Y-95755666D01*
X97661333Y-95755666D02*
X97728000Y-95755666D01*
X97794666Y-95789000D01*
X97828000Y-95822333D01*
X97861333Y-95889000D01*
X97894666Y-96022333D01*
X97894666Y-96189000D01*
X97861333Y-96322333D01*
X97828000Y-96389000D01*
X97794666Y-96422333D01*
X97728000Y-96455666D01*
X97661333Y-96455666D01*
X97594666Y-96422333D01*
X97561333Y-96389000D01*
X97528000Y-96322333D01*
X97494666Y-96189000D01*
X97494666Y-96022333D01*
X97528000Y-95889000D01*
X97561333Y-95822333D01*
X97594666Y-95789000D01*
X97661333Y-95755666D01*
X97196333Y-131126666D02*
X96963000Y-130793333D01*
X96796333Y-131126666D02*
X96796333Y-130426666D01*
X97063000Y-130426666D01*
X97129666Y-130460000D01*
X97163000Y-130493333D01*
X97196333Y-130560000D01*
X97196333Y-130660000D01*
X97163000Y-130726666D01*
X97129666Y-130760000D01*
X97063000Y-130793333D01*
X96796333Y-130793333D01*
X97896333Y-131060000D02*
X97863000Y-131093333D01*
X97763000Y-131126666D01*
X97696333Y-131126666D01*
X97596333Y-131093333D01*
X97529666Y-131026666D01*
X97496333Y-130960000D01*
X97463000Y-130826666D01*
X97463000Y-130726666D01*
X97496333Y-130593333D01*
X97529666Y-130526666D01*
X97596333Y-130460000D01*
X97696333Y-130426666D01*
X97763000Y-130426666D01*
X97863000Y-130460000D01*
X97896333Y-130493333D01*
X98529666Y-130426666D02*
X98196333Y-130426666D01*
X98163000Y-130760000D01*
X98196333Y-130726666D01*
X98263000Y-130693333D01*
X98429666Y-130693333D01*
X98496333Y-130726666D01*
X98529666Y-130760000D01*
X98563000Y-130826666D01*
X98563000Y-130993333D01*
X98529666Y-131060000D01*
X98496333Y-131093333D01*
X98429666Y-131126666D01*
X98263000Y-131126666D01*
X98196333Y-131093333D01*
X98163000Y-131060000D01*
X97196333Y-118299666D02*
X96963000Y-117966333D01*
X96796333Y-118299666D02*
X96796333Y-117599666D01*
X97063000Y-117599666D01*
X97129666Y-117633000D01*
X97163000Y-117666333D01*
X97196333Y-117733000D01*
X97196333Y-117833000D01*
X97163000Y-117899666D01*
X97129666Y-117933000D01*
X97063000Y-117966333D01*
X96796333Y-117966333D01*
X97896333Y-118233000D02*
X97863000Y-118266333D01*
X97763000Y-118299666D01*
X97696333Y-118299666D01*
X97596333Y-118266333D01*
X97529666Y-118199666D01*
X97496333Y-118133000D01*
X97463000Y-117999666D01*
X97463000Y-117899666D01*
X97496333Y-117766333D01*
X97529666Y-117699666D01*
X97596333Y-117633000D01*
X97696333Y-117599666D01*
X97763000Y-117599666D01*
X97863000Y-117633000D01*
X97896333Y-117666333D01*
X98329666Y-117599666D02*
X98396333Y-117599666D01*
X98463000Y-117633000D01*
X98496333Y-117666333D01*
X98529666Y-117733000D01*
X98563000Y-117866333D01*
X98563000Y-118033000D01*
X98529666Y-118166333D01*
X98496333Y-118233000D01*
X98463000Y-118266333D01*
X98396333Y-118299666D01*
X98329666Y-118299666D01*
X98263000Y-118266333D01*
X98229666Y-118233000D01*
X98196333Y-118166333D01*
X98163000Y-118033000D01*
X98163000Y-117866333D01*
X98196333Y-117733000D01*
X98229666Y-117666333D01*
X98263000Y-117633000D01*
X98329666Y-117599666D01*
X97196333Y-120966666D02*
X96963000Y-120633333D01*
X96796333Y-120966666D02*
X96796333Y-120266666D01*
X97063000Y-120266666D01*
X97129666Y-120300000D01*
X97163000Y-120333333D01*
X97196333Y-120400000D01*
X97196333Y-120500000D01*
X97163000Y-120566666D01*
X97129666Y-120600000D01*
X97063000Y-120633333D01*
X96796333Y-120633333D01*
X97896333Y-120900000D02*
X97863000Y-120933333D01*
X97763000Y-120966666D01*
X97696333Y-120966666D01*
X97596333Y-120933333D01*
X97529666Y-120866666D01*
X97496333Y-120800000D01*
X97463000Y-120666666D01*
X97463000Y-120566666D01*
X97496333Y-120433333D01*
X97529666Y-120366666D01*
X97596333Y-120300000D01*
X97696333Y-120266666D01*
X97763000Y-120266666D01*
X97863000Y-120300000D01*
X97896333Y-120333333D01*
X98563000Y-120966666D02*
X98163000Y-120966666D01*
X98363000Y-120966666D02*
X98363000Y-120266666D01*
X98296333Y-120366666D01*
X98229666Y-120433333D01*
X98163000Y-120466666D01*
X97323333Y-136206666D02*
X97090000Y-135873333D01*
X96923333Y-136206666D02*
X96923333Y-135506666D01*
X97190000Y-135506666D01*
X97256666Y-135540000D01*
X97290000Y-135573333D01*
X97323333Y-135640000D01*
X97323333Y-135740000D01*
X97290000Y-135806666D01*
X97256666Y-135840000D01*
X97190000Y-135873333D01*
X96923333Y-135873333D01*
X98023333Y-136140000D02*
X97990000Y-136173333D01*
X97890000Y-136206666D01*
X97823333Y-136206666D01*
X97723333Y-136173333D01*
X97656666Y-136106666D01*
X97623333Y-136040000D01*
X97590000Y-135906666D01*
X97590000Y-135806666D01*
X97623333Y-135673333D01*
X97656666Y-135606666D01*
X97723333Y-135540000D01*
X97823333Y-135506666D01*
X97890000Y-135506666D01*
X97990000Y-135540000D01*
X98023333Y-135573333D01*
X98256666Y-135506666D02*
X98723333Y-135506666D01*
X98423333Y-136206666D01*
X97323333Y-133666666D02*
X97090000Y-133333333D01*
X96923333Y-133666666D02*
X96923333Y-132966666D01*
X97190000Y-132966666D01*
X97256666Y-133000000D01*
X97290000Y-133033333D01*
X97323333Y-133100000D01*
X97323333Y-133200000D01*
X97290000Y-133266666D01*
X97256666Y-133300000D01*
X97190000Y-133333333D01*
X96923333Y-133333333D01*
X98023333Y-133600000D02*
X97990000Y-133633333D01*
X97890000Y-133666666D01*
X97823333Y-133666666D01*
X97723333Y-133633333D01*
X97656666Y-133566666D01*
X97623333Y-133500000D01*
X97590000Y-133366666D01*
X97590000Y-133266666D01*
X97623333Y-133133333D01*
X97656666Y-133066666D01*
X97723333Y-133000000D01*
X97823333Y-132966666D01*
X97890000Y-132966666D01*
X97990000Y-133000000D01*
X98023333Y-133033333D01*
X98623333Y-132966666D02*
X98490000Y-132966666D01*
X98423333Y-133000000D01*
X98390000Y-133033333D01*
X98323333Y-133133333D01*
X98290000Y-133266666D01*
X98290000Y-133533333D01*
X98323333Y-133600000D01*
X98356666Y-133633333D01*
X98423333Y-133666666D01*
X98556666Y-133666666D01*
X98623333Y-133633333D01*
X98656666Y-133600000D01*
X98690000Y-133533333D01*
X98690000Y-133366666D01*
X98656666Y-133300000D01*
X98623333Y-133266666D01*
X98556666Y-133233333D01*
X98423333Y-133233333D01*
X98356666Y-133266666D01*
X98323333Y-133300000D01*
X98290000Y-133366666D01*
X97196333Y-128586666D02*
X96963000Y-128253333D01*
X96796333Y-128586666D02*
X96796333Y-127886666D01*
X97063000Y-127886666D01*
X97129666Y-127920000D01*
X97163000Y-127953333D01*
X97196333Y-128020000D01*
X97196333Y-128120000D01*
X97163000Y-128186666D01*
X97129666Y-128220000D01*
X97063000Y-128253333D01*
X96796333Y-128253333D01*
X97896333Y-128520000D02*
X97863000Y-128553333D01*
X97763000Y-128586666D01*
X97696333Y-128586666D01*
X97596333Y-128553333D01*
X97529666Y-128486666D01*
X97496333Y-128420000D01*
X97463000Y-128286666D01*
X97463000Y-128186666D01*
X97496333Y-128053333D01*
X97529666Y-127986666D01*
X97596333Y-127920000D01*
X97696333Y-127886666D01*
X97763000Y-127886666D01*
X97863000Y-127920000D01*
X97896333Y-127953333D01*
X98496333Y-128120000D02*
X98496333Y-128586666D01*
X98329666Y-127853333D02*
X98163000Y-128353333D01*
X98596333Y-128353333D01*
X97196333Y-126046666D02*
X96963000Y-125713333D01*
X96796333Y-126046666D02*
X96796333Y-125346666D01*
X97063000Y-125346666D01*
X97129666Y-125380000D01*
X97163000Y-125413333D01*
X97196333Y-125480000D01*
X97196333Y-125580000D01*
X97163000Y-125646666D01*
X97129666Y-125680000D01*
X97063000Y-125713333D01*
X96796333Y-125713333D01*
X97896333Y-125980000D02*
X97863000Y-126013333D01*
X97763000Y-126046666D01*
X97696333Y-126046666D01*
X97596333Y-126013333D01*
X97529666Y-125946666D01*
X97496333Y-125880000D01*
X97463000Y-125746666D01*
X97463000Y-125646666D01*
X97496333Y-125513333D01*
X97529666Y-125446666D01*
X97596333Y-125380000D01*
X97696333Y-125346666D01*
X97763000Y-125346666D01*
X97863000Y-125380000D01*
X97896333Y-125413333D01*
X98129666Y-125346666D02*
X98563000Y-125346666D01*
X98329666Y-125613333D01*
X98429666Y-125613333D01*
X98496333Y-125646666D01*
X98529666Y-125680000D01*
X98563000Y-125746666D01*
X98563000Y-125913333D01*
X98529666Y-125980000D01*
X98496333Y-126013333D01*
X98429666Y-126046666D01*
X98229666Y-126046666D01*
X98163000Y-126013333D01*
X98129666Y-125980000D01*
X97323333Y-123506666D02*
X97090000Y-123173333D01*
X96923333Y-123506666D02*
X96923333Y-122806666D01*
X97190000Y-122806666D01*
X97256666Y-122840000D01*
X97290000Y-122873333D01*
X97323333Y-122940000D01*
X97323333Y-123040000D01*
X97290000Y-123106666D01*
X97256666Y-123140000D01*
X97190000Y-123173333D01*
X96923333Y-123173333D01*
X98023333Y-123440000D02*
X97990000Y-123473333D01*
X97890000Y-123506666D01*
X97823333Y-123506666D01*
X97723333Y-123473333D01*
X97656666Y-123406666D01*
X97623333Y-123340000D01*
X97590000Y-123206666D01*
X97590000Y-123106666D01*
X97623333Y-122973333D01*
X97656666Y-122906666D01*
X97723333Y-122840000D01*
X97823333Y-122806666D01*
X97890000Y-122806666D01*
X97990000Y-122840000D01*
X98023333Y-122873333D01*
X98290000Y-122873333D02*
X98323333Y-122840000D01*
X98390000Y-122806666D01*
X98556666Y-122806666D01*
X98623333Y-122840000D01*
X98656666Y-122873333D01*
X98690000Y-122940000D01*
X98690000Y-123006666D01*
X98656666Y-123106666D01*
X98256666Y-123506666D01*
X98690000Y-123506666D01*
X172516000Y-146634000D02*
X172516000Y-146100666D01*
X172782666Y-146367333D02*
X172249333Y-146367333D01*
X172082666Y-145434000D02*
X172082666Y-145767333D01*
X172416000Y-145800666D01*
X172382666Y-145767333D01*
X172349333Y-145700666D01*
X172349333Y-145534000D01*
X172382666Y-145467333D01*
X172416000Y-145434000D01*
X172482666Y-145400666D01*
X172649333Y-145400666D01*
X172716000Y-145434000D01*
X172749333Y-145467333D01*
X172782666Y-145534000D01*
X172782666Y-145700666D01*
X172749333Y-145767333D01*
X172716000Y-145800666D01*
X172082666Y-145200666D02*
X172782666Y-144967333D01*
X172082666Y-144734000D01*
X172782666Y-144500666D02*
X172082666Y-144500666D01*
X172082666Y-144334000D01*
X172116000Y-144234000D01*
X172182666Y-144167333D01*
X172249333Y-144134000D01*
X172382666Y-144100666D01*
X172482666Y-144100666D01*
X172616000Y-144134000D01*
X172682666Y-144167333D01*
X172749333Y-144234000D01*
X172782666Y-144334000D01*
X172782666Y-144500666D01*
X172716000Y-143400666D02*
X172749333Y-143434000D01*
X172782666Y-143534000D01*
X172782666Y-143600666D01*
X172749333Y-143700666D01*
X172682666Y-143767333D01*
X172616000Y-143800666D01*
X172482666Y-143834000D01*
X172382666Y-143834000D01*
X172249333Y-143800666D01*
X172182666Y-143767333D01*
X172116000Y-143700666D01*
X172082666Y-143600666D01*
X172082666Y-143534000D01*
X172116000Y-143434000D01*
X172149333Y-143400666D01*
X174275000Y-146202333D02*
X174241666Y-146269000D01*
X174241666Y-146369000D01*
X174275000Y-146469000D01*
X174341666Y-146535666D01*
X174408333Y-146569000D01*
X174541666Y-146602333D01*
X174641666Y-146602333D01*
X174775000Y-146569000D01*
X174841666Y-146535666D01*
X174908333Y-146469000D01*
X174941666Y-146369000D01*
X174941666Y-146302333D01*
X174908333Y-146202333D01*
X174875000Y-146169000D01*
X174641666Y-146169000D01*
X174641666Y-146302333D01*
X174941666Y-145869000D02*
X174241666Y-145869000D01*
X174941666Y-145469000D01*
X174241666Y-145469000D01*
X174941666Y-145135666D02*
X174241666Y-145135666D01*
X174241666Y-144969000D01*
X174275000Y-144869000D01*
X174341666Y-144802333D01*
X174408333Y-144769000D01*
X174541666Y-144735666D01*
X174641666Y-144735666D01*
X174775000Y-144769000D01*
X174841666Y-144802333D01*
X174908333Y-144869000D01*
X174941666Y-144969000D01*
X174941666Y-145135666D01*
X188890333Y-121601666D02*
X188657000Y-121268333D01*
X188490333Y-121601666D02*
X188490333Y-120901666D01*
X188757000Y-120901666D01*
X188823666Y-120935000D01*
X188857000Y-120968333D01*
X188890333Y-121035000D01*
X188890333Y-121135000D01*
X188857000Y-121201666D01*
X188823666Y-121235000D01*
X188757000Y-121268333D01*
X188490333Y-121268333D01*
X189190333Y-121601666D02*
X189190333Y-120901666D01*
X189357000Y-120901666D01*
X189457000Y-120935000D01*
X189523666Y-121001666D01*
X189557000Y-121068333D01*
X189590333Y-121201666D01*
X189590333Y-121301666D01*
X189557000Y-121435000D01*
X189523666Y-121501666D01*
X189457000Y-121568333D01*
X189357000Y-121601666D01*
X189190333Y-121601666D01*
X189857000Y-120968333D02*
X189890333Y-120935000D01*
X189957000Y-120901666D01*
X190123666Y-120901666D01*
X190190333Y-120935000D01*
X190223666Y-120968333D01*
X190257000Y-121035000D01*
X190257000Y-121101666D01*
X190223666Y-121201666D01*
X189823666Y-121601666D01*
X190257000Y-121601666D01*
X188890333Y-108901666D02*
X188657000Y-108568333D01*
X188490333Y-108901666D02*
X188490333Y-108201666D01*
X188757000Y-108201666D01*
X188823666Y-108235000D01*
X188857000Y-108268333D01*
X188890333Y-108335000D01*
X188890333Y-108435000D01*
X188857000Y-108501666D01*
X188823666Y-108535000D01*
X188757000Y-108568333D01*
X188490333Y-108568333D01*
X189190333Y-108901666D02*
X189190333Y-108201666D01*
X189357000Y-108201666D01*
X189457000Y-108235000D01*
X189523666Y-108301666D01*
X189557000Y-108368333D01*
X189590333Y-108501666D01*
X189590333Y-108601666D01*
X189557000Y-108735000D01*
X189523666Y-108801666D01*
X189457000Y-108868333D01*
X189357000Y-108901666D01*
X189190333Y-108901666D01*
X189823666Y-108201666D02*
X190290333Y-108201666D01*
X189990333Y-108901666D01*
X188890333Y-111441666D02*
X188657000Y-111108333D01*
X188490333Y-111441666D02*
X188490333Y-110741666D01*
X188757000Y-110741666D01*
X188823666Y-110775000D01*
X188857000Y-110808333D01*
X188890333Y-110875000D01*
X188890333Y-110975000D01*
X188857000Y-111041666D01*
X188823666Y-111075000D01*
X188757000Y-111108333D01*
X188490333Y-111108333D01*
X189190333Y-111441666D02*
X189190333Y-110741666D01*
X189357000Y-110741666D01*
X189457000Y-110775000D01*
X189523666Y-110841666D01*
X189557000Y-110908333D01*
X189590333Y-111041666D01*
X189590333Y-111141666D01*
X189557000Y-111275000D01*
X189523666Y-111341666D01*
X189457000Y-111408333D01*
X189357000Y-111441666D01*
X189190333Y-111441666D01*
X190190333Y-110741666D02*
X190057000Y-110741666D01*
X189990333Y-110775000D01*
X189957000Y-110808333D01*
X189890333Y-110908333D01*
X189857000Y-111041666D01*
X189857000Y-111308333D01*
X189890333Y-111375000D01*
X189923666Y-111408333D01*
X189990333Y-111441666D01*
X190123666Y-111441666D01*
X190190333Y-111408333D01*
X190223666Y-111375000D01*
X190257000Y-111308333D01*
X190257000Y-111141666D01*
X190223666Y-111075000D01*
X190190333Y-111041666D01*
X190123666Y-111008333D01*
X189990333Y-111008333D01*
X189923666Y-111041666D01*
X189890333Y-111075000D01*
X189857000Y-111141666D01*
X188890333Y-126681666D02*
X188657000Y-126348333D01*
X188490333Y-126681666D02*
X188490333Y-125981666D01*
X188757000Y-125981666D01*
X188823666Y-126015000D01*
X188857000Y-126048333D01*
X188890333Y-126115000D01*
X188890333Y-126215000D01*
X188857000Y-126281666D01*
X188823666Y-126315000D01*
X188757000Y-126348333D01*
X188490333Y-126348333D01*
X189190333Y-126681666D02*
X189190333Y-125981666D01*
X189357000Y-125981666D01*
X189457000Y-126015000D01*
X189523666Y-126081666D01*
X189557000Y-126148333D01*
X189590333Y-126281666D01*
X189590333Y-126381666D01*
X189557000Y-126515000D01*
X189523666Y-126581666D01*
X189457000Y-126648333D01*
X189357000Y-126681666D01*
X189190333Y-126681666D01*
X190023666Y-125981666D02*
X190090333Y-125981666D01*
X190157000Y-126015000D01*
X190190333Y-126048333D01*
X190223666Y-126115000D01*
X190257000Y-126248333D01*
X190257000Y-126415000D01*
X190223666Y-126548333D01*
X190190333Y-126615000D01*
X190157000Y-126648333D01*
X190090333Y-126681666D01*
X190023666Y-126681666D01*
X189957000Y-126648333D01*
X189923666Y-126615000D01*
X189890333Y-126548333D01*
X189857000Y-126415000D01*
X189857000Y-126248333D01*
X189890333Y-126115000D01*
X189923666Y-126048333D01*
X189957000Y-126015000D01*
X190023666Y-125981666D01*
X188890333Y-124141666D02*
X188657000Y-123808333D01*
X188490333Y-124141666D02*
X188490333Y-123441666D01*
X188757000Y-123441666D01*
X188823666Y-123475000D01*
X188857000Y-123508333D01*
X188890333Y-123575000D01*
X188890333Y-123675000D01*
X188857000Y-123741666D01*
X188823666Y-123775000D01*
X188757000Y-123808333D01*
X188490333Y-123808333D01*
X189190333Y-124141666D02*
X189190333Y-123441666D01*
X189357000Y-123441666D01*
X189457000Y-123475000D01*
X189523666Y-123541666D01*
X189557000Y-123608333D01*
X189590333Y-123741666D01*
X189590333Y-123841666D01*
X189557000Y-123975000D01*
X189523666Y-124041666D01*
X189457000Y-124108333D01*
X189357000Y-124141666D01*
X189190333Y-124141666D01*
X190257000Y-124141666D02*
X189857000Y-124141666D01*
X190057000Y-124141666D02*
X190057000Y-123441666D01*
X189990333Y-123541666D01*
X189923666Y-123608333D01*
X189857000Y-123641666D01*
X188890333Y-119061666D02*
X188657000Y-118728333D01*
X188490333Y-119061666D02*
X188490333Y-118361666D01*
X188757000Y-118361666D01*
X188823666Y-118395000D01*
X188857000Y-118428333D01*
X188890333Y-118495000D01*
X188890333Y-118595000D01*
X188857000Y-118661666D01*
X188823666Y-118695000D01*
X188757000Y-118728333D01*
X188490333Y-118728333D01*
X189190333Y-119061666D02*
X189190333Y-118361666D01*
X189357000Y-118361666D01*
X189457000Y-118395000D01*
X189523666Y-118461666D01*
X189557000Y-118528333D01*
X189590333Y-118661666D01*
X189590333Y-118761666D01*
X189557000Y-118895000D01*
X189523666Y-118961666D01*
X189457000Y-119028333D01*
X189357000Y-119061666D01*
X189190333Y-119061666D01*
X189823666Y-118361666D02*
X190257000Y-118361666D01*
X190023666Y-118628333D01*
X190123666Y-118628333D01*
X190190333Y-118661666D01*
X190223666Y-118695000D01*
X190257000Y-118761666D01*
X190257000Y-118928333D01*
X190223666Y-118995000D01*
X190190333Y-119028333D01*
X190123666Y-119061666D01*
X189923666Y-119061666D01*
X189857000Y-119028333D01*
X189823666Y-118995000D01*
X188890333Y-116521666D02*
X188657000Y-116188333D01*
X188490333Y-116521666D02*
X188490333Y-115821666D01*
X188757000Y-115821666D01*
X188823666Y-115855000D01*
X188857000Y-115888333D01*
X188890333Y-115955000D01*
X188890333Y-116055000D01*
X188857000Y-116121666D01*
X188823666Y-116155000D01*
X188757000Y-116188333D01*
X188490333Y-116188333D01*
X189190333Y-116521666D02*
X189190333Y-115821666D01*
X189357000Y-115821666D01*
X189457000Y-115855000D01*
X189523666Y-115921666D01*
X189557000Y-115988333D01*
X189590333Y-116121666D01*
X189590333Y-116221666D01*
X189557000Y-116355000D01*
X189523666Y-116421666D01*
X189457000Y-116488333D01*
X189357000Y-116521666D01*
X189190333Y-116521666D01*
X190190333Y-116055000D02*
X190190333Y-116521666D01*
X190023666Y-115788333D02*
X189857000Y-116288333D01*
X190290333Y-116288333D01*
X188890333Y-113981666D02*
X188657000Y-113648333D01*
X188490333Y-113981666D02*
X188490333Y-113281666D01*
X188757000Y-113281666D01*
X188823666Y-113315000D01*
X188857000Y-113348333D01*
X188890333Y-113415000D01*
X188890333Y-113515000D01*
X188857000Y-113581666D01*
X188823666Y-113615000D01*
X188757000Y-113648333D01*
X188490333Y-113648333D01*
X189190333Y-113981666D02*
X189190333Y-113281666D01*
X189357000Y-113281666D01*
X189457000Y-113315000D01*
X189523666Y-113381666D01*
X189557000Y-113448333D01*
X189590333Y-113581666D01*
X189590333Y-113681666D01*
X189557000Y-113815000D01*
X189523666Y-113881666D01*
X189457000Y-113948333D01*
X189357000Y-113981666D01*
X189190333Y-113981666D01*
X190223666Y-113281666D02*
X189890333Y-113281666D01*
X189857000Y-113615000D01*
X189890333Y-113581666D01*
X189957000Y-113548333D01*
X190123666Y-113548333D01*
X190190333Y-113581666D01*
X190223666Y-113615000D01*
X190257000Y-113681666D01*
X190257000Y-113848333D01*
X190223666Y-113915000D01*
X190190333Y-113948333D01*
X190123666Y-113981666D01*
X189957000Y-113981666D01*
X189890333Y-113948333D01*
X189857000Y-113915000D01*
X189144333Y-84771666D02*
X188911000Y-84438333D01*
X188744333Y-84771666D02*
X188744333Y-84071666D01*
X189011000Y-84071666D01*
X189077666Y-84105000D01*
X189111000Y-84138333D01*
X189144333Y-84205000D01*
X189144333Y-84305000D01*
X189111000Y-84371666D01*
X189077666Y-84405000D01*
X189011000Y-84438333D01*
X188744333Y-84438333D01*
X189677666Y-84405000D02*
X189777666Y-84438333D01*
X189811000Y-84471666D01*
X189844333Y-84538333D01*
X189844333Y-84638333D01*
X189811000Y-84705000D01*
X189777666Y-84738333D01*
X189711000Y-84771666D01*
X189444333Y-84771666D01*
X189444333Y-84071666D01*
X189677666Y-84071666D01*
X189744333Y-84105000D01*
X189777666Y-84138333D01*
X189811000Y-84205000D01*
X189811000Y-84271666D01*
X189777666Y-84338333D01*
X189744333Y-84371666D01*
X189677666Y-84405000D01*
X189444333Y-84405000D01*
X190444333Y-84305000D02*
X190444333Y-84771666D01*
X190277666Y-84038333D02*
X190111000Y-84538333D01*
X190544333Y-84538333D01*
X189144333Y-87311666D02*
X188911000Y-86978333D01*
X188744333Y-87311666D02*
X188744333Y-86611666D01*
X189011000Y-86611666D01*
X189077666Y-86645000D01*
X189111000Y-86678333D01*
X189144333Y-86745000D01*
X189144333Y-86845000D01*
X189111000Y-86911666D01*
X189077666Y-86945000D01*
X189011000Y-86978333D01*
X188744333Y-86978333D01*
X189677666Y-86945000D02*
X189777666Y-86978333D01*
X189811000Y-87011666D01*
X189844333Y-87078333D01*
X189844333Y-87178333D01*
X189811000Y-87245000D01*
X189777666Y-87278333D01*
X189711000Y-87311666D01*
X189444333Y-87311666D01*
X189444333Y-86611666D01*
X189677666Y-86611666D01*
X189744333Y-86645000D01*
X189777666Y-86678333D01*
X189811000Y-86745000D01*
X189811000Y-86811666D01*
X189777666Y-86878333D01*
X189744333Y-86911666D01*
X189677666Y-86945000D01*
X189444333Y-86945000D01*
X190477666Y-86611666D02*
X190144333Y-86611666D01*
X190111000Y-86945000D01*
X190144333Y-86911666D01*
X190211000Y-86878333D01*
X190377666Y-86878333D01*
X190444333Y-86911666D01*
X190477666Y-86945000D01*
X190511000Y-87011666D01*
X190511000Y-87178333D01*
X190477666Y-87245000D01*
X190444333Y-87278333D01*
X190377666Y-87311666D01*
X190211000Y-87311666D01*
X190144333Y-87278333D01*
X190111000Y-87245000D01*
X189144333Y-92391666D02*
X188911000Y-92058333D01*
X188744333Y-92391666D02*
X188744333Y-91691666D01*
X189011000Y-91691666D01*
X189077666Y-91725000D01*
X189111000Y-91758333D01*
X189144333Y-91825000D01*
X189144333Y-91925000D01*
X189111000Y-91991666D01*
X189077666Y-92025000D01*
X189011000Y-92058333D01*
X188744333Y-92058333D01*
X189677666Y-92025000D02*
X189777666Y-92058333D01*
X189811000Y-92091666D01*
X189844333Y-92158333D01*
X189844333Y-92258333D01*
X189811000Y-92325000D01*
X189777666Y-92358333D01*
X189711000Y-92391666D01*
X189444333Y-92391666D01*
X189444333Y-91691666D01*
X189677666Y-91691666D01*
X189744333Y-91725000D01*
X189777666Y-91758333D01*
X189811000Y-91825000D01*
X189811000Y-91891666D01*
X189777666Y-91958333D01*
X189744333Y-91991666D01*
X189677666Y-92025000D01*
X189444333Y-92025000D01*
X190077666Y-91691666D02*
X190544333Y-91691666D01*
X190244333Y-92391666D01*
X189144333Y-89851666D02*
X188911000Y-89518333D01*
X188744333Y-89851666D02*
X188744333Y-89151666D01*
X189011000Y-89151666D01*
X189077666Y-89185000D01*
X189111000Y-89218333D01*
X189144333Y-89285000D01*
X189144333Y-89385000D01*
X189111000Y-89451666D01*
X189077666Y-89485000D01*
X189011000Y-89518333D01*
X188744333Y-89518333D01*
X189677666Y-89485000D02*
X189777666Y-89518333D01*
X189811000Y-89551666D01*
X189844333Y-89618333D01*
X189844333Y-89718333D01*
X189811000Y-89785000D01*
X189777666Y-89818333D01*
X189711000Y-89851666D01*
X189444333Y-89851666D01*
X189444333Y-89151666D01*
X189677666Y-89151666D01*
X189744333Y-89185000D01*
X189777666Y-89218333D01*
X189811000Y-89285000D01*
X189811000Y-89351666D01*
X189777666Y-89418333D01*
X189744333Y-89451666D01*
X189677666Y-89485000D01*
X189444333Y-89485000D01*
X190444333Y-89151666D02*
X190311000Y-89151666D01*
X190244333Y-89185000D01*
X190211000Y-89218333D01*
X190144333Y-89318333D01*
X190111000Y-89451666D01*
X190111000Y-89718333D01*
X190144333Y-89785000D01*
X190177666Y-89818333D01*
X190244333Y-89851666D01*
X190377666Y-89851666D01*
X190444333Y-89818333D01*
X190477666Y-89785000D01*
X190511000Y-89718333D01*
X190511000Y-89551666D01*
X190477666Y-89485000D01*
X190444333Y-89451666D01*
X190377666Y-89418333D01*
X190244333Y-89418333D01*
X190177666Y-89451666D01*
X190144333Y-89485000D01*
X190111000Y-89551666D01*
X189144333Y-82231666D02*
X188911000Y-81898333D01*
X188744333Y-82231666D02*
X188744333Y-81531666D01*
X189011000Y-81531666D01*
X189077666Y-81565000D01*
X189111000Y-81598333D01*
X189144333Y-81665000D01*
X189144333Y-81765000D01*
X189111000Y-81831666D01*
X189077666Y-81865000D01*
X189011000Y-81898333D01*
X188744333Y-81898333D01*
X189677666Y-81865000D02*
X189777666Y-81898333D01*
X189811000Y-81931666D01*
X189844333Y-81998333D01*
X189844333Y-82098333D01*
X189811000Y-82165000D01*
X189777666Y-82198333D01*
X189711000Y-82231666D01*
X189444333Y-82231666D01*
X189444333Y-81531666D01*
X189677666Y-81531666D01*
X189744333Y-81565000D01*
X189777666Y-81598333D01*
X189811000Y-81665000D01*
X189811000Y-81731666D01*
X189777666Y-81798333D01*
X189744333Y-81831666D01*
X189677666Y-81865000D01*
X189444333Y-81865000D01*
X190077666Y-81531666D02*
X190511000Y-81531666D01*
X190277666Y-81798333D01*
X190377666Y-81798333D01*
X190444333Y-81831666D01*
X190477666Y-81865000D01*
X190511000Y-81931666D01*
X190511000Y-82098333D01*
X190477666Y-82165000D01*
X190444333Y-82198333D01*
X190377666Y-82231666D01*
X190177666Y-82231666D01*
X190111000Y-82198333D01*
X190077666Y-82165000D01*
X189144333Y-79691666D02*
X188911000Y-79358333D01*
X188744333Y-79691666D02*
X188744333Y-78991666D01*
X189011000Y-78991666D01*
X189077666Y-79025000D01*
X189111000Y-79058333D01*
X189144333Y-79125000D01*
X189144333Y-79225000D01*
X189111000Y-79291666D01*
X189077666Y-79325000D01*
X189011000Y-79358333D01*
X188744333Y-79358333D01*
X189677666Y-79325000D02*
X189777666Y-79358333D01*
X189811000Y-79391666D01*
X189844333Y-79458333D01*
X189844333Y-79558333D01*
X189811000Y-79625000D01*
X189777666Y-79658333D01*
X189711000Y-79691666D01*
X189444333Y-79691666D01*
X189444333Y-78991666D01*
X189677666Y-78991666D01*
X189744333Y-79025000D01*
X189777666Y-79058333D01*
X189811000Y-79125000D01*
X189811000Y-79191666D01*
X189777666Y-79258333D01*
X189744333Y-79291666D01*
X189677666Y-79325000D01*
X189444333Y-79325000D01*
X190111000Y-79058333D02*
X190144333Y-79025000D01*
X190211000Y-78991666D01*
X190377666Y-78991666D01*
X190444333Y-79025000D01*
X190477666Y-79058333D01*
X190511000Y-79125000D01*
X190511000Y-79191666D01*
X190477666Y-79291666D01*
X190077666Y-79691666D01*
X190511000Y-79691666D01*
X189144333Y-74611666D02*
X188911000Y-74278333D01*
X188744333Y-74611666D02*
X188744333Y-73911666D01*
X189011000Y-73911666D01*
X189077666Y-73945000D01*
X189111000Y-73978333D01*
X189144333Y-74045000D01*
X189144333Y-74145000D01*
X189111000Y-74211666D01*
X189077666Y-74245000D01*
X189011000Y-74278333D01*
X188744333Y-74278333D01*
X189677666Y-74245000D02*
X189777666Y-74278333D01*
X189811000Y-74311666D01*
X189844333Y-74378333D01*
X189844333Y-74478333D01*
X189811000Y-74545000D01*
X189777666Y-74578333D01*
X189711000Y-74611666D01*
X189444333Y-74611666D01*
X189444333Y-73911666D01*
X189677666Y-73911666D01*
X189744333Y-73945000D01*
X189777666Y-73978333D01*
X189811000Y-74045000D01*
X189811000Y-74111666D01*
X189777666Y-74178333D01*
X189744333Y-74211666D01*
X189677666Y-74245000D01*
X189444333Y-74245000D01*
X190277666Y-73911666D02*
X190344333Y-73911666D01*
X190411000Y-73945000D01*
X190444333Y-73978333D01*
X190477666Y-74045000D01*
X190511000Y-74178333D01*
X190511000Y-74345000D01*
X190477666Y-74478333D01*
X190444333Y-74545000D01*
X190411000Y-74578333D01*
X190344333Y-74611666D01*
X190277666Y-74611666D01*
X190211000Y-74578333D01*
X190177666Y-74545000D01*
X190144333Y-74478333D01*
X190111000Y-74345000D01*
X190111000Y-74178333D01*
X190144333Y-74045000D01*
X190177666Y-73978333D01*
X190211000Y-73945000D01*
X190277666Y-73911666D01*
D12*
X183316571Y-68476761D02*
X183364190Y-68333904D01*
X183411809Y-68286285D01*
X183507047Y-68238666D01*
X183649904Y-68238666D01*
X183745142Y-68286285D01*
X183792761Y-68333904D01*
X183840380Y-68429142D01*
X183840380Y-68810095D01*
X182840380Y-68810095D01*
X182840380Y-68476761D01*
X182888000Y-68381523D01*
X182935619Y-68333904D01*
X183030857Y-68286285D01*
X183126095Y-68286285D01*
X183221333Y-68333904D01*
X183268952Y-68381523D01*
X183316571Y-68476761D01*
X183316571Y-68810095D01*
X183840380Y-67286285D02*
X183840380Y-67857714D01*
X183840380Y-67572000D02*
X182840380Y-67572000D01*
X182983238Y-67667238D01*
X183078476Y-67762476D01*
X183126095Y-67857714D01*
X180776571Y-68476761D02*
X180824190Y-68333904D01*
X180871809Y-68286285D01*
X180967047Y-68238666D01*
X181109904Y-68238666D01*
X181205142Y-68286285D01*
X181252761Y-68333904D01*
X181300380Y-68429142D01*
X181300380Y-68810095D01*
X180300380Y-68810095D01*
X180300380Y-68476761D01*
X180348000Y-68381523D01*
X180395619Y-68333904D01*
X180490857Y-68286285D01*
X180586095Y-68286285D01*
X180681333Y-68333904D01*
X180728952Y-68381523D01*
X180776571Y-68476761D01*
X180776571Y-68810095D01*
X180395619Y-67857714D02*
X180348000Y-67810095D01*
X180300380Y-67714857D01*
X180300380Y-67476761D01*
X180348000Y-67381523D01*
X180395619Y-67333904D01*
X180490857Y-67286285D01*
X180586095Y-67286285D01*
X180728952Y-67333904D01*
X181300380Y-67905333D01*
X181300380Y-67286285D01*
X178363571Y-68349761D02*
X178411190Y-68206904D01*
X178458809Y-68159285D01*
X178554047Y-68111666D01*
X178696904Y-68111666D01*
X178792142Y-68159285D01*
X178839761Y-68206904D01*
X178887380Y-68302142D01*
X178887380Y-68683095D01*
X177887380Y-68683095D01*
X177887380Y-68349761D01*
X177935000Y-68254523D01*
X177982619Y-68206904D01*
X178077857Y-68159285D01*
X178173095Y-68159285D01*
X178268333Y-68206904D01*
X178315952Y-68254523D01*
X178363571Y-68349761D01*
X178363571Y-68683095D01*
X177887380Y-67778333D02*
X177887380Y-67159285D01*
X178268333Y-67492619D01*
X178268333Y-67349761D01*
X178315952Y-67254523D01*
X178363571Y-67206904D01*
X178458809Y-67159285D01*
X178696904Y-67159285D01*
X178792142Y-67206904D01*
X178839761Y-67254523D01*
X178887380Y-67349761D01*
X178887380Y-67635476D01*
X178839761Y-67730714D01*
X178792142Y-67778333D01*
X175696571Y-68349761D02*
X175744190Y-68206904D01*
X175791809Y-68159285D01*
X175887047Y-68111666D01*
X176029904Y-68111666D01*
X176125142Y-68159285D01*
X176172761Y-68206904D01*
X176220380Y-68302142D01*
X176220380Y-68683095D01*
X175220380Y-68683095D01*
X175220380Y-68349761D01*
X175268000Y-68254523D01*
X175315619Y-68206904D01*
X175410857Y-68159285D01*
X175506095Y-68159285D01*
X175601333Y-68206904D01*
X175648952Y-68254523D01*
X175696571Y-68349761D01*
X175696571Y-68683095D01*
X175553714Y-67254523D02*
X176220380Y-67254523D01*
X175172761Y-67492619D02*
X175887047Y-67730714D01*
X175887047Y-67111666D01*
X183840380Y-81057666D02*
X183364190Y-81391000D01*
X183840380Y-81629095D02*
X182840380Y-81629095D01*
X182840380Y-81248142D01*
X182888000Y-81152904D01*
X182935619Y-81105285D01*
X183030857Y-81057666D01*
X183173714Y-81057666D01*
X183268952Y-81105285D01*
X183316571Y-81152904D01*
X183364190Y-81248142D01*
X183364190Y-81629095D01*
X183316571Y-80295761D02*
X183364190Y-80152904D01*
X183411809Y-80105285D01*
X183507047Y-80057666D01*
X183649904Y-80057666D01*
X183745142Y-80105285D01*
X183792761Y-80152904D01*
X183840380Y-80248142D01*
X183840380Y-80629095D01*
X182840380Y-80629095D01*
X182840380Y-80295761D01*
X182888000Y-80200523D01*
X182935619Y-80152904D01*
X183030857Y-80105285D01*
X183126095Y-80105285D01*
X183221333Y-80152904D01*
X183268952Y-80200523D01*
X183316571Y-80295761D01*
X183316571Y-80629095D01*
X182840380Y-79438619D02*
X182840380Y-79343380D01*
X182888000Y-79248142D01*
X182935619Y-79200523D01*
X183030857Y-79152904D01*
X183221333Y-79105285D01*
X183459428Y-79105285D01*
X183649904Y-79152904D01*
X183745142Y-79200523D01*
X183792761Y-79248142D01*
X183840380Y-79343380D01*
X183840380Y-79438619D01*
X183792761Y-79533857D01*
X183745142Y-79581476D01*
X183649904Y-79629095D01*
X183459428Y-79676714D01*
X183221333Y-79676714D01*
X183030857Y-79629095D01*
X182935619Y-79581476D01*
X182888000Y-79533857D01*
X182840380Y-79438619D01*
X181173380Y-81057666D02*
X180697190Y-81391000D01*
X181173380Y-81629095D02*
X180173380Y-81629095D01*
X180173380Y-81248142D01*
X180221000Y-81152904D01*
X180268619Y-81105285D01*
X180363857Y-81057666D01*
X180506714Y-81057666D01*
X180601952Y-81105285D01*
X180649571Y-81152904D01*
X180697190Y-81248142D01*
X180697190Y-81629095D01*
X180649571Y-80295761D02*
X180697190Y-80152904D01*
X180744809Y-80105285D01*
X180840047Y-80057666D01*
X180982904Y-80057666D01*
X181078142Y-80105285D01*
X181125761Y-80152904D01*
X181173380Y-80248142D01*
X181173380Y-80629095D01*
X180173380Y-80629095D01*
X180173380Y-80295761D01*
X180221000Y-80200523D01*
X180268619Y-80152904D01*
X180363857Y-80105285D01*
X180459095Y-80105285D01*
X180554333Y-80152904D01*
X180601952Y-80200523D01*
X180649571Y-80295761D01*
X180649571Y-80629095D01*
X181173380Y-79105285D02*
X181173380Y-79676714D01*
X181173380Y-79391000D02*
X180173380Y-79391000D01*
X180316238Y-79486238D01*
X180411476Y-79581476D01*
X180459095Y-79676714D01*
X178887380Y-81057666D02*
X178411190Y-81391000D01*
X178887380Y-81629095D02*
X177887380Y-81629095D01*
X177887380Y-81248142D01*
X177935000Y-81152904D01*
X177982619Y-81105285D01*
X178077857Y-81057666D01*
X178220714Y-81057666D01*
X178315952Y-81105285D01*
X178363571Y-81152904D01*
X178411190Y-81248142D01*
X178411190Y-81629095D01*
X178363571Y-80295761D02*
X178411190Y-80152904D01*
X178458809Y-80105285D01*
X178554047Y-80057666D01*
X178696904Y-80057666D01*
X178792142Y-80105285D01*
X178839761Y-80152904D01*
X178887380Y-80248142D01*
X178887380Y-80629095D01*
X177887380Y-80629095D01*
X177887380Y-80295761D01*
X177935000Y-80200523D01*
X177982619Y-80152904D01*
X178077857Y-80105285D01*
X178173095Y-80105285D01*
X178268333Y-80152904D01*
X178315952Y-80200523D01*
X178363571Y-80295761D01*
X178363571Y-80629095D01*
X177982619Y-79676714D02*
X177935000Y-79629095D01*
X177887380Y-79533857D01*
X177887380Y-79295761D01*
X177935000Y-79200523D01*
X177982619Y-79152904D01*
X178077857Y-79105285D01*
X178173095Y-79105285D01*
X178315952Y-79152904D01*
X178887380Y-79724333D01*
X178887380Y-79105285D01*
X176220380Y-81057666D02*
X175744190Y-81391000D01*
X176220380Y-81629095D02*
X175220380Y-81629095D01*
X175220380Y-81248142D01*
X175268000Y-81152904D01*
X175315619Y-81105285D01*
X175410857Y-81057666D01*
X175553714Y-81057666D01*
X175648952Y-81105285D01*
X175696571Y-81152904D01*
X175744190Y-81248142D01*
X175744190Y-81629095D01*
X175696571Y-80295761D02*
X175744190Y-80152904D01*
X175791809Y-80105285D01*
X175887047Y-80057666D01*
X176029904Y-80057666D01*
X176125142Y-80105285D01*
X176172761Y-80152904D01*
X176220380Y-80248142D01*
X176220380Y-80629095D01*
X175220380Y-80629095D01*
X175220380Y-80295761D01*
X175268000Y-80200523D01*
X175315619Y-80152904D01*
X175410857Y-80105285D01*
X175506095Y-80105285D01*
X175601333Y-80152904D01*
X175648952Y-80200523D01*
X175696571Y-80295761D01*
X175696571Y-80629095D01*
X175220380Y-79724333D02*
X175220380Y-79105285D01*
X175601333Y-79438619D01*
X175601333Y-79295761D01*
X175648952Y-79200523D01*
X175696571Y-79152904D01*
X175791809Y-79105285D01*
X176029904Y-79105285D01*
X176125142Y-79152904D01*
X176172761Y-79200523D01*
X176220380Y-79295761D01*
X176220380Y-79581476D01*
X176172761Y-79676714D01*
X176125142Y-79724333D01*
D11*
%TO.C,J8*%
X193354000Y-106874000D02*
X190694000Y-106874000D01*
X193354000Y-124714000D02*
X193354000Y-106874000D01*
X190694000Y-124714000D02*
X190694000Y-106874000D01*
X193354000Y-124714000D02*
X190694000Y-124714000D01*
X193354000Y-125984000D02*
X193354000Y-127314000D01*
X193354000Y-127314000D02*
X192024000Y-127314000D01*
%TO.C,J7*%
X98746000Y-136966000D02*
X101406000Y-136966000D01*
X98746000Y-119126000D02*
X98746000Y-136966000D01*
X101406000Y-119126000D02*
X101406000Y-136966000D01*
X98746000Y-119126000D02*
X101406000Y-119126000D01*
X98746000Y-117856000D02*
X98746000Y-116526000D01*
X98746000Y-116526000D02*
X100076000Y-116526000D01*
%TO.C,J6*%
X190694000Y-93278000D02*
X193354000Y-93278000D01*
X190694000Y-75438000D02*
X190694000Y-93278000D01*
X193354000Y-75438000D02*
X193354000Y-93278000D01*
X190694000Y-75438000D02*
X193354000Y-75438000D01*
X190694000Y-74168000D02*
X190694000Y-72838000D01*
X190694000Y-72838000D02*
X192024000Y-72838000D01*
%TO.C,J5*%
X98238000Y-80578000D02*
X100898000Y-80578000D01*
X98238000Y-62738000D02*
X98238000Y-80578000D01*
X100898000Y-62738000D02*
X100898000Y-80578000D01*
X98238000Y-62738000D02*
X100898000Y-62738000D01*
X98238000Y-61468000D02*
X98238000Y-60138000D01*
X98238000Y-60138000D02*
X99568000Y-60138000D01*
%TO.C,J4*%
X98238000Y-104962000D02*
X100898000Y-104962000D01*
X98238000Y-97282000D02*
X98238000Y-104962000D01*
X100898000Y-97282000D02*
X100898000Y-104962000D01*
X98238000Y-97282000D02*
X100898000Y-97282000D01*
X98238000Y-96012000D02*
X98238000Y-94682000D01*
X98238000Y-94682000D02*
X99568000Y-94682000D01*
%TO.C,J3*%
X141538000Y-55686000D02*
X141538000Y-53026000D01*
X131318000Y-55686000D02*
X141538000Y-55686000D01*
X131318000Y-53026000D02*
X141538000Y-53026000D01*
X131318000Y-55686000D02*
X131318000Y-53026000D01*
X130048000Y-55686000D02*
X128718000Y-55686000D01*
X128718000Y-55686000D02*
X128718000Y-54356000D01*
%TO.C,J1*%
X176082000Y-149158000D02*
X176082000Y-146498000D01*
X173482000Y-149158000D02*
X176082000Y-149158000D01*
X173482000Y-146498000D02*
X176082000Y-146498000D01*
X173482000Y-149158000D02*
X173482000Y-146498000D01*
X172212000Y-149158000D02*
X170882000Y-149158000D01*
X170882000Y-149158000D02*
X170882000Y-147828000D01*
%TO.C,J2*%
X115598000Y-141217000D02*
X115598000Y-149717000D01*
X115598000Y-149717000D02*
X106398000Y-149717000D01*
X106398000Y-149717000D02*
X106398000Y-135017000D01*
X113498000Y-135017000D02*
X115598000Y-135017000D01*
X115598000Y-135017000D02*
X115598000Y-136817000D01*
X107798000Y-134717000D02*
X106098000Y-134717000D01*
X106098000Y-134717000D02*
X106098000Y-136317000D01*
X106398000Y-135017000D02*
X108498000Y-135017000D01*
%TO.C,R19*%
X172185000Y-70263000D02*
X171855000Y-70263000D01*
X172185000Y-76803000D02*
X172185000Y-70263000D01*
X171855000Y-76803000D02*
X172185000Y-76803000D01*
X169445000Y-70263000D02*
X169775000Y-70263000D01*
X169445000Y-76803000D02*
X169445000Y-70263000D01*
X169775000Y-76803000D02*
X169445000Y-76803000D01*
%TO.C,R18*%
X168248000Y-70263000D02*
X167918000Y-70263000D01*
X168248000Y-76803000D02*
X168248000Y-70263000D01*
X167918000Y-76803000D02*
X168248000Y-76803000D01*
X165508000Y-70263000D02*
X165838000Y-70263000D01*
X165508000Y-76803000D02*
X165508000Y-70263000D01*
X165838000Y-76803000D02*
X165508000Y-76803000D01*
%TO.C,R17*%
X162914000Y-70517000D02*
X162584000Y-70517000D01*
X162914000Y-77057000D02*
X162914000Y-70517000D01*
X162584000Y-77057000D02*
X162914000Y-77057000D01*
X160174000Y-70517000D02*
X160504000Y-70517000D01*
X160174000Y-77057000D02*
X160174000Y-70517000D01*
X160504000Y-77057000D02*
X160174000Y-77057000D01*
%TO.C,R16*%
X154659000Y-68358000D02*
X154329000Y-68358000D01*
X154659000Y-74898000D02*
X154659000Y-68358000D01*
X154329000Y-74898000D02*
X154659000Y-74898000D01*
X151919000Y-68358000D02*
X152249000Y-68358000D01*
X151919000Y-74898000D02*
X151919000Y-68358000D01*
X152249000Y-74898000D02*
X151919000Y-74898000D01*
%TO.C,R15*%
X147034000Y-73379000D02*
X147034000Y-73049000D01*
X140494000Y-73379000D02*
X147034000Y-73379000D01*
X140494000Y-73049000D02*
X140494000Y-73379000D01*
X147034000Y-70639000D02*
X147034000Y-70969000D01*
X140494000Y-70639000D02*
X147034000Y-70639000D01*
X140494000Y-70969000D02*
X140494000Y-70639000D01*
%TO.C,U2*%
X146574000Y-77918000D02*
X141514000Y-77918000D01*
X141514000Y-77918000D02*
X141514000Y-128838000D01*
X141514000Y-128838000D02*
X153634000Y-128838000D01*
X153634000Y-128838000D02*
X153634000Y-77918000D01*
X153634000Y-77918000D02*
X148574000Y-77918000D01*
X148574000Y-77918000D02*
G75*
G02*
X146574000Y-77918000I-1000000J0D01*
G01*
%TO.C,B1*%
X154197000Y-63071000D02*
X154197000Y-61571000D01*
X152947000Y-59071000D02*
X148447000Y-59071000D01*
X147197000Y-61571000D02*
X147197000Y-63071000D01*
X148447000Y-65571000D02*
X152947000Y-65571000D01*
%TO.C,B2*%
X158480000Y-65444000D02*
X162980000Y-65444000D01*
X157230000Y-61444000D02*
X157230000Y-62944000D01*
X162980000Y-58944000D02*
X158480000Y-58944000D01*
X164230000Y-62944000D02*
X164230000Y-61444000D01*
%TO.C,B3*%
X174390000Y-62944000D02*
X174390000Y-61444000D01*
X173140000Y-58944000D02*
X168640000Y-58944000D01*
X167390000Y-61444000D02*
X167390000Y-62944000D01*
X168640000Y-65444000D02*
X173140000Y-65444000D01*
%TO.C,B4*%
X178800000Y-65444000D02*
X183300000Y-65444000D01*
X177550000Y-61444000D02*
X177550000Y-62944000D01*
X183300000Y-58944000D02*
X178800000Y-58944000D01*
X184550000Y-62944000D02*
X184550000Y-61444000D01*
%TO.C,C1*%
X133660000Y-136878000D02*
G75*
G03*
X133660000Y-136878000I-4120000J0D01*
G01*
X133620000Y-136878000D02*
X125460000Y-136878000D01*
X133620000Y-136918000D02*
X125460000Y-136918000D01*
X133620000Y-136958000D02*
X125460000Y-136958000D01*
X133619000Y-136998000D02*
X125461000Y-136998000D01*
X133617000Y-137038000D02*
X125463000Y-137038000D01*
X133616000Y-137078000D02*
X125464000Y-137078000D01*
X133614000Y-137118000D02*
X125466000Y-137118000D01*
X133611000Y-137158000D02*
X125469000Y-137158000D01*
X133608000Y-137198000D02*
X125472000Y-137198000D01*
X133605000Y-137238000D02*
X125475000Y-137238000D01*
X133601000Y-137278000D02*
X125479000Y-137278000D01*
X133597000Y-137318000D02*
X125483000Y-137318000D01*
X133592000Y-137358000D02*
X125488000Y-137358000D01*
X133588000Y-137398000D02*
X125492000Y-137398000D01*
X133582000Y-137438000D02*
X125498000Y-137438000D01*
X133577000Y-137478000D02*
X125503000Y-137478000D01*
X133570000Y-137518000D02*
X125510000Y-137518000D01*
X133564000Y-137558000D02*
X125516000Y-137558000D01*
X133557000Y-137599000D02*
X130580000Y-137599000D01*
X128500000Y-137599000D02*
X125523000Y-137599000D01*
X133550000Y-137639000D02*
X130580000Y-137639000D01*
X128500000Y-137639000D02*
X125530000Y-137639000D01*
X133542000Y-137679000D02*
X130580000Y-137679000D01*
X128500000Y-137679000D02*
X125538000Y-137679000D01*
X133534000Y-137719000D02*
X130580000Y-137719000D01*
X128500000Y-137719000D02*
X125546000Y-137719000D01*
X133525000Y-137759000D02*
X130580000Y-137759000D01*
X128500000Y-137759000D02*
X125555000Y-137759000D01*
X133516000Y-137799000D02*
X130580000Y-137799000D01*
X128500000Y-137799000D02*
X125564000Y-137799000D01*
X133507000Y-137839000D02*
X130580000Y-137839000D01*
X128500000Y-137839000D02*
X125573000Y-137839000D01*
X133497000Y-137879000D02*
X130580000Y-137879000D01*
X128500000Y-137879000D02*
X125583000Y-137879000D01*
X133487000Y-137919000D02*
X130580000Y-137919000D01*
X128500000Y-137919000D02*
X125593000Y-137919000D01*
X133476000Y-137959000D02*
X130580000Y-137959000D01*
X128500000Y-137959000D02*
X125604000Y-137959000D01*
X133465000Y-137999000D02*
X130580000Y-137999000D01*
X128500000Y-137999000D02*
X125615000Y-137999000D01*
X133454000Y-138039000D02*
X130580000Y-138039000D01*
X128500000Y-138039000D02*
X125626000Y-138039000D01*
X133442000Y-138079000D02*
X130580000Y-138079000D01*
X128500000Y-138079000D02*
X125638000Y-138079000D01*
X133429000Y-138119000D02*
X130580000Y-138119000D01*
X128500000Y-138119000D02*
X125651000Y-138119000D01*
X133417000Y-138159000D02*
X130580000Y-138159000D01*
X128500000Y-138159000D02*
X125663000Y-138159000D01*
X133403000Y-138199000D02*
X130580000Y-138199000D01*
X128500000Y-138199000D02*
X125677000Y-138199000D01*
X133390000Y-138239000D02*
X130580000Y-138239000D01*
X128500000Y-138239000D02*
X125690000Y-138239000D01*
X133375000Y-138279000D02*
X130580000Y-138279000D01*
X128500000Y-138279000D02*
X125705000Y-138279000D01*
X133361000Y-138319000D02*
X130580000Y-138319000D01*
X128500000Y-138319000D02*
X125719000Y-138319000D01*
X133345000Y-138359000D02*
X130580000Y-138359000D01*
X128500000Y-138359000D02*
X125735000Y-138359000D01*
X133330000Y-138399000D02*
X130580000Y-138399000D01*
X128500000Y-138399000D02*
X125750000Y-138399000D01*
X133314000Y-138439000D02*
X130580000Y-138439000D01*
X128500000Y-138439000D02*
X125766000Y-138439000D01*
X133297000Y-138479000D02*
X130580000Y-138479000D01*
X128500000Y-138479000D02*
X125783000Y-138479000D01*
X133280000Y-138519000D02*
X130580000Y-138519000D01*
X128500000Y-138519000D02*
X125800000Y-138519000D01*
X133262000Y-138559000D02*
X130580000Y-138559000D01*
X128500000Y-138559000D02*
X125818000Y-138559000D01*
X133244000Y-138599000D02*
X130580000Y-138599000D01*
X128500000Y-138599000D02*
X125836000Y-138599000D01*
X133226000Y-138639000D02*
X130580000Y-138639000D01*
X128500000Y-138639000D02*
X125854000Y-138639000D01*
X133206000Y-138679000D02*
X130580000Y-138679000D01*
X128500000Y-138679000D02*
X125874000Y-138679000D01*
X133187000Y-138719000D02*
X130580000Y-138719000D01*
X128500000Y-138719000D02*
X125893000Y-138719000D01*
X133167000Y-138759000D02*
X130580000Y-138759000D01*
X128500000Y-138759000D02*
X125913000Y-138759000D01*
X133146000Y-138799000D02*
X130580000Y-138799000D01*
X128500000Y-138799000D02*
X125934000Y-138799000D01*
X133124000Y-138839000D02*
X130580000Y-138839000D01*
X128500000Y-138839000D02*
X125956000Y-138839000D01*
X133102000Y-138879000D02*
X130580000Y-138879000D01*
X128500000Y-138879000D02*
X125978000Y-138879000D01*
X133080000Y-138919000D02*
X130580000Y-138919000D01*
X128500000Y-138919000D02*
X126000000Y-138919000D01*
X133057000Y-138959000D02*
X130580000Y-138959000D01*
X128500000Y-138959000D02*
X126023000Y-138959000D01*
X133033000Y-138999000D02*
X130580000Y-138999000D01*
X128500000Y-138999000D02*
X126047000Y-138999000D01*
X133009000Y-139039000D02*
X130580000Y-139039000D01*
X128500000Y-139039000D02*
X126071000Y-139039000D01*
X132984000Y-139079000D02*
X130580000Y-139079000D01*
X128500000Y-139079000D02*
X126096000Y-139079000D01*
X132958000Y-139119000D02*
X130580000Y-139119000D01*
X128500000Y-139119000D02*
X126122000Y-139119000D01*
X132932000Y-139159000D02*
X130580000Y-139159000D01*
X128500000Y-139159000D02*
X126148000Y-139159000D01*
X132905000Y-139199000D02*
X130580000Y-139199000D01*
X128500000Y-139199000D02*
X126175000Y-139199000D01*
X132878000Y-139239000D02*
X130580000Y-139239000D01*
X128500000Y-139239000D02*
X126202000Y-139239000D01*
X132849000Y-139279000D02*
X130580000Y-139279000D01*
X128500000Y-139279000D02*
X126231000Y-139279000D01*
X132820000Y-139319000D02*
X130580000Y-139319000D01*
X128500000Y-139319000D02*
X126260000Y-139319000D01*
X132790000Y-139359000D02*
X130580000Y-139359000D01*
X128500000Y-139359000D02*
X126290000Y-139359000D01*
X132760000Y-139399000D02*
X130580000Y-139399000D01*
X128500000Y-139399000D02*
X126320000Y-139399000D01*
X132729000Y-139439000D02*
X130580000Y-139439000D01*
X128500000Y-139439000D02*
X126351000Y-139439000D01*
X132696000Y-139479000D02*
X130580000Y-139479000D01*
X128500000Y-139479000D02*
X126384000Y-139479000D01*
X132664000Y-139519000D02*
X130580000Y-139519000D01*
X128500000Y-139519000D02*
X126416000Y-139519000D01*
X132630000Y-139559000D02*
X130580000Y-139559000D01*
X128500000Y-139559000D02*
X126450000Y-139559000D01*
X132595000Y-139599000D02*
X130580000Y-139599000D01*
X128500000Y-139599000D02*
X126485000Y-139599000D01*
X132559000Y-139639000D02*
X130580000Y-139639000D01*
X128500000Y-139639000D02*
X126521000Y-139639000D01*
X132523000Y-139679000D02*
X126557000Y-139679000D01*
X132485000Y-139719000D02*
X126595000Y-139719000D01*
X132447000Y-139759000D02*
X126633000Y-139759000D01*
X132407000Y-139799000D02*
X126673000Y-139799000D01*
X132366000Y-139839000D02*
X126714000Y-139839000D01*
X132324000Y-139879000D02*
X126756000Y-139879000D01*
X132281000Y-139919000D02*
X126799000Y-139919000D01*
X132237000Y-139959000D02*
X126843000Y-139959000D01*
X132191000Y-139999000D02*
X126889000Y-139999000D01*
X132144000Y-140039000D02*
X126936000Y-140039000D01*
X132096000Y-140079000D02*
X126984000Y-140079000D01*
X132045000Y-140119000D02*
X127035000Y-140119000D01*
X131994000Y-140159000D02*
X127086000Y-140159000D01*
X131940000Y-140199000D02*
X127140000Y-140199000D01*
X131885000Y-140239000D02*
X127195000Y-140239000D01*
X131827000Y-140279000D02*
X127253000Y-140279000D01*
X131768000Y-140319000D02*
X127312000Y-140319000D01*
X131706000Y-140359000D02*
X127374000Y-140359000D01*
X131642000Y-140399000D02*
X127438000Y-140399000D01*
X131574000Y-140439000D02*
X127506000Y-140439000D01*
X131504000Y-140479000D02*
X127576000Y-140479000D01*
X131430000Y-140519000D02*
X127650000Y-140519000D01*
X131353000Y-140559000D02*
X127727000Y-140559000D01*
X131271000Y-140599000D02*
X127809000Y-140599000D01*
X131185000Y-140639000D02*
X127895000Y-140639000D01*
X131092000Y-140679000D02*
X127988000Y-140679000D01*
X130993000Y-140719000D02*
X128087000Y-140719000D01*
X130886000Y-140759000D02*
X128194000Y-140759000D01*
X130769000Y-140799000D02*
X128311000Y-140799000D01*
X130638000Y-140839000D02*
X128442000Y-140839000D01*
X130488000Y-140879000D02*
X128592000Y-140879000D01*
X130308000Y-140919000D02*
X128772000Y-140919000D01*
X130073000Y-140959000D02*
X129007000Y-140959000D01*
X131855000Y-132468302D02*
X131855000Y-133268302D01*
X132255000Y-132868302D02*
X131455000Y-132868302D01*
%TO.C,C2*%
X149232000Y-145950000D02*
X154472000Y-145950000D01*
X149232000Y-148690000D02*
X154472000Y-148690000D01*
X149232000Y-145950000D02*
X149232000Y-146265000D01*
X149232000Y-148375000D02*
X149232000Y-148690000D01*
X154472000Y-145950000D02*
X154472000Y-146265000D01*
X154472000Y-148375000D02*
X154472000Y-148690000D01*
%TO.C,C3*%
X133565000Y-107308000D02*
X133250000Y-107308000D01*
X135990000Y-107308000D02*
X135675000Y-107308000D01*
X133565000Y-102068000D02*
X133250000Y-102068000D01*
X135990000Y-102068000D02*
X135675000Y-102068000D01*
X133250000Y-102068000D02*
X133250000Y-107308000D01*
X135990000Y-102068000D02*
X135990000Y-107308000D01*
%TO.C,C4*%
X162406000Y-99448000D02*
X162406000Y-104688000D01*
X159666000Y-99448000D02*
X159666000Y-104688000D01*
X162406000Y-99448000D02*
X162091000Y-99448000D01*
X159981000Y-99448000D02*
X159666000Y-99448000D01*
X162406000Y-104688000D02*
X162091000Y-104688000D01*
X159981000Y-104688000D02*
X159666000Y-104688000D01*
%TO.C,C5*%
X113571000Y-103878000D02*
X114196000Y-103878000D01*
X111356000Y-103878000D02*
X111981000Y-103878000D01*
X113571000Y-107918000D02*
X114196000Y-107918000D01*
X111356000Y-107918000D02*
X111981000Y-107918000D01*
X114196000Y-107918000D02*
X114196000Y-103878000D01*
X111356000Y-107918000D02*
X111356000Y-103878000D01*
%TO.C,C6*%
X114196000Y-111498000D02*
X114196000Y-115538000D01*
X111356000Y-111498000D02*
X111356000Y-115538000D01*
X114196000Y-111498000D02*
X113571000Y-111498000D01*
X111981000Y-111498000D02*
X111356000Y-111498000D01*
X114196000Y-115538000D02*
X113571000Y-115538000D01*
X111981000Y-115538000D02*
X111356000Y-115538000D01*
%TO.C,D1*%
X118502000Y-130144000D02*
X118502000Y-131984000D01*
X118502000Y-131984000D02*
X121782000Y-131984000D01*
X121782000Y-131984000D02*
X121782000Y-130144000D01*
X121782000Y-130144000D02*
X118502000Y-130144000D01*
X117322000Y-131064000D02*
X118502000Y-131064000D01*
X122962000Y-131064000D02*
X121782000Y-131064000D01*
X119078000Y-130144000D02*
X119078000Y-131984000D01*
X119198000Y-130144000D02*
X119198000Y-131984000D01*
X118958000Y-130144000D02*
X118958000Y-131984000D01*
%TO.C,LED1*%
X168620000Y-140780000D02*
X168620000Y-140936000D01*
X168620000Y-138464000D02*
X168620000Y-138620000D01*
X171221130Y-140779837D02*
G75*
G02*
X169139039Y-140780000I-1041130J1079837D01*
G01*
X171221130Y-138620163D02*
G75*
G03*
X169139039Y-138620000I-1041130J-1079837D01*
G01*
X171852335Y-140778608D02*
G75*
G02*
X168620000Y-140935516I-1672335J1078608D01*
G01*
X171852335Y-138621392D02*
G75*
G03*
X168620000Y-138464484I-1672335J-1078608D01*
G01*
%TO.C,LED2*%
X168620000Y-133130000D02*
X168620000Y-133286000D01*
X168620000Y-135446000D02*
X168620000Y-135602000D01*
X171852335Y-133287392D02*
G75*
G03*
X168620000Y-133130484I-1672335J-1078608D01*
G01*
X171852335Y-135444608D02*
G75*
G02*
X168620000Y-135601516I-1672335J1078608D01*
G01*
X171221130Y-133286163D02*
G75*
G03*
X169139039Y-133286000I-1041130J-1079837D01*
G01*
X171221130Y-135445837D02*
G75*
G02*
X169139039Y-135446000I-1041130J1079837D01*
G01*
%TO.C,LED3*%
X168620000Y-130112000D02*
X168620000Y-130268000D01*
X168620000Y-127796000D02*
X168620000Y-127952000D01*
X171221130Y-130111837D02*
G75*
G02*
X169139039Y-130112000I-1041130J1079837D01*
G01*
X171221130Y-127952163D02*
G75*
G03*
X169139039Y-127952000I-1041130J-1079837D01*
G01*
X171852335Y-130110608D02*
G75*
G02*
X168620000Y-130267516I-1672335J1078608D01*
G01*
X171852335Y-127953392D02*
G75*
G03*
X168620000Y-127796484I-1672335J-1078608D01*
G01*
%TO.C,LED4*%
X168620000Y-122462000D02*
X168620000Y-122618000D01*
X168620000Y-124778000D02*
X168620000Y-124934000D01*
X171852335Y-122619392D02*
G75*
G03*
X168620000Y-122462484I-1672335J-1078608D01*
G01*
X171852335Y-124776608D02*
G75*
G02*
X168620000Y-124933516I-1672335J1078608D01*
G01*
X171221130Y-122618163D02*
G75*
G03*
X169139039Y-122618000I-1041130J-1079837D01*
G01*
X171221130Y-124777837D02*
G75*
G02*
X169139039Y-124778000I-1041130J1079837D01*
G01*
%TO.C,LED5*%
X168620000Y-119444000D02*
X168620000Y-119600000D01*
X168620000Y-117128000D02*
X168620000Y-117284000D01*
X171221130Y-119443837D02*
G75*
G02*
X169139039Y-119444000I-1041130J1079837D01*
G01*
X171221130Y-117284163D02*
G75*
G03*
X169139039Y-117284000I-1041130J-1079837D01*
G01*
X171852335Y-119442608D02*
G75*
G02*
X168620000Y-119599516I-1672335J1078608D01*
G01*
X171852335Y-117285392D02*
G75*
G03*
X168620000Y-117128484I-1672335J-1078608D01*
G01*
%TO.C,LED6*%
X168620000Y-111794000D02*
X168620000Y-111950000D01*
X168620000Y-114110000D02*
X168620000Y-114266000D01*
X171852335Y-111951392D02*
G75*
G03*
X168620000Y-111794484I-1672335J-1078608D01*
G01*
X171852335Y-114108608D02*
G75*
G02*
X168620000Y-114265516I-1672335J1078608D01*
G01*
X171221130Y-111950163D02*
G75*
G03*
X169139039Y-111950000I-1041130J-1079837D01*
G01*
X171221130Y-114109837D02*
G75*
G02*
X169139039Y-114110000I-1041130J1079837D01*
G01*
%TO.C,LED7*%
X168650001Y-106403001D02*
X168650001Y-106559001D01*
X168650001Y-108719001D02*
X168650001Y-108875001D01*
X171882336Y-106560393D02*
G75*
G03*
X168650001Y-106403485I-1672335J-1078608D01*
G01*
X171882336Y-108717609D02*
G75*
G02*
X168650001Y-108874517I-1672335J1078608D01*
G01*
X171251131Y-106559164D02*
G75*
G03*
X169169040Y-106559001I-1041130J-1079837D01*
G01*
X171251131Y-108718838D02*
G75*
G02*
X169169040Y-108719001I-1041130J1079837D01*
G01*
%TO.C,LED8*%
X168620000Y-101126000D02*
X168620000Y-101282000D01*
X168620000Y-103442000D02*
X168620000Y-103598000D01*
X171852335Y-101283392D02*
G75*
G03*
X168620000Y-101126484I-1672335J-1078608D01*
G01*
X171852335Y-103440608D02*
G75*
G02*
X168620000Y-103597516I-1672335J1078608D01*
G01*
X171221130Y-101282163D02*
G75*
G03*
X169139039Y-101282000I-1041130J-1079837D01*
G01*
X171221130Y-103441837D02*
G75*
G02*
X169139039Y-103442000I-1041130J1079837D01*
G01*
%TO.C,ON1*%
X163866000Y-144208000D02*
X163866000Y-144052000D01*
X163866000Y-146524000D02*
X163866000Y-146368000D01*
X161264870Y-144208163D02*
G75*
G02*
X163346961Y-144208000I1041130J-1079837D01*
G01*
X161264870Y-146367837D02*
G75*
G03*
X163346961Y-146368000I1041130J1079837D01*
G01*
X160633665Y-144209392D02*
G75*
G02*
X163866000Y-144052484I1672335J-1078608D01*
G01*
X160633665Y-146366608D02*
G75*
G03*
X163866000Y-146523516I1672335J1078608D01*
G01*
%TO.C,POT1*%
X119808000Y-88079000D02*
X119808000Y-97849000D01*
X110038000Y-88079000D02*
X110038000Y-97849000D01*
X110038000Y-97849000D02*
X119808000Y-97849000D01*
X110038000Y-88079000D02*
X119808000Y-88079000D01*
%TO.C,POT2*%
X110038000Y-76903000D02*
X119808000Y-76903000D01*
X110038000Y-86673000D02*
X119808000Y-86673000D01*
X110038000Y-76903000D02*
X110038000Y-86673000D01*
X119808000Y-76903000D02*
X119808000Y-86673000D01*
%TO.C,R1*%
X126516000Y-62516000D02*
X126846000Y-62516000D01*
X126846000Y-62516000D02*
X126846000Y-69056000D01*
X126846000Y-69056000D02*
X126516000Y-69056000D01*
X124436000Y-62516000D02*
X124106000Y-62516000D01*
X124106000Y-62516000D02*
X124106000Y-69056000D01*
X124106000Y-69056000D02*
X124436000Y-69056000D01*
%TO.C,R2*%
X147352000Y-53824000D02*
X147352000Y-53494000D01*
X147352000Y-53494000D02*
X153892000Y-53494000D01*
X153892000Y-53494000D02*
X153892000Y-53824000D01*
X147352000Y-55904000D02*
X147352000Y-56234000D01*
X147352000Y-56234000D02*
X153892000Y-56234000D01*
X153892000Y-56234000D02*
X153892000Y-55904000D01*
%TO.C,R3*%
X164052000Y-56234000D02*
X164052000Y-55904000D01*
X157512000Y-56234000D02*
X164052000Y-56234000D01*
X157512000Y-55904000D02*
X157512000Y-56234000D01*
X164052000Y-53494000D02*
X164052000Y-53824000D01*
X157512000Y-53494000D02*
X164052000Y-53494000D01*
X157512000Y-53824000D02*
X157512000Y-53494000D01*
%TO.C,R4*%
X174212000Y-56234000D02*
X174212000Y-55904000D01*
X167672000Y-56234000D02*
X174212000Y-56234000D01*
X167672000Y-55904000D02*
X167672000Y-56234000D01*
X174212000Y-53494000D02*
X174212000Y-53824000D01*
X167672000Y-53494000D02*
X174212000Y-53494000D01*
X167672000Y-53824000D02*
X167672000Y-53494000D01*
%TO.C,R5*%
X184372000Y-56234000D02*
X184372000Y-55904000D01*
X177832000Y-56234000D02*
X184372000Y-56234000D01*
X177832000Y-55904000D02*
X177832000Y-56234000D01*
X184372000Y-53494000D02*
X184372000Y-53824000D01*
X177832000Y-53494000D02*
X184372000Y-53494000D01*
X177832000Y-53824000D02*
X177832000Y-53494000D01*
%TO.C,R6*%
X155416000Y-143610000D02*
X155416000Y-143280000D01*
X148876000Y-143610000D02*
X155416000Y-143610000D01*
X148876000Y-143280000D02*
X148876000Y-143610000D01*
X155416000Y-140870000D02*
X155416000Y-141200000D01*
X148876000Y-140870000D02*
X155416000Y-140870000D01*
X148876000Y-141200000D02*
X148876000Y-140870000D01*
%TO.C,R7*%
X175038000Y-138330000D02*
X175038000Y-138660000D01*
X181578000Y-138330000D02*
X175038000Y-138330000D01*
X181578000Y-138660000D02*
X181578000Y-138330000D01*
X175038000Y-141070000D02*
X175038000Y-140740000D01*
X181578000Y-141070000D02*
X175038000Y-141070000D01*
X181578000Y-140740000D02*
X181578000Y-141070000D01*
%TO.C,R8*%
X181578000Y-135406000D02*
X181578000Y-135736000D01*
X181578000Y-135736000D02*
X175038000Y-135736000D01*
X175038000Y-135736000D02*
X175038000Y-135406000D01*
X181578000Y-133326000D02*
X181578000Y-132996000D01*
X181578000Y-132996000D02*
X175038000Y-132996000D01*
X175038000Y-132996000D02*
X175038000Y-133326000D01*
%TO.C,R9*%
X175038000Y-127662000D02*
X175038000Y-127992000D01*
X181578000Y-127662000D02*
X175038000Y-127662000D01*
X181578000Y-127992000D02*
X181578000Y-127662000D01*
X175038000Y-130402000D02*
X175038000Y-130072000D01*
X181578000Y-130402000D02*
X175038000Y-130402000D01*
X181578000Y-130072000D02*
X181578000Y-130402000D01*
%TO.C,R10*%
X181578000Y-124738000D02*
X181578000Y-125068000D01*
X181578000Y-125068000D02*
X175038000Y-125068000D01*
X175038000Y-125068000D02*
X175038000Y-124738000D01*
X181578000Y-122658000D02*
X181578000Y-122328000D01*
X181578000Y-122328000D02*
X175038000Y-122328000D01*
X175038000Y-122328000D02*
X175038000Y-122658000D01*
%TO.C,R11*%
X175038000Y-116994000D02*
X175038000Y-117324000D01*
X181578000Y-116994000D02*
X175038000Y-116994000D01*
X181578000Y-117324000D02*
X181578000Y-116994000D01*
X175038000Y-119734000D02*
X175038000Y-119404000D01*
X181578000Y-119734000D02*
X175038000Y-119734000D01*
X181578000Y-119404000D02*
X181578000Y-119734000D01*
%TO.C,R12*%
X181578000Y-114324000D02*
X181578000Y-114654000D01*
X181578000Y-114654000D02*
X175038000Y-114654000D01*
X175038000Y-114654000D02*
X175038000Y-114324000D01*
X181578000Y-112244000D02*
X181578000Y-111914000D01*
X181578000Y-111914000D02*
X175038000Y-111914000D01*
X175038000Y-111914000D02*
X175038000Y-112244000D01*
%TO.C,R13*%
X181578000Y-108736000D02*
X181578000Y-109066000D01*
X181578000Y-109066000D02*
X175038000Y-109066000D01*
X175038000Y-109066000D02*
X175038000Y-108736000D01*
X181578000Y-106656000D02*
X181578000Y-106326000D01*
X181578000Y-106326000D02*
X175038000Y-106326000D01*
X175038000Y-106326000D02*
X175038000Y-106656000D01*
%TO.C,R14*%
X181578000Y-103402000D02*
X181578000Y-103732000D01*
X181578000Y-103732000D02*
X175038000Y-103732000D01*
X175038000Y-103732000D02*
X175038000Y-103402000D01*
X181578000Y-101322000D02*
X181578000Y-100992000D01*
X181578000Y-100992000D02*
X175038000Y-100992000D01*
X175038000Y-100992000D02*
X175038000Y-101322000D01*
%TO.C,SW1*%
X136160000Y-63588000D02*
X131660000Y-63588000D01*
X137410000Y-67588000D02*
X137410000Y-66088000D01*
X131660000Y-70088000D02*
X136160000Y-70088000D01*
X130410000Y-66088000D02*
X130410000Y-67588000D01*
%TO.C,SW2*%
X180672000Y-86252000D02*
X180672000Y-93073000D01*
X168832000Y-86252000D02*
X168832000Y-93073000D01*
X180672000Y-86252000D02*
X179602000Y-86252000D01*
X177522000Y-86252000D02*
X177011000Y-86252000D01*
X175032000Y-86252000D02*
X174471000Y-86252000D01*
X172492000Y-86252000D02*
X171931000Y-86252000D01*
X169952000Y-86252000D02*
X168832000Y-86252000D01*
X169952000Y-93073000D02*
X168832000Y-93073000D01*
X172492000Y-93073000D02*
X171931000Y-93073000D01*
X175032000Y-93073000D02*
X174471000Y-93073000D01*
X180672000Y-93073000D02*
X179552000Y-93073000D01*
X177572000Y-93073000D02*
X177011000Y-93073000D01*
X180912000Y-86012000D02*
X180912000Y-87395000D01*
X180912000Y-86012000D02*
X179602000Y-86012000D01*
X179197000Y-87852000D02*
X177927000Y-87852000D01*
X177927000Y-87852000D02*
X177927000Y-91472000D01*
X177927000Y-91472000D02*
X179197000Y-91472000D01*
X179197000Y-91472000D02*
X179197000Y-87852000D01*
X179077000Y-87852000D02*
X179077000Y-89058667D01*
X178957000Y-87852000D02*
X178957000Y-89058667D01*
X178837000Y-87852000D02*
X178837000Y-89058667D01*
X178717000Y-87852000D02*
X178717000Y-89058667D01*
X178597000Y-87852000D02*
X178597000Y-89058667D01*
X178477000Y-87852000D02*
X178477000Y-89058667D01*
X178357000Y-87852000D02*
X178357000Y-89058667D01*
X178237000Y-87852000D02*
X178237000Y-89058667D01*
X178117000Y-87852000D02*
X178117000Y-89058667D01*
X177997000Y-87852000D02*
X177997000Y-89058667D01*
X179197000Y-89058667D02*
X177927000Y-89058667D01*
X176657000Y-87852000D02*
X175387000Y-87852000D01*
X175387000Y-87852000D02*
X175387000Y-91472000D01*
X175387000Y-91472000D02*
X176657000Y-91472000D01*
X176657000Y-91472000D02*
X176657000Y-87852000D01*
X176537000Y-87852000D02*
X176537000Y-89058667D01*
X176417000Y-87852000D02*
X176417000Y-89058667D01*
X176297000Y-87852000D02*
X176297000Y-89058667D01*
X176177000Y-87852000D02*
X176177000Y-89058667D01*
X176057000Y-87852000D02*
X176057000Y-89058667D01*
X175937000Y-87852000D02*
X175937000Y-89058667D01*
X175817000Y-87852000D02*
X175817000Y-89058667D01*
X175697000Y-87852000D02*
X175697000Y-89058667D01*
X175577000Y-87852000D02*
X175577000Y-89058667D01*
X175457000Y-87852000D02*
X175457000Y-89058667D01*
X176657000Y-89058667D02*
X175387000Y-89058667D01*
X174117000Y-87852000D02*
X172847000Y-87852000D01*
X172847000Y-87852000D02*
X172847000Y-91472000D01*
X172847000Y-91472000D02*
X174117000Y-91472000D01*
X174117000Y-91472000D02*
X174117000Y-87852000D01*
X173997000Y-87852000D02*
X173997000Y-89058667D01*
X173877000Y-87852000D02*
X173877000Y-89058667D01*
X173757000Y-87852000D02*
X173757000Y-89058667D01*
X173637000Y-87852000D02*
X173637000Y-89058667D01*
X173517000Y-87852000D02*
X173517000Y-89058667D01*
X173397000Y-87852000D02*
X173397000Y-89058667D01*
X173277000Y-87852000D02*
X173277000Y-89058667D01*
X173157000Y-87852000D02*
X173157000Y-89058667D01*
X173037000Y-87852000D02*
X173037000Y-89058667D01*
X172917000Y-87852000D02*
X172917000Y-89058667D01*
X174117000Y-89058667D02*
X172847000Y-89058667D01*
X171577000Y-87852000D02*
X170307000Y-87852000D01*
X170307000Y-87852000D02*
X170307000Y-91472000D01*
X170307000Y-91472000D02*
X171577000Y-91472000D01*
X171577000Y-91472000D02*
X171577000Y-87852000D01*
X171457000Y-87852000D02*
X171457000Y-89058667D01*
X171337000Y-87852000D02*
X171337000Y-89058667D01*
X171217000Y-87852000D02*
X171217000Y-89058667D01*
X171097000Y-87852000D02*
X171097000Y-89058667D01*
X170977000Y-87852000D02*
X170977000Y-89058667D01*
X170857000Y-87852000D02*
X170857000Y-89058667D01*
X170737000Y-87852000D02*
X170737000Y-89058667D01*
X170617000Y-87852000D02*
X170617000Y-89058667D01*
X170497000Y-87852000D02*
X170497000Y-89058667D01*
X170377000Y-87852000D02*
X170377000Y-89058667D01*
X171577000Y-89058667D02*
X170307000Y-89058667D01*
%TO.C,SW3*%
X125634667Y-109093000D02*
X125634667Y-110363000D01*
X124428000Y-110293000D02*
X125634667Y-110293000D01*
X124428000Y-110173000D02*
X125634667Y-110173000D01*
X124428000Y-110053000D02*
X125634667Y-110053000D01*
X124428000Y-109933000D02*
X125634667Y-109933000D01*
X124428000Y-109813000D02*
X125634667Y-109813000D01*
X124428000Y-109693000D02*
X125634667Y-109693000D01*
X124428000Y-109573000D02*
X125634667Y-109573000D01*
X124428000Y-109453000D02*
X125634667Y-109453000D01*
X124428000Y-109333000D02*
X125634667Y-109333000D01*
X124428000Y-109213000D02*
X125634667Y-109213000D01*
X128048000Y-109093000D02*
X124428000Y-109093000D01*
X128048000Y-110363000D02*
X128048000Y-109093000D01*
X124428000Y-110363000D02*
X128048000Y-110363000D01*
X124428000Y-109093000D02*
X124428000Y-110363000D01*
X125634667Y-106553000D02*
X125634667Y-107823000D01*
X124428000Y-107753000D02*
X125634667Y-107753000D01*
X124428000Y-107633000D02*
X125634667Y-107633000D01*
X124428000Y-107513000D02*
X125634667Y-107513000D01*
X124428000Y-107393000D02*
X125634667Y-107393000D01*
X124428000Y-107273000D02*
X125634667Y-107273000D01*
X124428000Y-107153000D02*
X125634667Y-107153000D01*
X124428000Y-107033000D02*
X125634667Y-107033000D01*
X124428000Y-106913000D02*
X125634667Y-106913000D01*
X124428000Y-106793000D02*
X125634667Y-106793000D01*
X124428000Y-106673000D02*
X125634667Y-106673000D01*
X128048000Y-106553000D02*
X124428000Y-106553000D01*
X128048000Y-107823000D02*
X128048000Y-106553000D01*
X124428000Y-107823000D02*
X128048000Y-107823000D01*
X124428000Y-106553000D02*
X124428000Y-107823000D01*
X125634667Y-104013000D02*
X125634667Y-105283000D01*
X124428000Y-105213000D02*
X125634667Y-105213000D01*
X124428000Y-105093000D02*
X125634667Y-105093000D01*
X124428000Y-104973000D02*
X125634667Y-104973000D01*
X124428000Y-104853000D02*
X125634667Y-104853000D01*
X124428000Y-104733000D02*
X125634667Y-104733000D01*
X124428000Y-104613000D02*
X125634667Y-104613000D01*
X124428000Y-104493000D02*
X125634667Y-104493000D01*
X124428000Y-104373000D02*
X125634667Y-104373000D01*
X124428000Y-104253000D02*
X125634667Y-104253000D01*
X124428000Y-104133000D02*
X125634667Y-104133000D01*
X128048000Y-104013000D02*
X124428000Y-104013000D01*
X128048000Y-105283000D02*
X128048000Y-104013000D01*
X124428000Y-105283000D02*
X128048000Y-105283000D01*
X124428000Y-104013000D02*
X124428000Y-105283000D01*
X125634667Y-101473000D02*
X125634667Y-102743000D01*
X124428000Y-102673000D02*
X125634667Y-102673000D01*
X124428000Y-102553000D02*
X125634667Y-102553000D01*
X124428000Y-102433000D02*
X125634667Y-102433000D01*
X124428000Y-102313000D02*
X125634667Y-102313000D01*
X124428000Y-102193000D02*
X125634667Y-102193000D01*
X124428000Y-102073000D02*
X125634667Y-102073000D01*
X124428000Y-101953000D02*
X125634667Y-101953000D01*
X124428000Y-101833000D02*
X125634667Y-101833000D01*
X124428000Y-101713000D02*
X125634667Y-101713000D01*
X124428000Y-101593000D02*
X125634667Y-101593000D01*
X128048000Y-101473000D02*
X124428000Y-101473000D01*
X128048000Y-102743000D02*
X128048000Y-101473000D01*
X124428000Y-102743000D02*
X128048000Y-102743000D01*
X124428000Y-101473000D02*
X124428000Y-102743000D01*
X122588000Y-99758000D02*
X122588000Y-101068000D01*
X122588000Y-99758000D02*
X123971000Y-99758000D01*
X129649000Y-103098000D02*
X129649000Y-103659000D01*
X129649000Y-99998000D02*
X129649000Y-101118000D01*
X129649000Y-105638000D02*
X129649000Y-106199000D01*
X129649000Y-108178000D02*
X129649000Y-108739000D01*
X129649000Y-110718000D02*
X129649000Y-111838000D01*
X122828000Y-110718000D02*
X122828000Y-111838000D01*
X122828000Y-108178000D02*
X122828000Y-108739000D01*
X122828000Y-105638000D02*
X122828000Y-106199000D01*
X122828000Y-103148000D02*
X122828000Y-103659000D01*
X122828000Y-99998000D02*
X122828000Y-101068000D01*
X122828000Y-111838000D02*
X129649000Y-111838000D01*
X122828000Y-99998000D02*
X129649000Y-99998000D01*
%TO.C,SW4*%
X185498000Y-70504000D02*
X185498000Y-77325000D01*
X173658000Y-70504000D02*
X173658000Y-77325000D01*
X185498000Y-70504000D02*
X184428000Y-70504000D01*
X182348000Y-70504000D02*
X181837000Y-70504000D01*
X179858000Y-70504000D02*
X179297000Y-70504000D01*
X177318000Y-70504000D02*
X176757000Y-70504000D01*
X174778000Y-70504000D02*
X173658000Y-70504000D01*
X174778000Y-77325000D02*
X173658000Y-77325000D01*
X177318000Y-77325000D02*
X176757000Y-77325000D01*
X179858000Y-77325000D02*
X179297000Y-77325000D01*
X185498000Y-77325000D02*
X184378000Y-77325000D01*
X182398000Y-77325000D02*
X181837000Y-77325000D01*
X185738000Y-70264000D02*
X185738000Y-71647000D01*
X185738000Y-70264000D02*
X184428000Y-70264000D01*
X184023000Y-72104000D02*
X182753000Y-72104000D01*
X182753000Y-72104000D02*
X182753000Y-75724000D01*
X182753000Y-75724000D02*
X184023000Y-75724000D01*
X184023000Y-75724000D02*
X184023000Y-72104000D01*
X183903000Y-72104000D02*
X183903000Y-73310667D01*
X183783000Y-72104000D02*
X183783000Y-73310667D01*
X183663000Y-72104000D02*
X183663000Y-73310667D01*
X183543000Y-72104000D02*
X183543000Y-73310667D01*
X183423000Y-72104000D02*
X183423000Y-73310667D01*
X183303000Y-72104000D02*
X183303000Y-73310667D01*
X183183000Y-72104000D02*
X183183000Y-73310667D01*
X183063000Y-72104000D02*
X183063000Y-73310667D01*
X182943000Y-72104000D02*
X182943000Y-73310667D01*
X182823000Y-72104000D02*
X182823000Y-73310667D01*
X184023000Y-73310667D02*
X182753000Y-73310667D01*
X181483000Y-72104000D02*
X180213000Y-72104000D01*
X180213000Y-72104000D02*
X180213000Y-75724000D01*
X180213000Y-75724000D02*
X181483000Y-75724000D01*
X181483000Y-75724000D02*
X181483000Y-72104000D01*
X181363000Y-72104000D02*
X181363000Y-73310667D01*
X181243000Y-72104000D02*
X181243000Y-73310667D01*
X181123000Y-72104000D02*
X181123000Y-73310667D01*
X181003000Y-72104000D02*
X181003000Y-73310667D01*
X180883000Y-72104000D02*
X180883000Y-73310667D01*
X180763000Y-72104000D02*
X180763000Y-73310667D01*
X180643000Y-72104000D02*
X180643000Y-73310667D01*
X180523000Y-72104000D02*
X180523000Y-73310667D01*
X180403000Y-72104000D02*
X180403000Y-73310667D01*
X180283000Y-72104000D02*
X180283000Y-73310667D01*
X181483000Y-73310667D02*
X180213000Y-73310667D01*
X178943000Y-72104000D02*
X177673000Y-72104000D01*
X177673000Y-72104000D02*
X177673000Y-75724000D01*
X177673000Y-75724000D02*
X178943000Y-75724000D01*
X178943000Y-75724000D02*
X178943000Y-72104000D01*
X178823000Y-72104000D02*
X178823000Y-73310667D01*
X178703000Y-72104000D02*
X178703000Y-73310667D01*
X178583000Y-72104000D02*
X178583000Y-73310667D01*
X178463000Y-72104000D02*
X178463000Y-73310667D01*
X178343000Y-72104000D02*
X178343000Y-73310667D01*
X178223000Y-72104000D02*
X178223000Y-73310667D01*
X178103000Y-72104000D02*
X178103000Y-73310667D01*
X177983000Y-72104000D02*
X177983000Y-73310667D01*
X177863000Y-72104000D02*
X177863000Y-73310667D01*
X177743000Y-72104000D02*
X177743000Y-73310667D01*
X178943000Y-73310667D02*
X177673000Y-73310667D01*
X176403000Y-72104000D02*
X175133000Y-72104000D01*
X175133000Y-72104000D02*
X175133000Y-75724000D01*
X175133000Y-75724000D02*
X176403000Y-75724000D01*
X176403000Y-75724000D02*
X176403000Y-72104000D01*
X176283000Y-72104000D02*
X176283000Y-73310667D01*
X176163000Y-72104000D02*
X176163000Y-73310667D01*
X176043000Y-72104000D02*
X176043000Y-73310667D01*
X175923000Y-72104000D02*
X175923000Y-73310667D01*
X175803000Y-72104000D02*
X175803000Y-73310667D01*
X175683000Y-72104000D02*
X175683000Y-73310667D01*
X175563000Y-72104000D02*
X175563000Y-73310667D01*
X175443000Y-72104000D02*
X175443000Y-73310667D01*
X175323000Y-72104000D02*
X175323000Y-73310667D01*
X175203000Y-72104000D02*
X175203000Y-73310667D01*
X176403000Y-73310667D02*
X175133000Y-73310667D01*
%TO.C,U1*%
X142788000Y-149066000D02*
X132548000Y-149066000D01*
X142788000Y-144425000D02*
X132548000Y-144425000D01*
X142788000Y-149066000D02*
X142788000Y-144425000D01*
X132548000Y-149066000D02*
X132548000Y-144425000D01*
X142788000Y-147556000D02*
X132548000Y-147556000D01*
X139518000Y-149066000D02*
X139518000Y-147556000D01*
X135817000Y-149066000D02*
X135817000Y-147556000D01*
%TO.C,Y1*%
X119873000Y-106513000D02*
X119873000Y-112763000D01*
X114823000Y-106513000D02*
X114823000Y-112763000D01*
X114823000Y-106513000D02*
G75*
G02*
X119873000Y-106513000I2525000J0D01*
G01*
X114823000Y-112763000D02*
G75*
G03*
X119873000Y-112763000I2525000J0D01*
G01*
%TO.C,J8*%
D12*
X191690666Y-127766380D02*
X191690666Y-128480666D01*
X191643047Y-128623523D01*
X191547809Y-128718761D01*
X191404952Y-128766380D01*
X191309714Y-128766380D01*
X192309714Y-128194952D02*
X192214476Y-128147333D01*
X192166857Y-128099714D01*
X192119238Y-128004476D01*
X192119238Y-127956857D01*
X192166857Y-127861619D01*
X192214476Y-127814000D01*
X192309714Y-127766380D01*
X192500190Y-127766380D01*
X192595428Y-127814000D01*
X192643047Y-127861619D01*
X192690666Y-127956857D01*
X192690666Y-128004476D01*
X192643047Y-128099714D01*
X192595428Y-128147333D01*
X192500190Y-128194952D01*
X192309714Y-128194952D01*
X192214476Y-128242571D01*
X192166857Y-128290190D01*
X192119238Y-128385428D01*
X192119238Y-128575904D01*
X192166857Y-128671142D01*
X192214476Y-128718761D01*
X192309714Y-128766380D01*
X192500190Y-128766380D01*
X192595428Y-128718761D01*
X192643047Y-128671142D01*
X192690666Y-128575904D01*
X192690666Y-128385428D01*
X192643047Y-128290190D01*
X192595428Y-128242571D01*
X192500190Y-128194952D01*
%TO.C,J7*%
X99742666Y-114978380D02*
X99742666Y-115692666D01*
X99695047Y-115835523D01*
X99599809Y-115930761D01*
X99456952Y-115978380D01*
X99361714Y-115978380D01*
X100123619Y-114978380D02*
X100790285Y-114978380D01*
X100361714Y-115978380D01*
%TO.C,J6*%
X191690666Y-71290380D02*
X191690666Y-72004666D01*
X191643047Y-72147523D01*
X191547809Y-72242761D01*
X191404952Y-72290380D01*
X191309714Y-72290380D01*
X192595428Y-71290380D02*
X192404952Y-71290380D01*
X192309714Y-71338000D01*
X192262095Y-71385619D01*
X192166857Y-71528476D01*
X192119238Y-71718952D01*
X192119238Y-72099904D01*
X192166857Y-72195142D01*
X192214476Y-72242761D01*
X192309714Y-72290380D01*
X192500190Y-72290380D01*
X192595428Y-72242761D01*
X192643047Y-72195142D01*
X192690666Y-72099904D01*
X192690666Y-71861809D01*
X192643047Y-71766571D01*
X192595428Y-71718952D01*
X192500190Y-71671333D01*
X192309714Y-71671333D01*
X192214476Y-71718952D01*
X192166857Y-71766571D01*
X192119238Y-71861809D01*
%TO.C,J5*%
X99234666Y-58590380D02*
X99234666Y-59304666D01*
X99187047Y-59447523D01*
X99091809Y-59542761D01*
X98948952Y-59590380D01*
X98853714Y-59590380D01*
X100187047Y-58590380D02*
X99710857Y-58590380D01*
X99663238Y-59066571D01*
X99710857Y-59018952D01*
X99806095Y-58971333D01*
X100044190Y-58971333D01*
X100139428Y-59018952D01*
X100187047Y-59066571D01*
X100234666Y-59161809D01*
X100234666Y-59399904D01*
X100187047Y-59495142D01*
X100139428Y-59542761D01*
X100044190Y-59590380D01*
X99806095Y-59590380D01*
X99710857Y-59542761D01*
X99663238Y-59495142D01*
%TO.C,J4*%
X99234666Y-93134380D02*
X99234666Y-93848666D01*
X99187047Y-93991523D01*
X99091809Y-94086761D01*
X98948952Y-94134380D01*
X98853714Y-94134380D01*
X100139428Y-93467714D02*
X100139428Y-94134380D01*
X99901333Y-93086761D02*
X99663238Y-93801047D01*
X100282285Y-93801047D01*
%TO.C,J3*%
X127170380Y-54689333D02*
X127884666Y-54689333D01*
X128027523Y-54736952D01*
X128122761Y-54832190D01*
X128170380Y-54975047D01*
X128170380Y-55070285D01*
X127170380Y-54308380D02*
X127170380Y-53689333D01*
X127551333Y-54022666D01*
X127551333Y-53879809D01*
X127598952Y-53784571D01*
X127646571Y-53736952D01*
X127741809Y-53689333D01*
X127979904Y-53689333D01*
X128075142Y-53736952D01*
X128122761Y-53784571D01*
X128170380Y-53879809D01*
X128170380Y-54165523D01*
X128122761Y-54260761D01*
X128075142Y-54308380D01*
%TO.C,J1*%
X169334380Y-148161333D02*
X170048666Y-148161333D01*
X170191523Y-148208952D01*
X170286761Y-148304190D01*
X170334380Y-148447047D01*
X170334380Y-148542285D01*
X170334380Y-147161333D02*
X170334380Y-147732761D01*
X170334380Y-147447047D02*
X169334380Y-147447047D01*
X169477238Y-147542285D01*
X169572476Y-147637523D01*
X169620095Y-147732761D01*
%TO.C,J2*%
X104695666Y-135469380D02*
X104695666Y-136183666D01*
X104648047Y-136326523D01*
X104552809Y-136421761D01*
X104409952Y-136469380D01*
X104314714Y-136469380D01*
X105124238Y-135564619D02*
X105171857Y-135517000D01*
X105267095Y-135469380D01*
X105505190Y-135469380D01*
X105600428Y-135517000D01*
X105648047Y-135564619D01*
X105695666Y-135659857D01*
X105695666Y-135755095D01*
X105648047Y-135897952D01*
X105076619Y-136469380D01*
X105695666Y-136469380D01*
%TO.C,R19*%
X170045142Y-79573380D02*
X169711809Y-79097190D01*
X169473714Y-79573380D02*
X169473714Y-78573380D01*
X169854666Y-78573380D01*
X169949904Y-78621000D01*
X169997523Y-78668619D01*
X170045142Y-78763857D01*
X170045142Y-78906714D01*
X169997523Y-79001952D01*
X169949904Y-79049571D01*
X169854666Y-79097190D01*
X169473714Y-79097190D01*
X170997523Y-79573380D02*
X170426095Y-79573380D01*
X170711809Y-79573380D02*
X170711809Y-78573380D01*
X170616571Y-78716238D01*
X170521333Y-78811476D01*
X170426095Y-78859095D01*
X171473714Y-79573380D02*
X171664190Y-79573380D01*
X171759428Y-79525761D01*
X171807047Y-79478142D01*
X171902285Y-79335285D01*
X171949904Y-79144809D01*
X171949904Y-78763857D01*
X171902285Y-78668619D01*
X171854666Y-78621000D01*
X171759428Y-78573380D01*
X171568952Y-78573380D01*
X171473714Y-78621000D01*
X171426095Y-78668619D01*
X171378476Y-78763857D01*
X171378476Y-79001952D01*
X171426095Y-79097190D01*
X171473714Y-79144809D01*
X171568952Y-79192428D01*
X171759428Y-79192428D01*
X171854666Y-79144809D01*
X171902285Y-79097190D01*
X171949904Y-79001952D01*
%TO.C,R18*%
X166108142Y-79573380D02*
X165774809Y-79097190D01*
X165536714Y-79573380D02*
X165536714Y-78573380D01*
X165917666Y-78573380D01*
X166012904Y-78621000D01*
X166060523Y-78668619D01*
X166108142Y-78763857D01*
X166108142Y-78906714D01*
X166060523Y-79001952D01*
X166012904Y-79049571D01*
X165917666Y-79097190D01*
X165536714Y-79097190D01*
X167060523Y-79573380D02*
X166489095Y-79573380D01*
X166774809Y-79573380D02*
X166774809Y-78573380D01*
X166679571Y-78716238D01*
X166584333Y-78811476D01*
X166489095Y-78859095D01*
X167631952Y-79001952D02*
X167536714Y-78954333D01*
X167489095Y-78906714D01*
X167441476Y-78811476D01*
X167441476Y-78763857D01*
X167489095Y-78668619D01*
X167536714Y-78621000D01*
X167631952Y-78573380D01*
X167822428Y-78573380D01*
X167917666Y-78621000D01*
X167965285Y-78668619D01*
X168012904Y-78763857D01*
X168012904Y-78811476D01*
X167965285Y-78906714D01*
X167917666Y-78954333D01*
X167822428Y-79001952D01*
X167631952Y-79001952D01*
X167536714Y-79049571D01*
X167489095Y-79097190D01*
X167441476Y-79192428D01*
X167441476Y-79382904D01*
X167489095Y-79478142D01*
X167536714Y-79525761D01*
X167631952Y-79573380D01*
X167822428Y-79573380D01*
X167917666Y-79525761D01*
X167965285Y-79478142D01*
X168012904Y-79382904D01*
X168012904Y-79192428D01*
X167965285Y-79097190D01*
X167917666Y-79049571D01*
X167822428Y-79001952D01*
%TO.C,R17*%
X160901142Y-79827380D02*
X160567809Y-79351190D01*
X160329714Y-79827380D02*
X160329714Y-78827380D01*
X160710666Y-78827380D01*
X160805904Y-78875000D01*
X160853523Y-78922619D01*
X160901142Y-79017857D01*
X160901142Y-79160714D01*
X160853523Y-79255952D01*
X160805904Y-79303571D01*
X160710666Y-79351190D01*
X160329714Y-79351190D01*
X161853523Y-79827380D02*
X161282095Y-79827380D01*
X161567809Y-79827380D02*
X161567809Y-78827380D01*
X161472571Y-78970238D01*
X161377333Y-79065476D01*
X161282095Y-79113095D01*
X162186857Y-78827380D02*
X162853523Y-78827380D01*
X162424952Y-79827380D01*
%TO.C,R16*%
X151371380Y-72270857D02*
X150895190Y-72604190D01*
X151371380Y-72842285D02*
X150371380Y-72842285D01*
X150371380Y-72461333D01*
X150419000Y-72366095D01*
X150466619Y-72318476D01*
X150561857Y-72270857D01*
X150704714Y-72270857D01*
X150799952Y-72318476D01*
X150847571Y-72366095D01*
X150895190Y-72461333D01*
X150895190Y-72842285D01*
X151371380Y-71318476D02*
X151371380Y-71889904D01*
X151371380Y-71604190D02*
X150371380Y-71604190D01*
X150514238Y-71699428D01*
X150609476Y-71794666D01*
X150657095Y-71889904D01*
X150371380Y-70461333D02*
X150371380Y-70651809D01*
X150419000Y-70747047D01*
X150466619Y-70794666D01*
X150609476Y-70889904D01*
X150799952Y-70937523D01*
X151180904Y-70937523D01*
X151276142Y-70889904D01*
X151323761Y-70842285D01*
X151371380Y-70747047D01*
X151371380Y-70556571D01*
X151323761Y-70461333D01*
X151276142Y-70413714D01*
X151180904Y-70366095D01*
X150942809Y-70366095D01*
X150847571Y-70413714D01*
X150799952Y-70461333D01*
X150752333Y-70556571D01*
X150752333Y-70747047D01*
X150799952Y-70842285D01*
X150847571Y-70889904D01*
X150942809Y-70937523D01*
%TO.C,R15*%
X143121142Y-70091380D02*
X142787809Y-69615190D01*
X142549714Y-70091380D02*
X142549714Y-69091380D01*
X142930666Y-69091380D01*
X143025904Y-69139000D01*
X143073523Y-69186619D01*
X143121142Y-69281857D01*
X143121142Y-69424714D01*
X143073523Y-69519952D01*
X143025904Y-69567571D01*
X142930666Y-69615190D01*
X142549714Y-69615190D01*
X144073523Y-70091380D02*
X143502095Y-70091380D01*
X143787809Y-70091380D02*
X143787809Y-69091380D01*
X143692571Y-69234238D01*
X143597333Y-69329476D01*
X143502095Y-69377095D01*
X144978285Y-69091380D02*
X144502095Y-69091380D01*
X144454476Y-69567571D01*
X144502095Y-69519952D01*
X144597333Y-69472333D01*
X144835428Y-69472333D01*
X144930666Y-69519952D01*
X144978285Y-69567571D01*
X145025904Y-69662809D01*
X145025904Y-69900904D01*
X144978285Y-69996142D01*
X144930666Y-70043761D01*
X144835428Y-70091380D01*
X144597333Y-70091380D01*
X144502095Y-70043761D01*
X144454476Y-69996142D01*
%TO.C,*%
%TO.C,U2*%
X146812095Y-76370380D02*
X146812095Y-77179904D01*
X146859714Y-77275142D01*
X146907333Y-77322761D01*
X147002571Y-77370380D01*
X147193047Y-77370380D01*
X147288285Y-77322761D01*
X147335904Y-77275142D01*
X147383523Y-77179904D01*
X147383523Y-76370380D01*
X147812095Y-76465619D02*
X147859714Y-76418000D01*
X147954952Y-76370380D01*
X148193047Y-76370380D01*
X148288285Y-76418000D01*
X148335904Y-76465619D01*
X148383523Y-76560857D01*
X148383523Y-76656095D01*
X148335904Y-76798952D01*
X147764476Y-77370380D01*
X148383523Y-77370380D01*
%TO.C,B1*%
X150292238Y-57999571D02*
X150435095Y-58047190D01*
X150482714Y-58094809D01*
X150530333Y-58190047D01*
X150530333Y-58332904D01*
X150482714Y-58428142D01*
X150435095Y-58475761D01*
X150339857Y-58523380D01*
X149958904Y-58523380D01*
X149958904Y-57523380D01*
X150292238Y-57523380D01*
X150387476Y-57571000D01*
X150435095Y-57618619D01*
X150482714Y-57713857D01*
X150482714Y-57809095D01*
X150435095Y-57904333D01*
X150387476Y-57951952D01*
X150292238Y-57999571D01*
X149958904Y-57999571D01*
X151482714Y-58523380D02*
X150911285Y-58523380D01*
X151197000Y-58523380D02*
X151197000Y-57523380D01*
X151101761Y-57666238D01*
X151006523Y-57761476D01*
X150911285Y-57809095D01*
%TO.C,B2*%
X160325238Y-57872571D02*
X160468095Y-57920190D01*
X160515714Y-57967809D01*
X160563333Y-58063047D01*
X160563333Y-58205904D01*
X160515714Y-58301142D01*
X160468095Y-58348761D01*
X160372857Y-58396380D01*
X159991904Y-58396380D01*
X159991904Y-57396380D01*
X160325238Y-57396380D01*
X160420476Y-57444000D01*
X160468095Y-57491619D01*
X160515714Y-57586857D01*
X160515714Y-57682095D01*
X160468095Y-57777333D01*
X160420476Y-57824952D01*
X160325238Y-57872571D01*
X159991904Y-57872571D01*
X160944285Y-57491619D02*
X160991904Y-57444000D01*
X161087142Y-57396380D01*
X161325238Y-57396380D01*
X161420476Y-57444000D01*
X161468095Y-57491619D01*
X161515714Y-57586857D01*
X161515714Y-57682095D01*
X161468095Y-57824952D01*
X160896666Y-58396380D01*
X161515714Y-58396380D01*
%TO.C,B3*%
X170485238Y-57872571D02*
X170628095Y-57920190D01*
X170675714Y-57967809D01*
X170723333Y-58063047D01*
X170723333Y-58205904D01*
X170675714Y-58301142D01*
X170628095Y-58348761D01*
X170532857Y-58396380D01*
X170151904Y-58396380D01*
X170151904Y-57396380D01*
X170485238Y-57396380D01*
X170580476Y-57444000D01*
X170628095Y-57491619D01*
X170675714Y-57586857D01*
X170675714Y-57682095D01*
X170628095Y-57777333D01*
X170580476Y-57824952D01*
X170485238Y-57872571D01*
X170151904Y-57872571D01*
X171056666Y-57396380D02*
X171675714Y-57396380D01*
X171342380Y-57777333D01*
X171485238Y-57777333D01*
X171580476Y-57824952D01*
X171628095Y-57872571D01*
X171675714Y-57967809D01*
X171675714Y-58205904D01*
X171628095Y-58301142D01*
X171580476Y-58348761D01*
X171485238Y-58396380D01*
X171199523Y-58396380D01*
X171104285Y-58348761D01*
X171056666Y-58301142D01*
%TO.C,B4*%
X180645238Y-57872571D02*
X180788095Y-57920190D01*
X180835714Y-57967809D01*
X180883333Y-58063047D01*
X180883333Y-58205904D01*
X180835714Y-58301142D01*
X180788095Y-58348761D01*
X180692857Y-58396380D01*
X180311904Y-58396380D01*
X180311904Y-57396380D01*
X180645238Y-57396380D01*
X180740476Y-57444000D01*
X180788095Y-57491619D01*
X180835714Y-57586857D01*
X180835714Y-57682095D01*
X180788095Y-57777333D01*
X180740476Y-57824952D01*
X180645238Y-57872571D01*
X180311904Y-57872571D01*
X181740476Y-57729714D02*
X181740476Y-58396380D01*
X181502380Y-57348761D02*
X181264285Y-58063047D01*
X181883333Y-58063047D01*
%TO.C,C1*%
X135147142Y-137044666D02*
X135194761Y-137092285D01*
X135242380Y-137235142D01*
X135242380Y-137330380D01*
X135194761Y-137473238D01*
X135099523Y-137568476D01*
X135004285Y-137616095D01*
X134813809Y-137663714D01*
X134670952Y-137663714D01*
X134480476Y-137616095D01*
X134385238Y-137568476D01*
X134290000Y-137473238D01*
X134242380Y-137330380D01*
X134242380Y-137235142D01*
X134290000Y-137092285D01*
X134337619Y-137044666D01*
X135242380Y-136092285D02*
X135242380Y-136663714D01*
X135242380Y-136378000D02*
X134242380Y-136378000D01*
X134385238Y-136473238D01*
X134480476Y-136568476D01*
X134528095Y-136663714D01*
%TO.C,C2*%
X156297333Y-147677142D02*
X156249714Y-147724761D01*
X156106857Y-147772380D01*
X156011619Y-147772380D01*
X155868761Y-147724761D01*
X155773523Y-147629523D01*
X155725904Y-147534285D01*
X155678285Y-147343809D01*
X155678285Y-147200952D01*
X155725904Y-147010476D01*
X155773523Y-146915238D01*
X155868761Y-146820000D01*
X156011619Y-146772380D01*
X156106857Y-146772380D01*
X156249714Y-146820000D01*
X156297333Y-146867619D01*
X156678285Y-146867619D02*
X156725904Y-146820000D01*
X156821142Y-146772380D01*
X157059238Y-146772380D01*
X157154476Y-146820000D01*
X157202095Y-146867619D01*
X157249714Y-146962857D01*
X157249714Y-147058095D01*
X157202095Y-147200952D01*
X156630666Y-147772380D01*
X157249714Y-147772380D01*
%TO.C,C3*%
X134977142Y-109894666D02*
X135024761Y-109942285D01*
X135072380Y-110085142D01*
X135072380Y-110180380D01*
X135024761Y-110323238D01*
X134929523Y-110418476D01*
X134834285Y-110466095D01*
X134643809Y-110513714D01*
X134500952Y-110513714D01*
X134310476Y-110466095D01*
X134215238Y-110418476D01*
X134120000Y-110323238D01*
X134072380Y-110180380D01*
X134072380Y-110085142D01*
X134120000Y-109942285D01*
X134167619Y-109894666D01*
X134072380Y-109561333D02*
X134072380Y-108942285D01*
X134453333Y-109275619D01*
X134453333Y-109132761D01*
X134500952Y-109037523D01*
X134548571Y-108989904D01*
X134643809Y-108942285D01*
X134881904Y-108942285D01*
X134977142Y-108989904D01*
X135024761Y-109037523D01*
X135072380Y-109132761D01*
X135072380Y-109418476D01*
X135024761Y-109513714D01*
X134977142Y-109561333D01*
%TO.C,C4*%
X163893142Y-102234666D02*
X163940761Y-102282285D01*
X163988380Y-102425142D01*
X163988380Y-102520380D01*
X163940761Y-102663238D01*
X163845523Y-102758476D01*
X163750285Y-102806095D01*
X163559809Y-102853714D01*
X163416952Y-102853714D01*
X163226476Y-102806095D01*
X163131238Y-102758476D01*
X163036000Y-102663238D01*
X162988380Y-102520380D01*
X162988380Y-102425142D01*
X163036000Y-102282285D01*
X163083619Y-102234666D01*
X163321714Y-101377523D02*
X163988380Y-101377523D01*
X162940761Y-101615619D02*
X163655047Y-101853714D01*
X163655047Y-101234666D01*
%TO.C,C5*%
X113133142Y-102782666D02*
X113180761Y-102830285D01*
X113228380Y-102973142D01*
X113228380Y-103068380D01*
X113180761Y-103211238D01*
X113085523Y-103306476D01*
X112990285Y-103354095D01*
X112799809Y-103401714D01*
X112656952Y-103401714D01*
X112466476Y-103354095D01*
X112371238Y-103306476D01*
X112276000Y-103211238D01*
X112228380Y-103068380D01*
X112228380Y-102973142D01*
X112276000Y-102830285D01*
X112323619Y-102782666D01*
X112228380Y-101877904D02*
X112228380Y-102354095D01*
X112704571Y-102401714D01*
X112656952Y-102354095D01*
X112609333Y-102258857D01*
X112609333Y-102020761D01*
X112656952Y-101925523D01*
X112704571Y-101877904D01*
X112799809Y-101830285D01*
X113037904Y-101830285D01*
X113133142Y-101877904D01*
X113180761Y-101925523D01*
X113228380Y-102020761D01*
X113228380Y-102258857D01*
X113180761Y-102354095D01*
X113133142Y-102401714D01*
%TO.C,C6*%
X113133142Y-110362666D02*
X113180761Y-110410285D01*
X113228380Y-110553142D01*
X113228380Y-110648380D01*
X113180761Y-110791238D01*
X113085523Y-110886476D01*
X112990285Y-110934095D01*
X112799809Y-110981714D01*
X112656952Y-110981714D01*
X112466476Y-110934095D01*
X112371238Y-110886476D01*
X112276000Y-110791238D01*
X112228380Y-110648380D01*
X112228380Y-110553142D01*
X112276000Y-110410285D01*
X112323619Y-110362666D01*
X112228380Y-109505523D02*
X112228380Y-109696000D01*
X112276000Y-109791238D01*
X112323619Y-109838857D01*
X112466476Y-109934095D01*
X112656952Y-109981714D01*
X113037904Y-109981714D01*
X113133142Y-109934095D01*
X113180761Y-109886476D01*
X113228380Y-109791238D01*
X113228380Y-109600761D01*
X113180761Y-109505523D01*
X113133142Y-109457904D01*
X113037904Y-109410285D01*
X112799809Y-109410285D01*
X112704571Y-109457904D01*
X112656952Y-109505523D01*
X112609333Y-109600761D01*
X112609333Y-109791238D01*
X112656952Y-109886476D01*
X112704571Y-109934095D01*
X112799809Y-109981714D01*
%TO.C,D1*%
X119403904Y-129596380D02*
X119403904Y-128596380D01*
X119642000Y-128596380D01*
X119784857Y-128644000D01*
X119880095Y-128739238D01*
X119927714Y-128834476D01*
X119975333Y-129024952D01*
X119975333Y-129167809D01*
X119927714Y-129358285D01*
X119880095Y-129453523D01*
X119784857Y-129548761D01*
X119642000Y-129596380D01*
X119403904Y-129596380D01*
X120927714Y-129596380D02*
X120356285Y-129596380D01*
X120642000Y-129596380D02*
X120642000Y-128596380D01*
X120546761Y-128739238D01*
X120451523Y-128834476D01*
X120356285Y-128882095D01*
X116070095Y-129766380D02*
X116070095Y-128766380D01*
X116641523Y-129766380D02*
X116212952Y-129194952D01*
X116641523Y-128766380D02*
X116070095Y-129337809D01*
%TO.C,LED1*%
X164742952Y-139644380D02*
X164266761Y-139644380D01*
X164266761Y-138644380D01*
X165076285Y-139120571D02*
X165409619Y-139120571D01*
X165552476Y-139644380D02*
X165076285Y-139644380D01*
X165076285Y-138644380D01*
X165552476Y-138644380D01*
X165981047Y-139644380D02*
X165981047Y-138644380D01*
X166219142Y-138644380D01*
X166362000Y-138692000D01*
X166457238Y-138787238D01*
X166504857Y-138882476D01*
X166552476Y-139072952D01*
X166552476Y-139215809D01*
X166504857Y-139406285D01*
X166457238Y-139501523D01*
X166362000Y-139596761D01*
X166219142Y-139644380D01*
X165981047Y-139644380D01*
X167504857Y-139644380D02*
X166933428Y-139644380D01*
X167219142Y-139644380D02*
X167219142Y-138644380D01*
X167123904Y-138787238D01*
X167028666Y-138882476D01*
X166933428Y-138930095D01*
%TO.C,LED2*%
X164234952Y-134056380D02*
X163758761Y-134056380D01*
X163758761Y-133056380D01*
X164568285Y-133532571D02*
X164901619Y-133532571D01*
X165044476Y-134056380D02*
X164568285Y-134056380D01*
X164568285Y-133056380D01*
X165044476Y-133056380D01*
X165473047Y-134056380D02*
X165473047Y-133056380D01*
X165711142Y-133056380D01*
X165854000Y-133104000D01*
X165949238Y-133199238D01*
X165996857Y-133294476D01*
X166044476Y-133484952D01*
X166044476Y-133627809D01*
X165996857Y-133818285D01*
X165949238Y-133913523D01*
X165854000Y-134008761D01*
X165711142Y-134056380D01*
X165473047Y-134056380D01*
X166425428Y-133151619D02*
X166473047Y-133104000D01*
X166568285Y-133056380D01*
X166806380Y-133056380D01*
X166901619Y-133104000D01*
X166949238Y-133151619D01*
X166996857Y-133246857D01*
X166996857Y-133342095D01*
X166949238Y-133484952D01*
X166377809Y-134056380D01*
X166996857Y-134056380D01*
%TO.C,LED3*%
X164488952Y-128214380D02*
X164012761Y-128214380D01*
X164012761Y-127214380D01*
X164822285Y-127690571D02*
X165155619Y-127690571D01*
X165298476Y-128214380D02*
X164822285Y-128214380D01*
X164822285Y-127214380D01*
X165298476Y-127214380D01*
X165727047Y-128214380D02*
X165727047Y-127214380D01*
X165965142Y-127214380D01*
X166108000Y-127262000D01*
X166203238Y-127357238D01*
X166250857Y-127452476D01*
X166298476Y-127642952D01*
X166298476Y-127785809D01*
X166250857Y-127976285D01*
X166203238Y-128071523D01*
X166108000Y-128166761D01*
X165965142Y-128214380D01*
X165727047Y-128214380D01*
X166631809Y-127214380D02*
X167250857Y-127214380D01*
X166917523Y-127595333D01*
X167060380Y-127595333D01*
X167155619Y-127642952D01*
X167203238Y-127690571D01*
X167250857Y-127785809D01*
X167250857Y-128023904D01*
X167203238Y-128119142D01*
X167155619Y-128166761D01*
X167060380Y-128214380D01*
X166774666Y-128214380D01*
X166679428Y-128166761D01*
X166631809Y-128119142D01*
%TO.C,LED4*%
X164742952Y-123134380D02*
X164266761Y-123134380D01*
X164266761Y-122134380D01*
X165076285Y-122610571D02*
X165409619Y-122610571D01*
X165552476Y-123134380D02*
X165076285Y-123134380D01*
X165076285Y-122134380D01*
X165552476Y-122134380D01*
X165981047Y-123134380D02*
X165981047Y-122134380D01*
X166219142Y-122134380D01*
X166362000Y-122182000D01*
X166457238Y-122277238D01*
X166504857Y-122372476D01*
X166552476Y-122562952D01*
X166552476Y-122705809D01*
X166504857Y-122896285D01*
X166457238Y-122991523D01*
X166362000Y-123086761D01*
X166219142Y-123134380D01*
X165981047Y-123134380D01*
X167409619Y-122467714D02*
X167409619Y-123134380D01*
X167171523Y-122086761D02*
X166933428Y-122801047D01*
X167552476Y-122801047D01*
%TO.C,LED5*%
X164488952Y-117546380D02*
X164012761Y-117546380D01*
X164012761Y-116546380D01*
X164822285Y-117022571D02*
X165155619Y-117022571D01*
X165298476Y-117546380D02*
X164822285Y-117546380D01*
X164822285Y-116546380D01*
X165298476Y-116546380D01*
X165727047Y-117546380D02*
X165727047Y-116546380D01*
X165965142Y-116546380D01*
X166108000Y-116594000D01*
X166203238Y-116689238D01*
X166250857Y-116784476D01*
X166298476Y-116974952D01*
X166298476Y-117117809D01*
X166250857Y-117308285D01*
X166203238Y-117403523D01*
X166108000Y-117498761D01*
X165965142Y-117546380D01*
X165727047Y-117546380D01*
X167203238Y-116546380D02*
X166727047Y-116546380D01*
X166679428Y-117022571D01*
X166727047Y-116974952D01*
X166822285Y-116927333D01*
X167060380Y-116927333D01*
X167155619Y-116974952D01*
X167203238Y-117022571D01*
X167250857Y-117117809D01*
X167250857Y-117355904D01*
X167203238Y-117451142D01*
X167155619Y-117498761D01*
X167060380Y-117546380D01*
X166822285Y-117546380D01*
X166727047Y-117498761D01*
X166679428Y-117451142D01*
%TO.C,LED6*%
X164742952Y-112212380D02*
X164266761Y-112212380D01*
X164266761Y-111212380D01*
X165076285Y-111688571D02*
X165409619Y-111688571D01*
X165552476Y-112212380D02*
X165076285Y-112212380D01*
X165076285Y-111212380D01*
X165552476Y-111212380D01*
X165981047Y-112212380D02*
X165981047Y-111212380D01*
X166219142Y-111212380D01*
X166362000Y-111260000D01*
X166457238Y-111355238D01*
X166504857Y-111450476D01*
X166552476Y-111640952D01*
X166552476Y-111783809D01*
X166504857Y-111974285D01*
X166457238Y-112069523D01*
X166362000Y-112164761D01*
X166219142Y-112212380D01*
X165981047Y-112212380D01*
X167409619Y-111212380D02*
X167219142Y-111212380D01*
X167123904Y-111260000D01*
X167076285Y-111307619D01*
X166981047Y-111450476D01*
X166933428Y-111640952D01*
X166933428Y-112021904D01*
X166981047Y-112117142D01*
X167028666Y-112164761D01*
X167123904Y-112212380D01*
X167314380Y-112212380D01*
X167409619Y-112164761D01*
X167457238Y-112117142D01*
X167504857Y-112021904D01*
X167504857Y-111783809D01*
X167457238Y-111688571D01*
X167409619Y-111640952D01*
X167314380Y-111593333D01*
X167123904Y-111593333D01*
X167028666Y-111640952D01*
X166981047Y-111688571D01*
X166933428Y-111783809D01*
%TO.C,LED7*%
X164615952Y-106878380D02*
X164139761Y-106878380D01*
X164139761Y-105878380D01*
X164949285Y-106354571D02*
X165282619Y-106354571D01*
X165425476Y-106878380D02*
X164949285Y-106878380D01*
X164949285Y-105878380D01*
X165425476Y-105878380D01*
X165854047Y-106878380D02*
X165854047Y-105878380D01*
X166092142Y-105878380D01*
X166235000Y-105926000D01*
X166330238Y-106021238D01*
X166377857Y-106116476D01*
X166425476Y-106306952D01*
X166425476Y-106449809D01*
X166377857Y-106640285D01*
X166330238Y-106735523D01*
X166235000Y-106830761D01*
X166092142Y-106878380D01*
X165854047Y-106878380D01*
X166758809Y-105878380D02*
X167425476Y-105878380D01*
X166996904Y-106878380D01*
%TO.C,LED8*%
X164488952Y-101544380D02*
X164012761Y-101544380D01*
X164012761Y-100544380D01*
X164822285Y-101020571D02*
X165155619Y-101020571D01*
X165298476Y-101544380D02*
X164822285Y-101544380D01*
X164822285Y-100544380D01*
X165298476Y-100544380D01*
X165727047Y-101544380D02*
X165727047Y-100544380D01*
X165965142Y-100544380D01*
X166108000Y-100592000D01*
X166203238Y-100687238D01*
X166250857Y-100782476D01*
X166298476Y-100972952D01*
X166298476Y-101115809D01*
X166250857Y-101306285D01*
X166203238Y-101401523D01*
X166108000Y-101496761D01*
X165965142Y-101544380D01*
X165727047Y-101544380D01*
X166869904Y-100972952D02*
X166774666Y-100925333D01*
X166727047Y-100877714D01*
X166679428Y-100782476D01*
X166679428Y-100734857D01*
X166727047Y-100639619D01*
X166774666Y-100592000D01*
X166869904Y-100544380D01*
X167060380Y-100544380D01*
X167155619Y-100592000D01*
X167203238Y-100639619D01*
X167250857Y-100734857D01*
X167250857Y-100782476D01*
X167203238Y-100877714D01*
X167155619Y-100925333D01*
X167060380Y-100972952D01*
X166869904Y-100972952D01*
X166774666Y-101020571D01*
X166727047Y-101068190D01*
X166679428Y-101163428D01*
X166679428Y-101353904D01*
X166727047Y-101449142D01*
X166774666Y-101496761D01*
X166869904Y-101544380D01*
X167060380Y-101544380D01*
X167155619Y-101496761D01*
X167203238Y-101449142D01*
X167250857Y-101353904D01*
X167250857Y-101163428D01*
X167203238Y-101068190D01*
X167155619Y-101020571D01*
X167060380Y-100972952D01*
%TO.C,ON1*%
X161210761Y-147700380D02*
X161401238Y-147700380D01*
X161496476Y-147748000D01*
X161591714Y-147843238D01*
X161639333Y-148033714D01*
X161639333Y-148367047D01*
X161591714Y-148557523D01*
X161496476Y-148652761D01*
X161401238Y-148700380D01*
X161210761Y-148700380D01*
X161115523Y-148652761D01*
X161020285Y-148557523D01*
X160972666Y-148367047D01*
X160972666Y-148033714D01*
X161020285Y-147843238D01*
X161115523Y-147748000D01*
X161210761Y-147700380D01*
X162067904Y-148700380D02*
X162067904Y-147700380D01*
X162639333Y-148700380D01*
X162639333Y-147700380D01*
X163639333Y-148700380D02*
X163067904Y-148700380D01*
X163353619Y-148700380D02*
X163353619Y-147700380D01*
X163258380Y-147843238D01*
X163163142Y-147938476D01*
X163067904Y-147986095D01*
%TO.C,POT1*%
X109672380Y-94606857D02*
X108672380Y-94606857D01*
X108672380Y-94225904D01*
X108720000Y-94130666D01*
X108767619Y-94083047D01*
X108862857Y-94035428D01*
X109005714Y-94035428D01*
X109100952Y-94083047D01*
X109148571Y-94130666D01*
X109196190Y-94225904D01*
X109196190Y-94606857D01*
X108672380Y-93416380D02*
X108672380Y-93225904D01*
X108720000Y-93130666D01*
X108815238Y-93035428D01*
X109005714Y-92987809D01*
X109339047Y-92987809D01*
X109529523Y-93035428D01*
X109624761Y-93130666D01*
X109672380Y-93225904D01*
X109672380Y-93416380D01*
X109624761Y-93511619D01*
X109529523Y-93606857D01*
X109339047Y-93654476D01*
X109005714Y-93654476D01*
X108815238Y-93606857D01*
X108720000Y-93511619D01*
X108672380Y-93416380D01*
X108672380Y-92702095D02*
X108672380Y-92130666D01*
X109672380Y-92416380D02*
X108672380Y-92416380D01*
X109672380Y-91273523D02*
X109672380Y-91844952D01*
X109672380Y-91559238D02*
X108672380Y-91559238D01*
X108815238Y-91654476D01*
X108910476Y-91749714D01*
X108958095Y-91844952D01*
%TO.C,POT2*%
X109672380Y-83430857D02*
X108672380Y-83430857D01*
X108672380Y-83049904D01*
X108720000Y-82954666D01*
X108767619Y-82907047D01*
X108862857Y-82859428D01*
X109005714Y-82859428D01*
X109100952Y-82907047D01*
X109148571Y-82954666D01*
X109196190Y-83049904D01*
X109196190Y-83430857D01*
X108672380Y-82240380D02*
X108672380Y-82049904D01*
X108720000Y-81954666D01*
X108815238Y-81859428D01*
X109005714Y-81811809D01*
X109339047Y-81811809D01*
X109529523Y-81859428D01*
X109624761Y-81954666D01*
X109672380Y-82049904D01*
X109672380Y-82240380D01*
X109624761Y-82335619D01*
X109529523Y-82430857D01*
X109339047Y-82478476D01*
X109005714Y-82478476D01*
X108815238Y-82430857D01*
X108720000Y-82335619D01*
X108672380Y-82240380D01*
X108672380Y-81526095D02*
X108672380Y-80954666D01*
X109672380Y-81240380D02*
X108672380Y-81240380D01*
X108767619Y-80668952D02*
X108720000Y-80621333D01*
X108672380Y-80526095D01*
X108672380Y-80288000D01*
X108720000Y-80192761D01*
X108767619Y-80145142D01*
X108862857Y-80097523D01*
X108958095Y-80097523D01*
X109100952Y-80145142D01*
X109672380Y-80716571D01*
X109672380Y-80097523D01*
%TO.C,R1*%
X128298380Y-65952666D02*
X127822190Y-66286000D01*
X128298380Y-66524095D02*
X127298380Y-66524095D01*
X127298380Y-66143142D01*
X127346000Y-66047904D01*
X127393619Y-66000285D01*
X127488857Y-65952666D01*
X127631714Y-65952666D01*
X127726952Y-66000285D01*
X127774571Y-66047904D01*
X127822190Y-66143142D01*
X127822190Y-66524095D01*
X128298380Y-65000285D02*
X128298380Y-65571714D01*
X128298380Y-65286000D02*
X127298380Y-65286000D01*
X127441238Y-65381238D01*
X127536476Y-65476476D01*
X127584095Y-65571714D01*
%TO.C,R2*%
X150455333Y-52946380D02*
X150122000Y-52470190D01*
X149883904Y-52946380D02*
X149883904Y-51946380D01*
X150264857Y-51946380D01*
X150360095Y-51994000D01*
X150407714Y-52041619D01*
X150455333Y-52136857D01*
X150455333Y-52279714D01*
X150407714Y-52374952D01*
X150360095Y-52422571D01*
X150264857Y-52470190D01*
X149883904Y-52470190D01*
X150836285Y-52041619D02*
X150883904Y-51994000D01*
X150979142Y-51946380D01*
X151217238Y-51946380D01*
X151312476Y-51994000D01*
X151360095Y-52041619D01*
X151407714Y-52136857D01*
X151407714Y-52232095D01*
X151360095Y-52374952D01*
X150788666Y-52946380D01*
X151407714Y-52946380D01*
%TO.C,R3*%
X160615333Y-52946380D02*
X160282000Y-52470190D01*
X160043904Y-52946380D02*
X160043904Y-51946380D01*
X160424857Y-51946380D01*
X160520095Y-51994000D01*
X160567714Y-52041619D01*
X160615333Y-52136857D01*
X160615333Y-52279714D01*
X160567714Y-52374952D01*
X160520095Y-52422571D01*
X160424857Y-52470190D01*
X160043904Y-52470190D01*
X160948666Y-51946380D02*
X161567714Y-51946380D01*
X161234380Y-52327333D01*
X161377238Y-52327333D01*
X161472476Y-52374952D01*
X161520095Y-52422571D01*
X161567714Y-52517809D01*
X161567714Y-52755904D01*
X161520095Y-52851142D01*
X161472476Y-52898761D01*
X161377238Y-52946380D01*
X161091523Y-52946380D01*
X160996285Y-52898761D01*
X160948666Y-52851142D01*
%TO.C,R4*%
X170775333Y-52946380D02*
X170442000Y-52470190D01*
X170203904Y-52946380D02*
X170203904Y-51946380D01*
X170584857Y-51946380D01*
X170680095Y-51994000D01*
X170727714Y-52041619D01*
X170775333Y-52136857D01*
X170775333Y-52279714D01*
X170727714Y-52374952D01*
X170680095Y-52422571D01*
X170584857Y-52470190D01*
X170203904Y-52470190D01*
X171632476Y-52279714D02*
X171632476Y-52946380D01*
X171394380Y-51898761D02*
X171156285Y-52613047D01*
X171775333Y-52613047D01*
%TO.C,R5*%
X180935333Y-52946380D02*
X180602000Y-52470190D01*
X180363904Y-52946380D02*
X180363904Y-51946380D01*
X180744857Y-51946380D01*
X180840095Y-51994000D01*
X180887714Y-52041619D01*
X180935333Y-52136857D01*
X180935333Y-52279714D01*
X180887714Y-52374952D01*
X180840095Y-52422571D01*
X180744857Y-52470190D01*
X180363904Y-52470190D01*
X181840095Y-51946380D02*
X181363904Y-51946380D01*
X181316285Y-52422571D01*
X181363904Y-52374952D01*
X181459142Y-52327333D01*
X181697238Y-52327333D01*
X181792476Y-52374952D01*
X181840095Y-52422571D01*
X181887714Y-52517809D01*
X181887714Y-52755904D01*
X181840095Y-52851142D01*
X181792476Y-52898761D01*
X181697238Y-52946380D01*
X181459142Y-52946380D01*
X181363904Y-52898761D01*
X181316285Y-52851142D01*
%TO.C,R6*%
X158329333Y-142184380D02*
X157996000Y-141708190D01*
X157757904Y-142184380D02*
X157757904Y-141184380D01*
X158138857Y-141184380D01*
X158234095Y-141232000D01*
X158281714Y-141279619D01*
X158329333Y-141374857D01*
X158329333Y-141517714D01*
X158281714Y-141612952D01*
X158234095Y-141660571D01*
X158138857Y-141708190D01*
X157757904Y-141708190D01*
X159186476Y-141184380D02*
X158996000Y-141184380D01*
X158900761Y-141232000D01*
X158853142Y-141279619D01*
X158757904Y-141422476D01*
X158710285Y-141612952D01*
X158710285Y-141993904D01*
X158757904Y-142089142D01*
X158805523Y-142136761D01*
X158900761Y-142184380D01*
X159091238Y-142184380D01*
X159186476Y-142136761D01*
X159234095Y-142089142D01*
X159281714Y-141993904D01*
X159281714Y-141755809D01*
X159234095Y-141660571D01*
X159186476Y-141612952D01*
X159091238Y-141565333D01*
X158900761Y-141565333D01*
X158805523Y-141612952D01*
X158757904Y-141660571D01*
X158710285Y-141755809D01*
%TO.C,R7*%
X184491333Y-140152380D02*
X184158000Y-139676190D01*
X183919904Y-140152380D02*
X183919904Y-139152380D01*
X184300857Y-139152380D01*
X184396095Y-139200000D01*
X184443714Y-139247619D01*
X184491333Y-139342857D01*
X184491333Y-139485714D01*
X184443714Y-139580952D01*
X184396095Y-139628571D01*
X184300857Y-139676190D01*
X183919904Y-139676190D01*
X184824666Y-139152380D02*
X185491333Y-139152380D01*
X185062761Y-140152380D01*
%TO.C,R8*%
X184491333Y-134818380D02*
X184158000Y-134342190D01*
X183919904Y-134818380D02*
X183919904Y-133818380D01*
X184300857Y-133818380D01*
X184396095Y-133866000D01*
X184443714Y-133913619D01*
X184491333Y-134008857D01*
X184491333Y-134151714D01*
X184443714Y-134246952D01*
X184396095Y-134294571D01*
X184300857Y-134342190D01*
X183919904Y-134342190D01*
X185062761Y-134246952D02*
X184967523Y-134199333D01*
X184919904Y-134151714D01*
X184872285Y-134056476D01*
X184872285Y-134008857D01*
X184919904Y-133913619D01*
X184967523Y-133866000D01*
X185062761Y-133818380D01*
X185253238Y-133818380D01*
X185348476Y-133866000D01*
X185396095Y-133913619D01*
X185443714Y-134008857D01*
X185443714Y-134056476D01*
X185396095Y-134151714D01*
X185348476Y-134199333D01*
X185253238Y-134246952D01*
X185062761Y-134246952D01*
X184967523Y-134294571D01*
X184919904Y-134342190D01*
X184872285Y-134437428D01*
X184872285Y-134627904D01*
X184919904Y-134723142D01*
X184967523Y-134770761D01*
X185062761Y-134818380D01*
X185253238Y-134818380D01*
X185348476Y-134770761D01*
X185396095Y-134723142D01*
X185443714Y-134627904D01*
X185443714Y-134437428D01*
X185396095Y-134342190D01*
X185348476Y-134294571D01*
X185253238Y-134246952D01*
%TO.C,R9*%
X184237333Y-129484380D02*
X183904000Y-129008190D01*
X183665904Y-129484380D02*
X183665904Y-128484380D01*
X184046857Y-128484380D01*
X184142095Y-128532000D01*
X184189714Y-128579619D01*
X184237333Y-128674857D01*
X184237333Y-128817714D01*
X184189714Y-128912952D01*
X184142095Y-128960571D01*
X184046857Y-129008190D01*
X183665904Y-129008190D01*
X184713523Y-129484380D02*
X184904000Y-129484380D01*
X184999238Y-129436761D01*
X185046857Y-129389142D01*
X185142095Y-129246285D01*
X185189714Y-129055809D01*
X185189714Y-128674857D01*
X185142095Y-128579619D01*
X185094476Y-128532000D01*
X184999238Y-128484380D01*
X184808761Y-128484380D01*
X184713523Y-128532000D01*
X184665904Y-128579619D01*
X184618285Y-128674857D01*
X184618285Y-128912952D01*
X184665904Y-129008190D01*
X184713523Y-129055809D01*
X184808761Y-129103428D01*
X184999238Y-129103428D01*
X185094476Y-129055809D01*
X185142095Y-129008190D01*
X185189714Y-128912952D01*
%TO.C,R10*%
X184269142Y-123896380D02*
X183935809Y-123420190D01*
X183697714Y-123896380D02*
X183697714Y-122896380D01*
X184078666Y-122896380D01*
X184173904Y-122944000D01*
X184221523Y-122991619D01*
X184269142Y-123086857D01*
X184269142Y-123229714D01*
X184221523Y-123324952D01*
X184173904Y-123372571D01*
X184078666Y-123420190D01*
X183697714Y-123420190D01*
X185221523Y-123896380D02*
X184650095Y-123896380D01*
X184935809Y-123896380D02*
X184935809Y-122896380D01*
X184840571Y-123039238D01*
X184745333Y-123134476D01*
X184650095Y-123182095D01*
X185840571Y-122896380D02*
X185935809Y-122896380D01*
X186031047Y-122944000D01*
X186078666Y-122991619D01*
X186126285Y-123086857D01*
X186173904Y-123277333D01*
X186173904Y-123515428D01*
X186126285Y-123705904D01*
X186078666Y-123801142D01*
X186031047Y-123848761D01*
X185935809Y-123896380D01*
X185840571Y-123896380D01*
X185745333Y-123848761D01*
X185697714Y-123801142D01*
X185650095Y-123705904D01*
X185602476Y-123515428D01*
X185602476Y-123277333D01*
X185650095Y-123086857D01*
X185697714Y-122991619D01*
X185745333Y-122944000D01*
X185840571Y-122896380D01*
%TO.C,R11*%
X184269142Y-118816380D02*
X183935809Y-118340190D01*
X183697714Y-118816380D02*
X183697714Y-117816380D01*
X184078666Y-117816380D01*
X184173904Y-117864000D01*
X184221523Y-117911619D01*
X184269142Y-118006857D01*
X184269142Y-118149714D01*
X184221523Y-118244952D01*
X184173904Y-118292571D01*
X184078666Y-118340190D01*
X183697714Y-118340190D01*
X185221523Y-118816380D02*
X184650095Y-118816380D01*
X184935809Y-118816380D02*
X184935809Y-117816380D01*
X184840571Y-117959238D01*
X184745333Y-118054476D01*
X184650095Y-118102095D01*
X186173904Y-118816380D02*
X185602476Y-118816380D01*
X185888190Y-118816380D02*
X185888190Y-117816380D01*
X185792952Y-117959238D01*
X185697714Y-118054476D01*
X185602476Y-118102095D01*
%TO.C,R12*%
X184269142Y-113482380D02*
X183935809Y-113006190D01*
X183697714Y-113482380D02*
X183697714Y-112482380D01*
X184078666Y-112482380D01*
X184173904Y-112530000D01*
X184221523Y-112577619D01*
X184269142Y-112672857D01*
X184269142Y-112815714D01*
X184221523Y-112910952D01*
X184173904Y-112958571D01*
X184078666Y-113006190D01*
X183697714Y-113006190D01*
X185221523Y-113482380D02*
X184650095Y-113482380D01*
X184935809Y-113482380D02*
X184935809Y-112482380D01*
X184840571Y-112625238D01*
X184745333Y-112720476D01*
X184650095Y-112768095D01*
X185602476Y-112577619D02*
X185650095Y-112530000D01*
X185745333Y-112482380D01*
X185983428Y-112482380D01*
X186078666Y-112530000D01*
X186126285Y-112577619D01*
X186173904Y-112672857D01*
X186173904Y-112768095D01*
X186126285Y-112910952D01*
X185554857Y-113482380D01*
X186173904Y-113482380D01*
%TO.C,R13*%
X184269142Y-108148380D02*
X183935809Y-107672190D01*
X183697714Y-108148380D02*
X183697714Y-107148380D01*
X184078666Y-107148380D01*
X184173904Y-107196000D01*
X184221523Y-107243619D01*
X184269142Y-107338857D01*
X184269142Y-107481714D01*
X184221523Y-107576952D01*
X184173904Y-107624571D01*
X184078666Y-107672190D01*
X183697714Y-107672190D01*
X185221523Y-108148380D02*
X184650095Y-108148380D01*
X184935809Y-108148380D02*
X184935809Y-107148380D01*
X184840571Y-107291238D01*
X184745333Y-107386476D01*
X184650095Y-107434095D01*
X185554857Y-107148380D02*
X186173904Y-107148380D01*
X185840571Y-107529333D01*
X185983428Y-107529333D01*
X186078666Y-107576952D01*
X186126285Y-107624571D01*
X186173904Y-107719809D01*
X186173904Y-107957904D01*
X186126285Y-108053142D01*
X186078666Y-108100761D01*
X185983428Y-108148380D01*
X185697714Y-108148380D01*
X185602476Y-108100761D01*
X185554857Y-108053142D01*
%TO.C,R14*%
X184269142Y-102814380D02*
X183935809Y-102338190D01*
X183697714Y-102814380D02*
X183697714Y-101814380D01*
X184078666Y-101814380D01*
X184173904Y-101862000D01*
X184221523Y-101909619D01*
X184269142Y-102004857D01*
X184269142Y-102147714D01*
X184221523Y-102242952D01*
X184173904Y-102290571D01*
X184078666Y-102338190D01*
X183697714Y-102338190D01*
X185221523Y-102814380D02*
X184650095Y-102814380D01*
X184935809Y-102814380D02*
X184935809Y-101814380D01*
X184840571Y-101957238D01*
X184745333Y-102052476D01*
X184650095Y-102100095D01*
X186078666Y-102147714D02*
X186078666Y-102814380D01*
X185840571Y-101766761D02*
X185602476Y-102481047D01*
X186221523Y-102481047D01*
%TO.C,SW1*%
X132576666Y-71492761D02*
X132719523Y-71540380D01*
X132957619Y-71540380D01*
X133052857Y-71492761D01*
X133100476Y-71445142D01*
X133148095Y-71349904D01*
X133148095Y-71254666D01*
X133100476Y-71159428D01*
X133052857Y-71111809D01*
X132957619Y-71064190D01*
X132767142Y-71016571D01*
X132671904Y-70968952D01*
X132624285Y-70921333D01*
X132576666Y-70826095D01*
X132576666Y-70730857D01*
X132624285Y-70635619D01*
X132671904Y-70588000D01*
X132767142Y-70540380D01*
X133005238Y-70540380D01*
X133148095Y-70588000D01*
X133481428Y-70540380D02*
X133719523Y-71540380D01*
X133910000Y-70826095D01*
X134100476Y-71540380D01*
X134338571Y-70540380D01*
X135243333Y-71540380D02*
X134671904Y-71540380D01*
X134957619Y-71540380D02*
X134957619Y-70540380D01*
X134862380Y-70683238D01*
X134767142Y-70778476D01*
X134671904Y-70826095D01*
%TO.C,SW2*%
X182076761Y-90995333D02*
X182124380Y-90852476D01*
X182124380Y-90614380D01*
X182076761Y-90519142D01*
X182029142Y-90471523D01*
X181933904Y-90423904D01*
X181838666Y-90423904D01*
X181743428Y-90471523D01*
X181695809Y-90519142D01*
X181648190Y-90614380D01*
X181600571Y-90804857D01*
X181552952Y-90900095D01*
X181505333Y-90947714D01*
X181410095Y-90995333D01*
X181314857Y-90995333D01*
X181219619Y-90947714D01*
X181172000Y-90900095D01*
X181124380Y-90804857D01*
X181124380Y-90566761D01*
X181172000Y-90423904D01*
X181124380Y-90090571D02*
X182124380Y-89852476D01*
X181410095Y-89662000D01*
X182124380Y-89471523D01*
X181124380Y-89233428D01*
X181219619Y-88900095D02*
X181172000Y-88852476D01*
X181124380Y-88757238D01*
X181124380Y-88519142D01*
X181172000Y-88423904D01*
X181219619Y-88376285D01*
X181314857Y-88328666D01*
X181410095Y-88328666D01*
X181552952Y-88376285D01*
X182124380Y-88947714D01*
X182124380Y-88328666D01*
%TO.C,SW3*%
X124904666Y-99402761D02*
X125047523Y-99450380D01*
X125285619Y-99450380D01*
X125380857Y-99402761D01*
X125428476Y-99355142D01*
X125476095Y-99259904D01*
X125476095Y-99164666D01*
X125428476Y-99069428D01*
X125380857Y-99021809D01*
X125285619Y-98974190D01*
X125095142Y-98926571D01*
X124999904Y-98878952D01*
X124952285Y-98831333D01*
X124904666Y-98736095D01*
X124904666Y-98640857D01*
X124952285Y-98545619D01*
X124999904Y-98498000D01*
X125095142Y-98450380D01*
X125333238Y-98450380D01*
X125476095Y-98498000D01*
X125809428Y-98450380D02*
X126047523Y-99450380D01*
X126238000Y-98736095D01*
X126428476Y-99450380D01*
X126666571Y-98450380D01*
X126952285Y-98450380D02*
X127571333Y-98450380D01*
X127238000Y-98831333D01*
X127380857Y-98831333D01*
X127476095Y-98878952D01*
X127523714Y-98926571D01*
X127571333Y-99021809D01*
X127571333Y-99259904D01*
X127523714Y-99355142D01*
X127476095Y-99402761D01*
X127380857Y-99450380D01*
X127095142Y-99450380D01*
X126999904Y-99402761D01*
X126952285Y-99355142D01*
%TO.C,SW4*%
X186902761Y-75247333D02*
X186950380Y-75104476D01*
X186950380Y-74866380D01*
X186902761Y-74771142D01*
X186855142Y-74723523D01*
X186759904Y-74675904D01*
X186664666Y-74675904D01*
X186569428Y-74723523D01*
X186521809Y-74771142D01*
X186474190Y-74866380D01*
X186426571Y-75056857D01*
X186378952Y-75152095D01*
X186331333Y-75199714D01*
X186236095Y-75247333D01*
X186140857Y-75247333D01*
X186045619Y-75199714D01*
X185998000Y-75152095D01*
X185950380Y-75056857D01*
X185950380Y-74818761D01*
X185998000Y-74675904D01*
X185950380Y-74342571D02*
X186950380Y-74104476D01*
X186236095Y-73914000D01*
X186950380Y-73723523D01*
X185950380Y-73485428D01*
X186283714Y-72675904D02*
X186950380Y-72675904D01*
X185902761Y-72914000D02*
X186617047Y-73152095D01*
X186617047Y-72533047D01*
%TO.C,U1*%
X136906095Y-149518380D02*
X136906095Y-150327904D01*
X136953714Y-150423142D01*
X137001333Y-150470761D01*
X137096571Y-150518380D01*
X137287047Y-150518380D01*
X137382285Y-150470761D01*
X137429904Y-150423142D01*
X137477523Y-150327904D01*
X137477523Y-149518380D01*
X138477523Y-150518380D02*
X137906095Y-150518380D01*
X138191809Y-150518380D02*
X138191809Y-149518380D01*
X138096571Y-149661238D01*
X138001333Y-149756476D01*
X137906095Y-149804095D01*
%TO.C,Y1*%
X118340190Y-117062190D02*
X118816380Y-117062190D01*
X117816380Y-117395523D02*
X118340190Y-117062190D01*
X117816380Y-116728857D01*
X118816380Y-115871714D02*
X118816380Y-116443142D01*
X118816380Y-116157428D02*
X117816380Y-116157428D01*
X117959238Y-116252666D01*
X118054476Y-116347904D01*
X118102095Y-116443142D01*
%TD*%
M02*
